<?xml version="1.0" encoding="UTF-8"?><svg id="Layer_1" xmlns="http://www.w3.org/2000/svg" xmlns:xlink="http://www.w3.org/1999/xlink" viewBox="0 0 1000 1000"><defs><style>.cls-1{fill:url(#Red);}.cls-1,.cls-2,.cls-3{opacity:.55;}.cls-2{fill:url(#Red-3);}.cls-3{fill:url(#Red-2);}</style><linearGradient id="Red" x1="53.44" y1="502.36" x2="977.16" y2="502.36" gradientUnits="userSpaceOnUse"><stop offset="0" stop-color="#f37f7b"/><stop offset=".5" stop-color="#ed3d57"/><stop offset="1" stop-color="#dd1e47"/></linearGradient><linearGradient id="Red-2" x1="444.57" y1="471.8" x2="449.65" y2="471.8" xlink:href="#Red"/><linearGradient id="Red-3" x1="563.14" y1="694.61" x2="631.19" y2="694.61" xlink:href="#Red"/></defs><path class="cls-1" d="M498.51,34.27c-1.32-1.67-2.28-2.89-3.97-5.04,1.89,.55,2.79,.57,3.33,1.02,7.14,5.91,15.7,4.21,23.87,4.43,13.64,.36,27.34-.18,40.91,.96,26.73,2.23,53.28,6.31,79.21,13.15,21.76,5.74,43.43,12.18,63.85,21.97,13.11,6.29,25.84,13.4,39.04,19.48,15.99,7.37,29.38,18.53,43.48,28.64,10.47,7.51,20.9,15.23,30.41,23.9,13.29,12.11,25.9,24.98,38.38,37.95,5.05,5.25,8.82,11.7,13.43,17.4,2.97,3.67,6.66,6.76,9.55,10.48,4.82,6.21,9.35,12.65,13.82,19.12,3.65,5.28,7.14,10.68,10.53,16.13,3.94,6.35,9.16,11.85,10.99,19.59,.86,3.64,4.22,6.63,6.16,10.07,13.61,24.23,23.06,50.26,32.48,76.26,3.65,10.09,6.08,20.68,8.42,31.18,3.78,16.95,7.32,33.96,10.36,51.06,1.56,8.77,2.07,17.76,2.58,26.67,.86,14.89,2.01,29.81,1.79,44.7-.22,14.71-1.92,29.41-3.1,44.1-.68,8.37-1.46,16.73-2.51,25.06-.77,6.05-2.22,12.01-3.07,18.04-.39,2.78-.1,5.65-.09,8.48,0,.46,.39,1.01,.23,1.35-6.9,14.6-7.34,30.9-12.1,46.05-5.16,16.44-10.58,32.8-16.02,49.15-2.09,6.29-3.92,12.78-6.99,18.59-4.15,7.85-9.43,15.1-14.13,22.67-6.55,10.56-12.75,21.34-19.56,31.72-5.72,8.71-12.07,17.03-18.24,25.45-6.96,9.51-13.97,18.99-21.12,28.36-1.57,2.05-4.27,3.27-5.7,5.38-6.47,9.59-15.96,16.24-23.55,24.69-9.08,10.12-20.13,17.91-30.16,26.9-4.67,4.18-9.69,7.99-14.71,11.76-2.58,1.93-5.54,3.34-8.26,5.09-8.91,5.75-17.57,11.94-26.75,17.22-10.31,5.93-20.97,11.29-31.71,16.43-9.22,4.41-18.67,8.37-28.18,12.12-12.44,4.9-24.96,9.64-37.61,13.95-7.65,2.61-15.57,4.49-23.46,6.31-10.61,2.45-21.21,5.21-31.98,6.6-19.02,2.45-38.13,4.29-57.25,5.72-11.57,.87-23.28,1.26-34.84,.49-21.48-1.43-43.08-2.73-64.28-6.22-21.14-3.49-41.99-9.09-62.7-14.78-10.94-3-21.33-8.06-31.89-12.36-8.1-3.3-16.24-6.57-24.09-10.4-12.5-6.1-24.93-12.39-37.09-19.12-6.78-3.75-12.98-8.56-19.43-12.92-1.24-.84-2.29-2.07-3.64-2.59-12.02-4.66-20.07-14.95-30.78-21.57-8.03-4.96-14.98-11.72-22.16-17.97-6.68-5.81-13.52-11.56-19.42-18.12-12.04-13.38-23.86-26.99-35.07-41.07-9.36-11.76-18.05-24.11-26.42-36.61-6.26-9.35-11.5-19.38-17.29-29.05-1.93-3.23-3.92-6.49-6.33-9.36-5.51-6.57-6.9-14.88-9.86-22.49-5.88-15.09-11.78-30.21-16.81-45.59-3.89-11.9-6.59-24.2-9.58-36.38-1.97-8.03-3.68-16.13-5.18-24.26-2.7-14.64-5.79-29.26-7.54-44.02-1.8-15.26-2.72-30.67-3.05-46.03-.34-15.4-.47-30.92,1.12-46.2,1.82-17.52,5.42-34.88,8.68-52.22,1.95-10.39,4.27-20.76,7.26-30.89,3.98-13.5,8.51-26.85,13.32-40.08,4.13-11.38,8.54-22.7,13.62-33.69,8.29-17.91,17.82-35.1,28.22-51.98,7.95-12.89,19.13-23.33,25.76-37.04,1.59-3.28,4.92-5.71,7.41-8.57,5.44-6.25,10.57-12.78,16.32-18.73,10.94-11.3,22.01-22.48,33.43-33.29,8.87-8.39,18-16.59,27.65-24.06,9.8-7.59,20.16-14.5,30.65-21.12,10.37-6.55,20.94-12.88,31.89-18.37,14.66-7.34,29.76-13.78,44.68-20.6,32.58-14.88,67.4-21.31,102.42-26.7,16.81-2.59,33.81-3.97,50.72-5.91,.45-.05,.89-.23,1.74-.45h-.04ZM124.69,732.54l-1.21,.91c32.59,58.68,76.47,107.57,130.71,147.14,83.89,61.2,178.41,89.41,281.71,86.14,67.18-2.12,130.91-19.96,190.23-52.12,58.25-31.58,108.52-72.55,147.12-125.93-12.05,9.65-24.69,19.69-37.21,29.87-1.75,1.42-2.61,4.05-4.46,5.21-5.29,3.3-10.88,6.12-16.35,9.13-9.39,5.17-18.66,10.57-28.2,15.43-8.77,4.47-17.77,8.5-26.79,12.45-6.47,2.84-13.17,5.14-19.67,7.91-.91,.39-1.28,2.08-1.89,3.17-2.06-.72-3.75-.46-5.36,.06-1.16,.38-2.15,1.26-3.3,1.66-7.57,2.59-15.26,4.51-22.59,8.19-7.09,3.55-15.34,5.07-23.25,6.62-20.61,4.04-41.24,8.16-62.02,11.17-16.83,2.44-33.9,3.23-50.83,5.01-2.54,.27-5.74,1.31-7.24,3.13-7.44,9.05-14.44,18.45-21.53,27.78-4.59,6.04-8.91,12.3-13.65,18.23-3.24,4.05-7,7.7-11.6,12.69-4.77-5.27-9.27-9.87-13.33-14.83-4.43-5.42-8.39-11.23-12.68-16.77-4.41-5.68-9.03-11.2-13.45-16.86-2.33-2.98-5.29-5.84-6.48-9.26-2.68-7.73-8.94-8.57-15.44-9.4-1.97-.25-4.04,.13-5.98-.25-20.65-4.02-41.38-7.7-61.88-12.37-13.68-3.12-27.2-7.18-40.49-11.72-21.16-7.22-42.07-15.17-63.07-22.85-8.88-3.25-17.92-6.18-26.54-10.03-7.68-3.43-14.83-8.01-22.3-11.92-17.7-9.27-34.29-20.17-48.87-33.9-8.04-7.57-15.22-16.1-23.65-23.18-10.69-8.99-19.44-19.65-28.64-29.97-3.19-3.58-6.53-7.03-9.81-10.54h0Zm388.33-307.24c-22.47-14.18-45.75-28.88-69.5-43.86-1.69,2.73-3.26,5.04-4.59,7.48-3.72,6.84-7.15,13.85-11.06,20.58-8.06,13.9-16.4,27.64-24.56,41.48-7.47,12.69-14.83,25.45-22.29,38.14-2.35,3.99-5.08,7.76-7.28,11.83-3.76,6.96-3.65,7.02,2.42,13.81,19.62-12.44,39.34-24.94,59.31-37.6,.07,5.29-1.32,9.17-5.88,11.4-2.68,1.31-5.42,2.58-7.86,4.26-7.2,4.94-14.15,10.24-21.41,15.09-6.53,4.36-13.34,8.3-20.34,12.62,2.51,4.28,4.54,8.04,6.86,11.61,4.69,7.22,9.74,14.22,14.27,21.53,4.87,7.86,9.24,16.04,13.99,23.99,8.82,14.79,17.79,29.48,26.6,44.27,1.92,3.22,4.36,4.46,8.16,4.38,20.32-.42,40.64-.6,60.95-.88,4.45-.06,6.67-2.27,6.67-6.63-.08-61.49-.16-122.99-.25-184.48,0-.88-.2-1.75-.36-3.03-20.13,13.47-38.6,28.67-61.3,36.38-.41-.67-.83-1.35-1.24-2.02,19.75-13.58,39.49-27.17,58.66-40.36h.03Zm60.91,465.58c6.44-.54,11.3-.9,16.15-1.37,13.84-1.34,27.88-1.69,41.48-4.33,21.1-4.1,41.99-9.38,62.77-14.9,12.46-3.31,24.71-7.62,36.74-12.27,13.73-5.31,27.26-11.19,40.6-17.4,11.85-5.51,23.59-11.36,34.89-17.9,9.82-5.69,19.02-12.47,28.36-18.97,2.66-1.85,4.75-4.49,7.28-6.57,7.25-5.97,15.03-11.38,21.79-17.87,8.02-7.7,15.15-16.32,22.76-24.46,6.23-6.67,12.61-13.21,18.9-19.83,.69-.72,1.18-1.63,2.58-3.58-7.95,1.54-14.56,2.66-21.1,4.12-14.51,3.24-28.94,6.86-43.49,9.92-12.13,2.55-24.42,4.34-36.58,6.79-16.21,3.26-32.36,6.81-48.54,10.24-16.82,3.57-33.64,7.1-50.45,10.73-15.69,3.39-31.25,7.48-47.06,10.09-9.18,1.51-14.04,7.88-18.97,13.88-6.51,7.92-11.29,17.23-17.44,25.48-7.98,10.7-16.71,20.84-24.83,31.44-5.9,7.69-11.37,15.71-16.96,23.63-2.72,3.85-5.27,7.8-8.87,13.15v-.02Zm328.75-462.4c7.07-11.69,11.59-22.94,13.62-35,2.38-14.18,4.51-28.42,6.13-42.71,.86-7.55,.77-15.27,.44-22.88-.47-11.12,.76-22.36-5.49-32.85-6.77-11.36-11.92-23.67-18.24-35.31-4.48-8.24-9.39-16.3-14.74-24-7.16-10.3-13.78-21.37-22.71-29.95-13.24-12.72-28.18-23.71-42.66-35.1-5.28-4.15-11.2-7.53-17.06-10.87-3.69-2.1-7.93-3.22-11.7-5.2-12.4-6.53-24.29-14.21-37.13-19.65-17.3-7.33-35.09-13.73-53.08-19.17-17.69-5.35-35.71-9.99-53.9-13.14-23.76-4.11-47.81-6.56-71.77-9.45-5.24-.63-10.62-.09-16.3-.09,4.84,8.03,9.44,15.68,14.04,23.34,5.78,9.62,11.75,19.14,17.24,28.93,2.18,3.89,4.55,5.76,9.25,5.97,21.63,1,43.33,1.67,64.84,3.96,21.53,2.3,43.02,5.35,63.58,13.1,19.35,7.28,39.23,13.15,58.57,20.44,12.85,4.84,25.24,10.92,37.68,16.77,9.25,4.35,18.05,9.7,27.43,13.7,9.28,3.96,15.05,9.36,16.01,20.18,1.32,14.93,3.74,29.78,6.21,44.58,2.82,16.93,6.31,33.75,9.31,50.65,2,11.24,3.27,22.62,5.55,33.8,2.6,12.77,5.89,25.41,9.02,38.08,1.72,6.99,3.73,13.91,5.87,21.87h-.01Zm-94.43-178.82c-.05-.42-.09-.84-.14-1.26-3.4,.29-6.81,.85-10.21,.84-8.92-.03-17.83-.47-26.75-.44-23.8,.07-47.6,.31-71.4,.44-1.14,0-2.4-.11-3.4-.58-1.21-.57-2.2-1.59-3.29-2.41,1.06-.82,2.03-2.16,3.2-2.37,2.92-.52,5.94-.74,8.91-.71,16.78,.18,33.57,.73,50.35,.64,15.07-.08,30.13-.83,45.2-1.27,3-.09,6,0,8.99-.16,6.97-.38,13.84-.79,20.23-4.4,4.59-2.6,9.71-4.22,14.53-6.42,1.23-.56,2.21-1.66,4.08-3.11-77.44-44.02-158.66-70.5-247.95-68.7,.13,.9,.09,1.26,.23,1.51,8.17,13.71,16.48,27.33,24.5,41.12,5.67,9.76,10.97,19.73,16.41,29.63,1.89,3.44,4.13,6.19,8.4,7,6.6,1.25,13.12,2.95,19.23,4.36,.61,5.9-2.25,6.16-5.53,6.09-3.97-.08-7.94-.02-12.94-.02,5.4,9.56,10.34,18.57,15.54,27.44,3.34,5.7,7.11,11.14,10.62,16.75,3.13,5,6.06,10.14,9.31,15.06,1.24,1.87,2.72,3.71,5.72,1.84,4.86-3.02,9.98-5.65,15.04-8.34,12-6.37,24.02-12.72,36.07-19,6.3-3.28,12.71-6.34,19.02-9.59,7.66-3.94,15.27-7.98,22.92-11.95,7.69-4,15.39-7.99,23.09-11.98h.02ZM143.05,732.37c-.17,.66-.34,1.32-.51,1.98,4.99,4.89,9.99,9.78,14.98,14.68,10.2,10.01,20.09,20.34,30.67,29.93,8.92,8.08,18.21,15.9,28.1,22.73,11.07,7.65,22.87,14.29,34.62,20.9,5.87,3.31,12.3,5.65,18.52,8.32,9.74,4.19,19.43,8.49,29.3,12.35,7.54,2.95,15.45,4.97,22.98,7.94,11.25,4.43,22.09,9.99,34.34,11.4,1.45,.17,2.82,.95,4.25,1.37,10.95,3.19,21.81,6.72,32.87,9.44,15.89,3.91,31.92,7.26,47.91,10.77,4.17,.92,8.42,1.53,12.63,2.28-6.37-10.9-13.24-20.56-20.06-30.26-5.49-7.8-10.77-15.75-16.42-23.43-6.22-8.45-12.84-16.62-19.15-25.01-4.68-6.22-9.3-12.49-13.63-18.96-2.14-3.19-4.93-4.59-8.48-5.27-12-2.28-24.04-4.38-35.95-7.04-10.8-2.41-21.46-5.42-32.17-8.23-5.43-1.42-10.8-3.11-16.25-4.43-6.42-1.55-12.93-2.75-19.37-4.27-9.4-2.22-18.71-4.85-28.16-6.83-16.68-3.49-33.47-6.41-50.14-9.97-14.88-3.18-29.62-6.96-44.46-10.32-2.05-.46-4.29-.06-6.44-.06h.02Zm264.29-44.68c.07,.68,.14,1.35,.21,2.03-10.25,4.32-21.2,1.26-31.95,1.84,1.57,1.44,3.28,2.38,4.9,3.46,5.85,3.89,12.09,6.95,17.01,12.49,4.13,4.65,9.72,8.08,17.02,8.02,17.57-.14,35.14,.47,52.71,.71,7.02,.1,14.04,.02,21.08,.02-1.9-5.93-8.59-9.21-6.27-15.51-1.62-1.91-3.47-3.62-4.76-5.68-6.41-10.25-12.73-20.56-18.96-30.92-4.69-7.81-9.62-15.52-13.64-23.67-2.9-5.87-6.89-8.35-13.2-7.98-4.15,.25-8.32,.21-12.48,.23-7.05,.03-14.09,0-21.43,0v-6.38h38.18c-20.91-34.6-41.16-68.1-61.33-101.47-7.78,3.84-14.6,6.87-21.07,10.5-5.41,3.04-8.35,7.19-8.11,14.4,.73,21.97,.43,43.98,.47,65.98,.01,6.13-.39,6.37-7.28,5.22v-70.67c-.54-.32-1.07-.63-1.61-.95-6.69,6.02-13.37,12.05-20.06,18.07-.61,.55-1.23,1.11-1.91,1.58-4.63,3.23-9.46,6.19-13.87,9.69-11.13,8.83-22.21,17.74-33.02,26.95-3.37,2.87-5.85,6.8-8.87,10.41,1.2,.71,1.58,1.06,2.01,1.18,16.39,4.56,33.3,5.01,50.1,6.12,14,.92,28.06,.9,42.08,1.38,6.45,.22,12.89,.65,19.35,.98,1.15,4.52-.65,5.98-4.81,5.88-7.46-.17-14.92-.05-23.32-.05,.34,3.05,.92,6.08,.97,9.1,.13,8.66-.08,17.33,.09,26,.09,4.46,1.89,7.81,6.8,9.07,2.32,.59,4.6,2.03,6.45,3.61,6.45,5.52,13.5,8.58,22.24,7.49,4.27-.53,8.66-.21,12.99-.05,4.44,.16,8.88,.59,13.32,.9l-.03,.02Zm299.43,26.84h211.79c-.11-1.52,.06-2.43-.26-3.12-4.16-9.04-7.89-18.32-12.69-27.01-10.65-19.27-21.9-38.2-32.79-57.33-4.33-7.61-8.23-15.47-12.61-23.05-9.41-16.27-19-32.44-28.35-48.36-15.33,16.31-24.99,36.92-41.49,52.15-9.96,20.47-26.18,36.45-39.6,54.4-13.45,17.98-28.86,34.5-43.98,52.33h-.02Zm-502.9-160.87c-29.26,53.47-57.88,105.76-86.84,158.68,2.74,1.07,4.06,2.03,5.38,2.03,67.68,.07,135.37,.06,204.46,.06-43.43-52.03-84.07-104.89-122.99-160.78h-.01Zm320.81-122.54v193.17c2.01,.09,3.63,.23,5.24,.22,18.76-.13,37.52-.08,56.27-.57,4.51-.12,9.29,.35,12.33-5.79,5.77-11.64,13.01-22.56,19.74-33.72,2.41-4,5.23-7.76,7.63-11.78,7.37-12.34,14.63-24.76,21.93-37.14,3.3-5.59,6.59-11.18,9.59-16.26-44.78-29.73-88.59-58.82-132.73-88.13h0Zm-380.07-26.68c1.45-7.85,2.69-14.48,3.91-21.12,2.12-11.5,4.34-22.99,6.31-34.52,2.36-13.83,4.59-27.68,6.72-41.55,1.88-12.25,3.57-24.53,5.32-36.8,1.89-13.24,3.68-26.5,5.71-39.73,.23-1.48,1.44-3.29,2.73-4.04,4.25-2.51,8.76-4.55,13.12-6.87,11.98-6.37,23.77-13.12,35.93-19.11,11.39-5.62,23.29-10.18,34.72-15.74,9.39-4.57,18.98-8.13,29.2-10.42,9.35-2.1,18.47-5.23,27.66-7.98,24.25-7.27,49.47-8.74,74.36-11.82,17.51-2.17,35.27-2.22,52.91-3.43,1.65-.11,3.69-1.36,4.69-2.71,1.91-2.57,3.04-5.7,4.77-8.42,6.4-10.07,12.99-20.01,19.35-30.1,2.87-4.55,7-8.96,3.01-15.26-.8-.09-1.95-.42-3.07-.34-12.35,.99-24.83,1.25-37.02,3.27-19.87,3.28-39.63,7.33-59.28,11.8-16.91,3.84-33.76,8.16-50.32,13.29-16.08,4.99-31.85,11.02-47.55,17.12-7.54,2.93-14.62,7.07-21.91,10.65-12.58,6.18-25.37,11.87-36.48,20.77-9.26,7.42-19.43,13.7-28.71,21.1-7.21,5.75-13.87,12.26-20.41,18.78-6.38,6.36-12.48,13.04-18.37,19.86-1.99,2.31-3.5,5.33-4.32,8.28-3.01,10.83-5.67,21.76-8.41,32.67-4.91,19.54-6.44,39.55-7.45,59.55-.54,10.76,.66,21.59,.55,32.39-.15,14.47,5.92,26.87,12.32,40.41v.02Zm-19.31-128.63c-.27-.09-.54-.18-.81-.27-.4,.47-.91,.89-1.18,1.42-6.83,13.99-14.7,27.59-20.2,42.08-7.69,20.28-14.27,41.04-20.09,61.94-5.05,18.13-9.71,36.56-12.1,55.17-2.78,21.66-3.93,43.67-3.85,65.52,.07,19.13,2.07,38.34,4.59,57.34,2.5,18.8,5.98,37.54,10.39,55.98,4.69,19.62,10.84,38.89,16.62,58.24,1.83,6.14,4.49,12.03,6.77,18.03,.99-4.93,1.06-9.65,.98-14.37-.39-22.41,.76-44.74,4.16-66.88,3-19.56,6.48-39.05,9.98-58.54,2.16-12.03,4.65-24.01,7.16-35.98,1.69-8.08,3.93-16.05,5.48-24.15,2.36-12.32,4.26-24.72,6.49-37.07,1.18-6.56,2.56-12.86-2.38-18.87-2.22-2.7-3.26-6.53-4.29-10.01-3.34-11.25-6.7-22.52-9.54-33.9-2.32-9.29-4.97-18.7-5.59-28.18-1.53-23.56-.16-47.07,4.28-70.33,1.09-5.71,2.08-11.45,3.12-17.17h0Zm729.89-16.9c-3.32,14.08-6.73,29.18-10.47,44.19-2.43,9.76-5.57,19.34-8,29.1-2.99,12.04-5.38,24.23-8.38,36.27-4.67,18.75-9.84,37.38-14.43,56.16-4.21,17.2-7.92,34.51-11.88,51.77-.91,3.95-1.11,7.63,1.08,11.45,5.99,10.48,11.55,21.21,17.48,31.72,3.37,5.98,7.13,11.74,10.83,17.8,9.44-12.72,18.78-25.01,27.8-37.54,6.03-8.37,11.74-16.98,17.36-25.64,5.33-8.22,10.45-16.58,15.41-25.03,.87-1.47,1.01-3.82,.57-5.53-1.81-7.03-4.32-13.9-5.94-20.97-4.01-17.58-7.62-35.25-11.5-52.85-1.35-6.13-3.55-12.11-4.49-18.29-2.16-14.24-3.35-28.63-5.74-42.82-2.86-17.03-6.56-33.91-9.68-49.78h-.02Zm-670.05-26.38c3.08,.64,5.3,.63,7.04,1.54,7.9,4.14,16.37,5.14,25.08,5.15,16.82,.03,33.65,.05,50.47,.07,38.14,.05,76.29,.24,114.43,0,5.28-.03,11.35,1.16,15.07-5.65,5.7-10.43,12.62-20.18,18.72-30.4,7.66-12.86,15.03-25.89,22.49-38.87,.71-1.23,1.18-2.6,2.06-4.56-45.38,.34-89.25,6.19-132.24,18-43.32,11.9-83.28,31.58-123.12,54.74h0Zm214.97,123.06c2.66-6.72,2.72-6.84,8.23-3.66,2.33,1.35,4.18,3.51,6.49,4.9,7.75,4.68,15.57,9.27,23.48,13.66,1.05,.58,3.49,.41,4.13-.36,2.21-2.65,4.05-5.64,5.76-8.66,4.32-7.66,8.49-15.42,12.72-23.13,3.05-5.56,6.1-11.11,9.29-16.94-17.73-2.04-104.66-.57-108.28,2.17,8.65,5.87,17.08,11.64,25.58,17.3,2,1.33,4.75,2.58,2.3,5.11-1.01,1.05-4.38,1-5.95,.13-7.53-4.16-14.78-8.85-22.21-13.2-4.47-2.62-9.09-4.97-14.53-7.93-.74,3.71-1.56,5.93-1.57,8.14-.08,44.33-.08,88.66-.03,132.99,0,1.61,.16,3.49,.97,4.8,3.99,6.41,8.18,12.7,12.38,18.98,1.99,2.97,4.17,5.82,7.21,10.02,24.16-41.16,47.72-81.3,71.45-121.72-12.33-7.45-24.9-15.05-37.42-22.61h0Zm-163.51,128.6c.8-.59,1.29-.79,1.51-1.15,4.69-7.66,9.27-15.39,14.06-22.99,4.3-6.84,8.8-13.56,13.25-20.3,7.48-11.34,14.59-22.95,22.69-33.83,3.24-4.36,3.39-6.96,.35-11.14-4.95-6.81-9.3-14.06-13.86-21.14-5.64-8.77-11.01-17.72-16.95-26.28-4.4-6.35-9.8-11.99-14.25-18.31-8.42-11.97-16.25-24.36-24.75-36.27-8.91-12.48-18.12-24.76-27.63-36.78-3.34-4.22-7.96-7.43-12.63-11.68,0,8.91-1.21,16.72,.23,24,3.86,19.45,8.94,38.65,13.35,58,1.32,5.78,1.67,11.8,3.15,17.53,1.16,4.5,3.88,8.6,5.03,13.1,4.47,17.45,8.4,35.05,12.9,52.49,2.6,10.07,5.94,19.96,8.9,29.94,2.88,9.68,5.56,19.43,8.62,29.05,1.67,5.27,3.93,10.35,6.03,15.77h0Zm700.51-144.36h-1.28c-.09,1.45-.18,2.91-.28,4.36-.67,10.08-1.34,20.17-2.02,30.25-1.46,21.68-10.07,40.9-20.25,59.65-2.7,4.97-4.55,10.4-6.58,15.7-.34,.89,.43,2.19,.67,3.31,2.07,9.52,4.35,19.01,6.14,28.59,1.97,10.54,3.25,21.22,5.26,31.76,2.98,15.72,6.97,31.27,9.35,47.08,2.26,15.01,3.53,30.22,4.26,45.39,.97,20.22,.99,40.49,1.4,60.74,.06,3.13,0,6.27,0,9.4,1.24-.46,1.52-1,1.67-1.57,3.31-12.64,6.75-25.24,9.87-37.92,3.2-13.01,6.62-26.01,8.94-39.19,2.4-13.65,3.88-27.49,5.25-41.3,1.62-16.28,3.49-32.59,3.77-48.92,.3-17.74-.27-35.59-1.99-53.24-1.88-19.21-4.6-38.45-8.65-57.31-4.11-19.15-10.27-37.85-15.54-56.75v-.03Zm-249.44-13.36c-4.99,3.21-9.08,5.94-13.26,8.53-13.04,8.1-26.1,16.15-39.16,24.21-11.91,7.35-23.81,14.7-35.76,21.99-3.63,2.21-2.96,4.49-.65,7.26,2.31,2.77,4.67,5.59,6.44,8.72,3.81,6.75,7.1,13.8,10.89,20.56,4.04,7.21,8.51,14.19,12.61,21.37,5.75,10.08,11.26,20.3,17.02,30.38,4.69,8.19,9.61,16.25,14.39,24.39,2.31,3.94,4.51,7.93,7.31,12.87,6.17-9.44,11.83-17.83,17.15-26.44,1.5-2.43,2.75-5.46,2.82-8.25,.37-13.48,.36-26.97,.36-40.45,0-22.46-.12-44.92-.16-67.39-.02-12.27,0-24.53,0-37.75h0Zm-500.94,2.06c-7.97-15.13-6.46-31.84-11.24-48.02-.5,1.73-.82,2.47-.92,3.25-1.4,10.98-2.7,21.98-4.16,32.96-1.83,13.74-3.59,27.48-5.73,41.17-1.86,11.92-4.17,23.76-6.34,35.63-1.04,5.66-2.38,11.27-3.27,16.96-1.8,11.4-5.05,22.86,.13,34.24,1.71,3.76,3.29,7.61,5.31,11.2,6.44,11.43,10.1,24.16,17.76,35.11,6.59,9.43,11.4,20.09,17.15,30.12,2.98,5.19,6.29,10.19,9.84,15.88,1.17-2.33,1.79-3.83,2.64-5.19,5.79-9.25,11.54-18.51,17.47-27.67,4.25-6.57,8.01-13.04,1.83-20.5-.3-.36-.38-.91-.53-1.39-3.73-11.84-7.49-23.66-11.18-35.51-3.92-12.61-8.33-25.1-11.52-37.9-4.68-18.75-8.25-37.78-12.83-56.55-.8-3.27,1.88-4.74,1.68-6.75-.75-7.5-2.22-14.92-3.43-22.37-.37-.06-.74-.13-1.11-.19-.43,1.56-.87,3.12-1.53,5.51h-.02Zm732.34,359.83c3.06-76.02-2.98-149.67-23.35-222.44-3.48,5.22-6.66,9.93-9.78,14.67-2.72,4.15-5.21,8.47-8.1,12.5-7.31,10.21-14.79,20.3-22.21,30.42-4.76,6.5-9.06,13.43-14.5,19.31-3.03,3.27-3.49,5.39-1.32,8.93,6.65,10.85,13.22,21.75,19.66,32.72,7.35,12.53,14.65,25.1,21.75,37.78,7.04,12.56,13.64,25.38,20.75,37.9,5.2,9.16,10.91,18.04,17.11,28.21h0Zm-191.36-273.64c-.9,.11-1.81,.23-2.71,.34-1.03,3.2-1.52,6.71-3.17,9.55-5.62,9.66-11.99,18.89-17.37,28.68-2.96,5.38-7.86,9.95-7.75,16.9,.32,20.63,.31,41.26,.8,61.88,.07,2.8,1.5,6.36,3.54,8.17,7.66,6.82,15.76,13.15,23.83,19.51,12.42,9.79,24.94,19.46,37.42,29.18,.52,.41,.97,.9,1.47,1.34,4.64,4.11,9.28,8.23,14.81,13.13,2.33-16.26,.22-30.48-2.95-44.45-2.59-11.42-6.6-22.51-9.91-33.76-5.77-19.61-11.27-39.3-17.3-58.83-3.18-10.28-7.01-20.39-10.98-30.4-2.87-7.23-6.45-14.17-9.71-21.24h-.02Zm-177.57,301.06c1.67,.37,2.29,.62,2.92,.62,22.14,.01,44.29,.19,66.43-.16,4.6-.07,9.98-.91,13.61-3.42,8.84-6.11,16.87-13.41,25.95-20.83h-47.42c1.04-.69,1.63-1.09,2.36-1.58-.9-.48-1.59-.84-2.28-1.21,3.61-1.48,7.16-2.14,10.73-2.21,11.31-.23,22.62-.33,33.93-.31,9.33,.01,17.96-1.1,25.22-8.24,3.31-3.25,5.83-6.06,5.92-10.75,.15-7.81,.54-15.62,.57-23.42,.01-4.76-.48-9.52-.75-14.31-.93-.2-1.57-.45-2.2-.45-26.81-.03-53.62-.13-80.43,.15-2.28,.02-5.46,2.08-6.66,4.11-8.23,13.97-16.02,28.2-24,42.32-3.01,5.33-6.06,10.63-9.23,15.86-4.69,7.75-9.5,15.43-14.68,23.82h.01ZM149.88,464.9c-1.27,6.59-2.42,11.56-3.16,16.59-1.42,9.8-1.87,19.81-4.04,29.43-5.64,24.99-12.41,49.72-15.53,75.23-1.57,12.79-3.22,25.58-4.6,38.39-.69,6.42-.91,12.89-1.29,19.35-.87,14.78-1.7,29.56-2.54,44.34,.46,.09,.92,.19,1.38,.28,1.48-2.69,2.93-5.39,4.45-8.06,4.64-8.19,9.33-16.34,13.95-24.54,3.06-5.43,6.05-10.9,8.99-16.39,1.62-3.02,2.92-6.21,4.66-9.15,3.5-5.94,7.43-11.62,10.74-17.66,3.61-6.57,6.41-13.6,10.12-20.11,5.48-9.64,11.52-18.96,17.15-28.51,2.94-4.99,5.59-10.17,8.16-15.37,.55-1.12,.83-3.12,.21-3.96-4.89-6.69-10.32-12.99-15-19.82-5.06-7.39-9.8-15.04-14.13-22.88-6.54-11.84-12.61-23.94-19.51-37.14v-.02Zm642.28,8.61c16.64-74.3,33.03-147.44,54.19-219.47-3.21,3.02-6.1,6.16-8.77,9.47-5.09,6.3-10.06,12.69-15.07,19.05-3.89,4.94-8.01,9.72-11.6,14.86-5.53,7.93-10.46,16.27-16.06,24.14-6.6,9.27-13.85,18.07-20.42,27.35-5.23,7.4-9.66,15.37-14.81,22.83-4.3,6.23-9.18,12.05-13.68,18.14-.66,.89-1.18,2.48-.83,3.39,.93,2.45,2.33,4.72,3.6,7.03,5.4,9.89,10.65,19.87,16.28,29.63,4.37,7.59,9.24,14.89,13.82,22.36,3.68,6.01,7.25,12.08,10.91,18.11,.48,.79,1.16,1.47,2.45,3.09v.02Zm-449.48-159.69c-3.14-.95-6.31-1.4-8.96-2.81-10.08-5.39-20.08-10.76-31.1-14.21-6.93-2.17-13.44-5.72-20.01-8.93-11.04-5.38-21.94-11.03-32.95-16.46-7.83-3.85-15.73-7.55-23.63-11.26-5.2-2.45-10.34-5.08-15.7-7.11-4.27-1.62-8.83-2.48-12.89-3.58,33.44,48.25,66.64,96.14,99.4,143.4,15.07-25.99,30.63-52.8,45.85-79.04h-.01Zm-81.66,288.18c9.1-7.96,17.33-15.62,26.04-22.67,9.68-7.83,19.89-14.99,29.71-22.65,6.66-5.19,13.2-10.56,19.46-16.22,1.7-1.54,2.89-4.32,3.12-6.66,.39-3.87-.33-7.84-.34-11.76-.05-17.14,.09-34.27-.11-51.41-.03-2.26-1.22-4.74-2.5-6.71-5.44-8.28-11.1-16.42-16.72-24.58-3.01-4.38-6.1-8.7-9.2-13.11-5.24,15.67-10.22,30.92-15.47,46.08-2.12,6.11-5.02,11.94-7.23,18.02-6.36,17.45-12.01,35.17-18.95,52.38-7.63,18.94-9.73,38.34-7.81,59.27v.02Zm255.53,213.61c-39.9-9.24-80.48-18.64-121.07-28.04-.58,.89-1.15,1.78-1.73,2.66,2.9,2.23,5.9,4.35,8.66,6.73,1.19,1.03,1.99,2.56,2.8,3.97,1.53,2.67,2.61,5.66,4.43,8.09,6.64,8.85,13.6,17.46,20.28,26.29,5.66,7.48,11.12,15.11,16.6,22.73,5.58,7.76,10.99,15.63,16.64,23.34,2.09,2.85,3.86,5.94,8.35,6.24,14.83,1,29.63,2.43,45.04,3.75v-75.76h0ZM403.8,238.06c1.51,.17,2.64,.44,3.76,.39,13.56-.63,27.13-1.26,40.69-1.99,8.95-.48,17.9-1.07,26.84-1.7,13.04-.92,26.07-2.25,39.13-2.69,3.72-.13,4.25-1.23,4.25-4.14-.01-7.16,.03-14.31,.04-21.47v-47.4c-20.99,0-41.56-.09-62.13,.11-2.6,.02-6.32,.73-7.57,2.49-5.61,7.95-10.68,16.3-15.64,24.68-9.48,16.03-18.77,32.17-28.11,48.29-.55,.94-.76,2.08-1.25,3.43h0Zm433.99,12.2c-11.71,1.05-23.24,1.1-32.1,9.44-.8,.76-2.06,1.03-3.11,1.52-5.1,2.39-10.28,4.62-15.28,7.19-10.44,5.36-20.76,10.96-31.18,16.35-8.82,4.56-17.81,8.81-26.57,13.48-9.46,5.05-18.63,10.64-28.15,15.56-3.39,1.75-4.05,3.57-2.32,6.58,3.86,6.69,7.7,13.39,11.72,19.97,6.03,9.87,12.16,19.67,18.37,29.43,3.75,5.91,7.72,11.67,11.69,17.64,1.8-3.08,3.26-6.26,5.34-8.97,3.39-4.42,5.55-9.47,10.81-12.96,3.9-2.59,5.14-9.2,7.53-14.04,.73-1.47,1.09-3.19,2.04-4.48,4.79-6.44,9.86-12.68,14.58-19.17,5.03-6.92,9.77-14.05,14.67-21.06,7.56-10.83,15.55-21.39,22.56-32.56,3.07-4.9,9.19-7.32,9.81-14.64,.28-3.35,6.21-6.22,9.57-9.3l.02,.02Zm-203.08-13.39c-.17-1.23,.06-3.03-.67-4.27-3.4-5.84-7.14-11.47-10.59-17.27-6.83-11.47-13.58-22.99-20.3-34.52-3.08-5.29-5.82-10.79-9.09-15.95-1.66-2.62-3.15-5.47-7.49-5.46-19.3,.07-38.6-.34-57.89-.36-1.07,0-3.07,1.92-3.08,2.95-.16,22.14-.08,44.27-.12,66.41,0,2.63,.72,3.82,3.65,3.95,13.26,.58,26.51,1.38,39.77,2.15,7.08,.41,14.15,1.01,21.24,1.34,9.24,.43,18.48,.75,27.72,1,5.17,.14,10.35,.02,16.85,.02h0Zm-107.1-194.07c.99,1.72,1.59,2.84,2.25,3.92,6.07,9.99,12.1,20,18.31,29.91,.66,1.05,2.31,1.97,3.56,2.05,4.12,.28,8.29-.14,12.39,.23,16.19,1.43,32.41,2.63,48.52,4.73,18.02,2.34,36.05,4.96,53.85,8.59,13.39,2.73,26.53,6.86,39.57,11.04,13.55,4.34,26.75,9.8,40.28,14.23,19.53,6.39,37.06,16.67,54.63,26.96,3.1,1.82,6.41,3.29,9.62,4.92-42.31-37.99-89.89-67-143.87-84.57-44.89-14.61-90.98-22.75-139.1-22h-.01Zm-18.43,.71c-2.95,0-4.58-.06-6.2,0-19.31,.84-38.43,2.61-57.33,7.23-17.64,4.31-35.8,6.54-53.4,10.97-14.09,3.55-27.74,8.88-41.48,13.73-5.61,1.98-10.93,4.77-16.36,7.21-8.42,3.78-17.03,7.21-25.19,11.5-7.91,4.16-15.33,9.24-23,13.87-8.03,4.85-16.38,9.24-24.09,14.55-10.62,7.31-20.84,15.21-31.09,23.04-3.7,2.82-6.98,6.18-10.46,9.29,12.23-6.22,23.75-13.43,35.91-19.32,14.74-7.14,29.85-13.61,45.13-19.51,10.75-4.15,22.04-6.88,33.09-10.26,10.13-3.1,20.07-7.05,30.4-9.16,23.62-4.82,47.42-8.76,71.15-12.99,3.41-.61,6.89-.89,10.34-1.17,13.03-1.07,26.07-1.95,39.08-3.23,1.82-.18,4.07-1.77,5.09-3.36,3.81-5.97,7.23-12.2,10.72-18.37,2.41-4.25,4.7-8.56,7.69-14.04v.02Zm14.61,772.33c0,24.48,.19,47.53-.17,70.57-.07,4.24,1.41,4.78,4.7,4.8,6.28,.03,12.55,.18,18.83,.3,7.12,.13,14.35,1.1,19.1-6.38,3.53-5.56,7.63-10.75,11.51-16.09,4.76-6.55,9.48-13.13,14.35-19.61,7.43-9.9,15.02-19.68,22.44-29.59,1.88-2.5,3.19-5.44,5.09-7.92,5.72-7.46,11.59-14.8,17.41-22.19-.38-.62-.75-1.24-1.13-1.87-37.38,9.33-74.76,18.65-112.14,27.98h.01Zm5.29-390.57c45.33,30.31,90.43,60.46,135.48,90.57-24.68-42.89-49.51-86.04-74.36-129.23-20.35,12.87-40.63,25.7-61.12,38.66h0Zm158.24,197.74c.16-1.6,.4-2.89,.41-4.18,.08-21.8,.07-43.6,.23-65.39,.05-6.66,.2-12.93-6.06-17.65-5.83-4.39-10.98-9.67-16.8-14.88-20.73,34.47-41.63,67.22-60.56,102.1h82.78ZM224.2,249.18c-.14,.52-.27,1.05-.41,1.57,3.5,1.37,7.1,2.51,10.47,4.14,14.78,7.13,29.59,14.2,44.21,21.67,13,6.64,25.62,14.03,38.65,20.6,9.28,4.68,18.93,8.62,28.51,12.67,1.22,.52,3.65,.24,4.44-.64,2.75-3.06,5.21-6.42,7.43-9.9,6.11-9.55,12.15-19.14,17.99-28.85,4.1-6.82,7.84-13.86,12-21.25H224.2Zm222.93,127.5c24.68,11.33,44.52,30.53,69.9,41.25,.21-1.31,.41-1.95,.41-2.59,.03-30.11,0-60.23,.12-90.34,.01-3.31-1.5-3.82-4.27-3.79-9.31,.12-18.66,.62-27.91-.12-5.69-.45-8.12,2.28-10.36,6.36-3.27,5.96-6.48,11.95-9.84,17.86-5.76,10.13-11.62,20.21-18.04,31.36h0Zm216.31,392.96c.17,.6,.34,1.2,.52,1.81,75.12-19,151.1-33.74,227.51-46.53-.52-.93-.93-1.23-1.33-1.23-12.33-.03-24.67-.12-37-.02-9.88,.08-19.75,.6-29.63,.58-37.27-.08-74.54-.31-111.81-.46-6.42-.03-12.37-.29-16.84,6.51-5.32,8.08-12.28,15.06-18.4,22.63-4.44,5.49-8.67,11.15-13,16.73l-.02-.02ZM524.74,244.91c-.43,.52-.87,1.05-1.3,1.57,.59,1.47,1.03,3.03,1.79,4.4,6.18,11.12,12.48,22.17,18.61,33.31,1.65,3,2.67,6.34,4.3,9.36,2.93,5.44,5.89,10.88,9.24,16.05,2.11,3.26,5.08,5.06,9.57,5.01,28.26-.28,56.52-.21,84.78-.25h13.64c-3.01-2.55-5.97-4.19-8.95-5.79-6.4-3.45-12.76-6.96-19.22-10.29-8.06-4.14-16.22-8.09-24.31-12.18-9.88-5-19.69-10.13-29.59-15.09-11.68-5.86-23.29-11.89-35.17-17.3-7.57-3.45-15.58-5.91-23.39-8.81h0Zm.05,174.79c21.23-13.6,41.52-26.6,62.46-40.02-2.14-4.6-4.13-9.68-6.77-14.39-7.69-13.73-15.57-27.36-23.59-40.9-.86-1.45-3.05-2.89-4.69-2.96-7.32-.33-14.67,.14-21.98-.28-4.72-.27-5.84,1.37-5.81,5.88,.18,28.99,.09,57.98,.1,86.96,0,1.6,.15,3.21,.27,5.7h.01Zm-148.52-106.63c4.12,.45,8.29,1.28,12.46,1.31,25.14,.15,50.29-.04,75.43,.25,6.35,.07,10.81-.59,14.22-7.27,6.36-12.46,14.27-24.11,21.25-36.27,4.1-7.14,7.69-14.58,11.39-21.95,.43-.86,.06-2.13,.06-4.29-3.58,1.7-6.37,3.21-9.3,4.38-6.71,2.69-13.6,4.98-20.2,7.9-4.31,1.91-8.12,4.9-12.38,6.95-8.87,4.25-18.05,7.88-26.8,12.35-11.75,5.99-23.15,12.68-34.84,18.79-10.58,5.53-22.7,8.28-31.29,17.86h0Zm-7.84,456.61c-.55-1.33-.72-2.14-1.17-2.74-9.8-12.89-19.76-25.67-29.38-38.7-2.17-2.94-4.42-3.8-7.89-3.79-38.16,.09-76.32,.08-114.49-.02-10.81-.03-21.63-.52-32.44-.69-7.07-.11-14.14-.02-21.21-.02,4.73,2.34,9.57,3.76,14.48,4.75,8.58,1.73,17.21,3.17,25.81,4.79,5.45,1.03,10.86,2.26,16.32,3.22,4.06,.71,8.22,.85,12.25,1.69,12.81,2.68,25.61,5.48,38.37,8.42,15.45,3.55,30.9,7.17,46.29,10.97,14.61,3.61,29.13,7.56,43.73,11.19,2.82,.7,5.83,.62,9.31,.95l.02-.02Zm329.6-222.14c0,8.96-.03,17.88,0,26.79,.05,14.79,.14,29.58,.22,44.37,.01,2.41-.03,4.66,3.58,4.57,14.1-.35,28.22-.98,42.31-.6,10.11,.27,19.36-.03,27.17-7.89,4.43-4.46,4.76-5.8-.66-9.47-5.05-3.43-9.96-7.1-14.71-10.94-11.52-9.31-22.87-18.82-34.36-28.16-7.7-6.25-15.53-12.33-23.56-18.68h.01Zm-134.55-226.95c10.68,19.31,20.62,37.3,30.93,55.95,28.46-17.92,56.79-35.75,85.11-53.58l-.79-2.37h-115.25Zm-142.65,403.2c-.12,.68-.25,1.36-.37,2.04,5.19,3.4,10.63,6.48,15.51,10.27,14.08,10.93,27.95,22.13,41.86,33.28,7.36,5.9,14.46,12.14,22.01,17.78,4.9,3.66,10.4,6.53,16.61,10.36,0-13.21,.22-24.69-.17-36.15-.09-2.71-1.94-5.56-3.53-7.98-2.69-4.08-5.98-7.76-8.72-11.82-2.93-4.35-5.35-9.04-8.3-13.37-1.13-1.66-2.93-3.45-4.75-3.92-2.97-.77-6.2-.66-9.33-.66-9.26-.01-18.51,.13-27.77,.16-11.02,.03-22.03,0-33.05,0h0Zm197.29,.34c.04,.1-.02-.16-.08-.16-23.16-.08-46.32-.16-69.49-.11-.91,0-2.08,1.1-2.68,1.99-4.55,6.84-8.85,13.86-13.51,20.63-4.43,6.45-8.48,12.91-8.39,21.15,.1,9.19,.02,18.38,.02,28.66,3.96-2.18,7.02-3.51,9.67-5.39,6.03-4.3,11.92-8.8,17.76-13.36,7.52-5.87,14.9-11.92,22.39-17.83,5.58-4.4,11.31-8.61,16.83-13.07,9.19-7.42,18.28-14.97,27.47-22.51h.01Zm-100.97-30.48v-61.23h-69.96c2.83,4.23,4.9,7.1,6.73,10.11,9.7,16,19.28,32.08,29.07,48.02,.88,1.43,2.99,2.92,4.57,2.96,9.75,.27,19.52,.14,29.59,.14h0Zm74.54-63.18c-9.83,0-18.08-.09-26.33,.02-12.24,.16-24.49,.56-36.73,.65-3.81,.03-4.16,1.97-4.16,5.04,.05,18.13-.05,36.26-.06,54.38,0,1.34,.35,2.68,.55,4.11,7.66,0,14.62,.2,21.57-.07,4.5-.17,8.68-.75,11.34-5.76,5.89-11.07,12.45-21.78,18.76-32.62,4.71-8.09,9.44-16.17,15.04-25.75h.02Zm85.4-321.66c-.11-.33-.24-1.11-.62-1.73-4.76-7.87-9.49-15.76-14.37-23.56-1.76-2.82-4.44-5.17-5.73-8.15-2.01-4.64-3.78-9.55-4.54-14.52-.79-5.15-5.46-7.61-6.99-12.09-.23-.67-1.96-1.09-3.03-1.16-6.53-.42-13.07-.77-19.61-1.02-18.77-.71-37.53-1.44-56.3-1.96-3.94-.11-7.91,.68-11.87,1.05,0,.33,0,.67,.01,1,41,20.71,82.01,41.42,123.03,62.14h.02Zm-284.7,406.64c.29-.78,.58-1.56,.88-2.34-15.96-11.08-31.92-22.15-48.98-33.99,.62,5.84,1.28,10.64,1.55,15.47,.07,1.23-1.08,2.52-1.66,3.79-1.12-1.02-3.04-1.92-3.2-3.08-.49-3.43-.41-6.97-.34-10.46,.1-4.81,.63-9.58-5-12.15-2.13-.97-3.82-2.9-5.78-4.29-7.69-5.42-15.34-10.9-23.13-16.18-7.66-5.19-15.52-10.08-23.18-15.27-5.41-3.66-10.63-7.58-15.94-11.39,2.05,3.83,4.55,7.06,7.09,10.26,12.14,15.27,24.29,30.52,36.42,45.79,5.85,7.36,11.59,14.79,17.52,22.08,11.01,13.53,4.53,11.59,22.47,11.73,13.76,.1,27.53,.02,41.3,.02h-.02Zm-30.6-408.91c.37,.36,.75,.72,1.12,1.08,39.12-20.14,78.23-40.29,117.35-60.43-.13-.51-.25-1.02-.38-1.53-3.57,0-7.14-.1-10.7,.02-19.4,.63-38.79,1.47-58.19,1.92-8.31,.19-15.41,.65-19.79,9.92-5.17,10.94-12.14,21.05-18.42,31.46-3.57,5.91-7.32,11.71-11,17.56h.01Zm156.15-155.83v-49.99c-7.42,0-14.29-.4-21.09,.12-6.26,.48-11.85,2.05-15.53,8.63-6.29,11.24-13.73,21.83-20.6,32.76-1.52,2.42-2.67,5.07-4.44,8.49h61.66Zm126.22,564.13c.24,.45,.48,.91,.71,1.36,1.43-.22,2.86-.62,4.29-.64,13.94-.2,27.89-.32,41.83-.53,1.08-.02,2.47-.18,3.17-.85,3.69-3.5,7.32-7.09,10.75-10.85,3.29-3.61,6.19-7.57,9.46-11.2,2.65-2.93,5.79-5.43,8.34-8.44,1.86-2.2,2.79-5.19,4.67-7.36,3.42-3.96,7.43-7.4,10.84-11.36,7.53-8.75,14.91-17.63,22.21-26.58,2.46-3.02,4.5-6.4,6.72-9.61-.23-.24-.46-.49-.7-.73-3.6,2.35-7.2,4.69-10.79,7.04l-.75-.93c-.33,1.69-.67,3.38-.91,4.61-2.2,.37-4.22,.14-5.44,1.02-3.45,2.48-6.38,5.69-9.86,8.13-9.43,6.61-19.04,12.96-28.57,19.42-1.79,1.21-3.57,2.44-5.34,3.68-2.05,1.43-4.1,2.87-7.14,5v20.62c-1.43,.31-2.23,.4-2.97,.66-6.14,2.15-6.49,1.84-6.71-4.71-.12-3.54-.64-7.06-.99-10.74-14.53,11.2-28.68,22.1-42.83,33h0Zm-59.37-563.8c-8.8-14.18-17.28-28.14-26.11-41.86-2.08-3.23-5.08-7.67-8.15-8.11-8.01-1.15-16.3-.39-25.01-.39v50.36h59.27Zm194.5,387.09c.76-1.47,1-1.75,1.05-2.05,2.37-15.99,4.87-31.97,6.95-48,.43-3.28,.26-7.36-1.34-10.06-8.48-14.31-17.77-28.14-26.25-42.44-6.74-11.36-12.74-23.17-19.08-34.77-.89-1.63-1.86-3.21-2.79-4.81-.59,.05-1.17,.09-1.76,.14-.72,3.55-2.88,7.58-1.91,10.58,3.84,11.8,8.81,23.23,13.08,34.9,5.22,14.24,10.42,28.51,15.15,42.92,3.77,11.46,6.71,23.19,10.25,34.73,1.86,6.07,4.21,11.98,6.66,18.86h-.01Zm-544.16-34.38c-7.16,12.12-13.73,24.17-21.27,35.57-3.43,5.18-2.25,8.66,.78,12.88,8.79,12.24,17.41,24.6,26.2,36.84,3.07,4.28,6.45,8.35,9.59,12.4,1.52-33.57-.03-66.59-15.31-97.7h.01Zm445.03,228.16c-.49-.6-.98-1.2-1.47-1.79-5.63,2.28-11.57,4.01-16.83,6.95-11.52,6.45-22.56,13.75-34.04,20.26-14.73,8.34-29.72,16.24-44.59,24.33-7.15,3.89-14.3,7.8-21.45,11.7,7.21-.49,13.97-1.85,20.69-3.37,17.09-3.86,34.11-8.09,51.27-11.59,9.09-1.85,16.96-4.65,21.35-13.65,1.76-3.61,4.01-7.07,6.5-10.23,6.04-7.65,12.36-15.09,18.56-22.61h.01Zm-326.99-1.12c3.08,4.5,5.68,8.5,8.48,12.35,5.35,7.36,10.54,14.87,16.35,21.86,3.29,3.96,7.13,8.83,11.65,10.16,18.36,5.41,37.56,7.45,55.96,13.07,8.32,2.54,17.17,3.35,25.78,4.95,.12-.47,.23-.94,.35-1.4-1.46-.72-2.9-1.46-4.37-2.16-6.4-3.04-12.99-5.73-19.17-9.17-16.23-9.05-31.86-19.29-48.56-27.32-9.46-4.55-18.16-9.87-26.77-15.63-5.73-3.83-11.91-6.79-19.7-6.71h0Zm437.92-139.16c11.88-15.77,23.35-31.01,34.77-46.17-9.71-16.35-19.55-32.91-29.38-49.48-4.18,12.39-7.34,82.65-5.39,95.65Zm-424.45,131.45c-.06,.52-.12,1.04-.18,1.56,3.28,1.77,6.62,3.44,9.82,5.34,9.79,5.81,19.48,11.8,29.32,17.55,4.43,2.59,9.2,4.6,13.63,7.19,6.23,3.63,11.93,8.38,18.49,11.17,13.47,5.73,25.87,13.15,38.1,21.05,3.39,2.19,7.55,3.21,11.35,4.76,.21-.42,.43-.85,.64-1.27-12.03-10.25-23.97-20.61-36.11-30.72-8.07-6.72-16.46-13.07-24.66-19.63-7.2-5.76-13.87-13.38-23.03-14.86-12.25-1.99-24.89-1.53-37.37-2.13h0Zm-75.8-305.31c-.39-.16-.79-.33-1.18-.49-1.36,2.18-2.68,4.39-4.09,6.55-8.88,13.55-17.85,27.05-26.63,40.66-4.56,7.06-8.4,14.61-13.29,21.43-4.03,5.63-3.78,10.78-1.17,16.69,2.05,4.66,3.42,9.63,5.15,14.44,.52,1.44,1.25,2.81,1.93,4.31,15.91-33.89,30.13-67.81,39.28-103.58h0Zm47.16-54.14c-.55-.15-1.1-.3-1.65-.46-6.26,14.71-12.69,29.35-18.71,44.16-2.51,6.16-3.8,12.56,.7,18.75,4.27,5.87,8.08,12.08,12.33,17.97,2.14,2.96,4.8,5.54,7.22,8.29,.56-.25,1.12-.49,1.67-.74-.53-29.32-1.05-58.65-1.58-87.97h.02Zm218.93,420.18c.38,.48,.76,.96,1.14,1.45,35.8-20.49,71.6-40.98,107.4-61.48-.09-.4-.18-.8-.26-1.21-5.57,0-11.14-.17-16.69,.05-4.94,.2-10.54-.5-14.65,1.58-7.75,3.91-14.74,9.41-21.86,14.5-3.87,2.77-7.33,6.12-11.06,9.09-4.36,3.48-8.95,6.68-13.19,10.3-2.95,2.51-5.25,5.81-8.26,8.24-7.39,5.98-15.02,11.67-22.56,17.48h-.01Zm-39.96-469.6v-58.44c-11.73,20.07-22.76,38.95-34.15,58.44h34.15Zm234.02,315.09h-52.32v36.67c17.8-12.48,34.71-24.33,52.32-36.67Zm-49.27-277.22c-.35,.02-.69,.03-1.04,.05-.09,.76-.42,1.57-.25,2.26,1.77,7,3.6,13.97,5.44,20.95,1.29,4.87,2.61,9.74,3.92,14.6-.4,.09-.81,.19-1.21,.28-2.48-6.65-4.96-13.29-7.43-19.94-.6,.12-1.2,.25-1.8,.37v78.59c4.1-7.43,8.59-15.11,12.6-23.03,1.85-3.65,3.35-7.39,2.07-12.06-1.37-4.96-3.58-10.26,.59-15.44,4.77-5.92,2.69-11.78-1.2-17.34-.85-1.21-1.69-2.49-2.21-3.86-3.22-8.46-6.34-16.96-9.49-25.44h.01Zm-362.18,313.61c0-11.25,.07-21.97-.13-32.7-.01-.81-1.86-2.23-2.92-2.3-14.83-.93-29.68-1.67-44.52-2.48-2.77-.15-5.53-.44-8.97-.72,19.11,12.91,37.35,25.23,56.55,38.19h0Zm141.25,236.9c8.02,10.89,15.05,20.6,22.26,30.17,3.44,4.57,6.74,9.48,13.61,10.77v-38.78c-11.43-.69-23.16-1.4-35.88-2.16h.01Zm44.15-588.7h26.8c-9.03-16.18-17.65-31.62-26.8-48.02v48.02Zm-30.66-221.41c7.65,0,13.95,.19,20.22-.16,1.23-.07,3.21-2.14,3.35-3.44,.46-4.41,.31-8.88,.27-13.33-.07-7.96-.24-15.92-.37-23.88-.77-.2-1.54-.4-2.31-.6-4.78,8.2-9.56,16.4-14.33,24.6,.33,.3,.66,.6,1,.9,1.28-.29,2.56-.59,5.26-1.21-4.68,6.13-8.52,11.16-13.08,17.13h-.01Zm-149.82,439.82c.31,.04,.63,.08,.94,.12,.57-1.33,.92-2.8,1.74-3.95,4.07-5.73,8.51-11.21,12.26-17.14,1.37-2.17,2.54-6.09,1.5-7.87-3.44-5.91-8.01-11.15-11.97-16.77-1.32-1.87-2.13-4.11-3.17-6.18-.43,.12-.87,.23-1.3,.35v51.45h0Zm179.35,373.04v36.05c9.4-12.59,17.98-24.08,26.92-36.05h-26.92Zm-6.64-207.05h-31.49c4.04,5.34,7.23,9.9,10.81,14.14,1.65,1.95,3.91,4.27,6.17,4.62,4.64,.72,9.47,.22,14.51,.22v-18.98Zm7.49,18.84c5.1,0,9.84,.06,14.58-.05,.92-.02,2.25-.44,2.66-1.11,3.64-5.92,7.11-11.94,11.03-18.61h-28.27v19.77h0Zm-263.46-176.34c.61-2.13,1.06-4.32,1.84-6.39,4.88-12.83,9.84-25.63,14.76-38.45,6.09-15.87,12.3-31.7,18.18-47.64,3.55-9.61,6.61-19.39,9.77-29.14,.26-.8-.45-1.92-.7-2.9-5.51,11.79-10.15,23.56-14.41,35.47-4.68,13.07-8.66,26.41-13.62,39.37-3.55,9.26-8.38,18.02-12.33,27.14-3.08,7.12-4.2,14.69-3.49,22.53h0ZM526.59,60.12c-.4,.24-.8,.48-1.21,.71v31.25h19.75c-6.3-10.86-12.42-21.41-18.55-31.96h.01Zm157.4,464.51v-29.27c-.41-.19-.83-.38-1.24-.56-3.63,5.21-7.14,10.51-10.92,15.61-2.59,3.5-1.75,6.2,1.53,8.3,3.3,2.1,6.83,3.83,10.63,5.92h0Zm-166.53,220.8c0-5.9,.13-11.68-.1-17.43-.05-1.25-1.27-3.38-2.19-3.52-4.07-.62-8.23-.66-13.46-.98,5.89,8.19,10.85,15.09,15.76,21.93h-.01Zm197.88-381.31c4.74,10.44,9.48,20.87,14.72,32.42,3.65-8.14-4.83-26.39-14.72-32.42Zm-191.57,379.24c.31,.05,.62,.1,.92,.16,3.02-4.3,6.25-8.48,8.95-12.98,.97-1.63,.67-4.02,.94-6.07-2.24-.2-4.57-.85-6.69-.45-1.29,.25-3.11,2.02-3.25,3.27-.59,5.32-.63,10.7-.88,16.06h.01Zm-215.75-333.99c-.59-13.12,9.51-22.32,11.29-34.45-.49,.3-1.05,.45-1.25,.8-3.91,6.65-8.21,13.12-11.5,20.07-1.99,4.2-4.5,9.34,1.46,13.58h0Zm49.33,117.73c11.25-4.63,16.69-10.76,8.63-16.06-2.7,5.02-5.35,9.97-8.63,16.06Zm360.39-126.72c-1.34,1.5-2.36,2.64-3.45,3.86,.51,3.1,1.11,6.72,1.7,10.33h1.04c.83-2.81,1.67-5.62,2.52-8.47-1.79-.55-2.4-2.46-1.81-5.71h0Z"/><path class="cls-3" d="M449.37,474.44h-4.49c-1.44-4.57,2.56-3.86,4.77-5.28-.11,2.07-.19,3.69-.28,5.28Z"/><path class="cls-2" d="M563.14,696.03c2.61-.77,5.18-1.96,7.85-2.24,7.23-.78,14.5-1.62,21.75-1.59,5.22,.02,10.41,1.66,15.65,2.14,6.91,.63,13.86,.82,20.79,1.26,.72,.05,1.42,.51,2.01,1.42h-67.8c-.08-.33-.17-.67-.25-1h0Z"/></svg>