<?xml version="1.0" encoding="UTF-8"?><svg id="Layer_2" xmlns="http://www.w3.org/2000/svg" viewBox="0 0 124.6 161.28"><defs><style>.cls-1{opacity:.03;}.cls-2{fill:#fff;}</style></defs><g id="Layer_1-2" class="cls-1"><path class="cls-2" d="M78.28,0h46.32V161.28h-44.88c.15-.8,.12-1.7,.48-2.39,1.01-1.95,2.32-3.75,3.24-5.73,1.8-3.86,4.42-7.05,7.66-9.71,1.71-1.4,3.62-2.71,5.64-3.55,4.79-1.99,10.24,1.45,10.82,6.61,.36,3.27-1.6,6.28-4.71,7.21-2.81,.84-5.75-.54-6.69-3.16-.84-2.31,.62-4.92,2.78-4.98,1.03-.03,1.97,.63,1.89,1.42-.11,1.05-.86,1.23-1.75,1.15-.09,0-.18,.04-.31,.08,.84,.94,1.93,1.11,2.76,.49,.77-.58,.94-1.65,.41-2.6-1.11-1.96-4.02-2-5.63-.08-2.39,2.87-.51,7.44,3.4,8.24,4.63,.96,8.87-3.2,8.22-8.05-.75-5.55-6.49-8.91-11.8-6.86-3.16,1.22-5.67,3.39-8.11,5.67-.32,.3-.64,.58-1.22,1.1,.46-1.71,.96-2.92,2.23-3.69,.92-.56,1.73-1.3,2.67-1.82,7.54-4.12,15.07-8.24,22.65-12.29,3.37-1.8,6.27-4.12,8.73-7.01,.18-.21,.31-.47,.31-.45-11.87,4.16-23.08,9.94-33.15,17.84,.15-.53,.38-.95,.61-1.37,2.58-4.79,4.65-9.79,4.84-15.29,.07-1.86,.81-2.75,2.25-3.62,8.25-5,15.65-10.97,21.25-18.94,2.95-4.19,4.97-8.74,5.18-13.97,.28-7.2-1.97-13.69-5.52-19.82-.16-.28-.35-.54-.67-1.02,.48,1.82,.93,3.34,1.28,4.9,1.29,5.79,2.08,11.65,.39,17.45-3.47,11.91-10.43,21.38-20.69,28.39-.04,.03-.13-.03-.35-.08,.43-.38,.82-.7,1.18-1.05,2.15-2.09,4.38-4.1,6.43-6.29,3.18-3.41,5.93-7.16,7.76-11.48,2.88-6.8,2.3-13.7,.18-20.54-.89-2.86-2.12-5.61-3.2-8.41l-.34,.13c.17,.77,.35,1.54,.51,2.32,1.13,5.72,2.01,11.51,.88,17.27-1.87,9.59-6.46,17.81-13.55,24.58-.19,.18-.42,.31-.66,.49-.05-.17-.09-.25-.08-.32,.36-1.64,.72-3.28,1.09-4.91,3.03-13.29,3.08-26.56-.37-39.78-1.77-6.79-4.76-12.88-10.39-17.4-.38-.3-.56-1.04-.58-1.58-.09-4.2,.86-8.17,2.9-11.85,1.76-3.18,4.15-5.66,7.74-6.78,5.7-1.77,12.72,.75,16.32,5.87,3.64,5.18,3.3,11.33-.9,15.71-2.78,2.89-6.12,4.1-10.02,2.87-4.18-1.32-7.09-3.99-7.88-8.49-.79-4.51,1.71-7.84,6.24-8.33,1.26-.14,2.55,.12,3.82,.02,.54-.04,1.35-.41,1.49-.82,.15-.44-.21-1.22-.59-1.62-.33-.35-1.01-.55-1.52-.54-1.15,.03-2.33,.1-3.43,.38-2.88,.74-4.7,2.74-5.91,5.47-1.09-.91-1.63-.2-1.86,.69-.29,1.14-.51,2.35-.47,3.51,.07,1.83,.72,3.51,2.05,4.78-.73,1.43-.72,2.24,.13,3.45,1.36,1.93,3.29,2.96,5.56,3.47,1.95,.44,3.78,0,5.55-.77,.89,2.05,2.01,2.55,4.06,1.77,2.65-1.02,4.42-2.99,5.5-5.55,.54-1.27,.81-2.65,1.21-4.01,1.65-.19,2.1-.58,2.24-2.39,.21-2.78-.66-5.31-2.19-7.58-2.45-3.66-5.8-6.3-9.85-7.94-6.92-2.81-13.72-.49-17.42,6-1.21,2.12-2.04,4.51-2.69,6.88-.55,2-.58,4.15-.85,6.3-.17-.09-.38-.18-.57-.3-4.65-3.07-9.77-4.46-15.33-4.36-.58,0-1.18-.16-1.73-.36-5.17-1.89-10.47-2.92-15.99-2.48-1.5,.12-2.98,.41-4.51,.63-.09-.32-.18-.58-.22-.84-.6-4.17-.78-8.36-.32-12.56,1.44-13.09,8.69-21.64,20.83-26.09,9.36-3.43,18.77-.23,24.18,7.81,1.34,1.99,2.26,4.15,2.38,6.57,.27,5.65-3.96,10.62-9.94,11.73-4.76,.88-9-.9-11.26-4.76-2.14-3.65-1.33-7.57,2.06-10.08,3.13-2.32,6.51-2.34,10.03-1.11,.21,.07,.46,.21,.56,.4,.64,1.09,.85,2.25,.25,3.43-.6,1.17-1.59,1.78-2.91,1.76-1.14-.01-2.1-.71-2.15-1.69-.02-.45,.33-1,.67-1.35,.13-.14,.94,.05,1,.23,.12,.38-.05,.86-.09,1.27,1-.11,1.59-.85,1.04-1.78-.36-.6-1.1-1.18-1.78-1.35-.94-.23-1.66,.45-2.06,1.31-.75,1.6,.59,3.65,2.6,4.07,.39,.08,.74,.3,1.12,.46-1.02,.97-1.2,2.09-.47,3.05,.8,1.06,2.25,1.34,3.31,.65,.82-.54,1.1-1.68,.4-2.23-.37-.29-1.1-.35-1.57-.2-.29,.09-.4,.76-.71,1.42,.63-.43,.89-.7,1.19-.78,.13-.03,.53,.36,.51,.52-.04,.32-.21,.71-.46,.89-.8,.57-1.53,.23-2.12-.4-.87-.93-.54-1.91,0-2.86,.54-.33,1.06-.71,1.64-.98,2.76-1.33,2.04-5.33,.02-6.47-1.99-1.12-4.08-1.37-6.26-.93-3.71,.74-6.5,2.71-7.69,6.42-1.15,3.59,.14,6.64,2.67,9.16,3.27,3.26,7.27,3.95,11.64,2.83,8.71-2.24,12.49-10.99,8.01-18.71-2.98-5.14-7.39-8.52-13.17-10.03-1.11-.29-2.24-.49-3.37-.73l-.05-.06Zm23.33,82.16c4.65-2.81,7.07-10.71,4.66-14.11-.66,1.05-1.17,2.46-2.16,3.3-2.61,2.23-2.8,5.08-2.67,8.49,1.25-2.17,2.32-4.05,3.4-5.92-.53,1.65-1.23,3.21-2.04,4.73-.57,1.08-1.4,2.05-1.2,3.51h.01Zm-32.46-46.25c2.93,1.02,4.35,.37,6.14-2.7-3.42-.72-5.52-.03-6.49,2.22l2.67-1.44,.12,.23-2.44,1.7h0Zm6.04-13.19c2.68,.8,5.71,.02,6.44-2.3l-3.05,1.68-.1-.18,2.76-1.98c-3.19-1.51-4.49,.82-6.05,2.78Zm-14.08,16.61c2.77,.83,5.68-.06,6.35-2.32l-2.91,1.66-.12-.2,2.62-1.9c-2.59-1.01-3.82-.42-5.95,2.77h.01Zm6.57-4.74l.5-2.05,.2,.05-.11,1.97c2.27-1.16,1.75-2.88,1.25-4.6-1.77,1.17-2.31,2.4-1.84,4.64h0Zm14.76-11.46h-.3v-1.89c-1.81,1.3-1.97,2.11-.94,4.61,1.83-1.57,2.29-2.89,1.53-4.55l-.29,1.83Zm-5.47-6.75c1.16,2.19,2.41,2.98,3.94,2.51l-1.51-.61,.06-.22,1.69,.36c-.71-1.98-1.13-2.18-4.19-2.03h.01Zm-14.11,16.56c.86,2.11,2.48,3.16,3.78,2.52l-1.17-.49,.07-.21,1.4,.22c-.65-1.88-.96-2.04-4.07-2.04h-.01Zm6.3,4.39c.93,2.15,1.76,2.54,4.12,2.08-.99-2.11-2.16-2.91-3.77-2.53l1.55,.71-.07,.2-1.82-.46h-.01Zm-2.23,5.2c1.91-1.58,2.4-2.98,1.64-4.6l-.33,1.91-.27-.02v-1.89c-2.27,1.16-1.43,2.88-1.04,4.6Z"/><path class="cls-2" d="M71.08,161.28H.04V54c.37,1.3,.66,2.63,1.13,3.89,1.48,3.97,4.2,7.04,7.32,9.8,4.87,4.3,10.41,7.57,16.28,10.27,9.67,4.46,19.73,7.89,29.81,11.27,7.96,2.67,15.87,5.48,23.23,9.6,1.26,.7,2.14,1.57,2.62,2.93,.54,1.54,1.18,3.05,1.78,4.58-10.57-10.76-23.31-15.88-38.31-16.07,.1,.28,.11,.33,.12,.34,.11,.03,.23,.06,.35,.07,7.42,.65,13.89,3.25,18.83,9.06,.34,.39,.73,.74,1.1,1.1,2.04,1.98,4.34,3.58,7.1,4.32,2.11,.56,4.31,.84,6.44,1.32,.65,.15,1.37,.45,1.83,.91,4.49,4.48,5.62,9.96,4.53,16.03-.08,.46-.44,.93-.78,1.28-1.23,1.26-2.52,2.46-3.77,3.69-.43,.42-.81,.89-1.2,1.32-.9-3-1.61-5.92-2.65-8.72-4.59-12.29-16.45-19.2-29.27-17.01-11.71,2-20.84,12.65-19.12,25.36,1.36,10.02,10.02,17.23,20.01,16.27,5.47-.53,9.66-3.29,12.04-8.35,2.59-5.49,1.17-11.59-3.26-14.79-2.79-2.01-6.82-2.26-9.52-.6-2.23,1.37-3.27,3.88-2.62,6.29,.66,2.46,3.03,4.44,5.48,4.49,.79,.02,1.58-.18,2.46-.28-1.07-.82-2.04-1.4-2.8-2.18-1.15-1.2-1.28-2.81-.55-4.1,.75-1.31,2.29-1.98,3.93-1.64,2.71,.56,4.27,2.37,5.08,4.9,1.66,5.21-1.2,10.99-6.71,13.26-5.78,2.37-11.16,1.41-15.95-2.53-6.94-5.72-8.48-16.32-3.68-24.33,4.75-7.92,14.17-11.42,23.13-10.26,9.66,1.26,15.99,6.96,19.18,15.96,1.24,3.49,1.55,7.32,2.24,11.01,.08,.43-.03,.99-.26,1.36-2.61,4.11-3.88,8.75-5.2,13.35-1.21,4.22-1.17,8.44,.77,12.53,.2,.42-.05,1.05-.09,1.58h-.01ZM17.7,81.74c.95,.28,1.84,.52,2.7,.81,2.12,.73,3.88,.07,5.18-2.07h-4.19c.67-.36,1.36-.55,2.06-.61,.73-.06,1.47-.01,2.37-.01-2.51-1.84-5.7-.79-8.12,1.87h0Zm17.27,4.72l-.06-.18c.67-.2,1.34-.46,2.03-.6,.68-.13,1.37-.15,2.25-.23-2.22-1.47-5.81-.5-7.76,2.83,.79,.13,1.58,.23,2.36,.4,2.5,.55,4.02-.18,5.24-2.63l-4.06,.4h0Zm-25.88-17.03l-4.08,.27-.04-.24,4.03-.69c-2.41-1.49-5.57-.12-7.34,2.46,.74,.16,1.48,.29,2.2,.48,2.47,.65,3.74,.12,5.23-2.28Z"/><path class="cls-2" d="M.04,50.64V0H74.68c-.35,.09-.69,.19-1.04,.25-11.97,2.33-20.59,8.8-24.85,20.43-2.46,6.73-2.38,13.73-1.35,20.73,.12,.84-.14,1.09-.85,1.35-7.84,2.94-12.8,8.53-14.95,16.57-1.95,7.28,.84,13.72,7.13,16.64,3.38,1.57,6.92,1.9,10.53,.98,.88-.22,1.25-.02,1.7,.71,4.16,6.64,11.24,9.78,18.81,8.36,.67-.13,1.04,0,1.4,.54,2.13,3.23,4.28,6.46,6.42,9.69,.16,.24,.25,.53,.41,.9-.26-.06-.37-.06-.47-.11-7.23-3.58-14.91-5.93-22.58-8.33-6.91-2.15-13.83-4.27-20.37-7.42-4.94-2.39-9.72-5.07-13.67-8.98-2-1.98-3.45-4.3-4.04-7.09-.84-3.91,.49-7.77,3.32-9.76,2.41-1.69,5.98-1.46,7,1.79,.32,1.01,1.2,1.08,1.74,.13,.31-.54,.48-1.3,.38-1.91-.3-1.89-1.55-3.05-3.33-3.56-2.87-.81-5.38,.04-7.51,2.02-2.23,2.08-3.23,4.74-3.31,7.73-.08,3.33,.83,6.52,2.94,9,1.91,2.24,4.41,4,6.75,5.85,1.39,1.1,2.97,1.98,4.47,2.95-.23,.09-.41,.04-.58-.03-5.94-2.8-11.71-5.9-16.95-9.89-3.49-2.66-6.68-5.62-8.9-9.46-2.96-5.11-3.02-10.24,.05-15.34,.83-1.38,1.95-2.49,3.24-3.25,1.08,1.14,1.98,2.27,3.06,3.2,1.78,1.54,3.88,2.21,6.24,1.71,1.06-.22,2.01-.69,2.36-1.8,.37-1.16-.13-2.13-.94-2.92-1.35-1.32-2.95-2.31-4.87-2.31-1.73,0-3.45,.32-5.37,.52-.1-.27-.33-.77-.48-1.29-1.27-4.61,.76-9.91,4.82-12.62,5.74-3.83,13.57-2.15,16.57,3.57,2.13,4.06,.55,8.46-3.67,10.25-3.65,1.55-7.91-.69-8.51-4.46-.34-2.16,1.12-4.38,3.11-4.73,1.03-.18,2.04,.04,2.47,1.01,.24,.54-.09,1.32-.17,2.04,.91,.15,1.52-.25,1.7-1.33,.25-1.46-.75-2.83-2.37-3.26-2.86-.76-5.74,1.28-6.25,4.43-.64,3.97,1.9,7.58,5.92,8.4,4.26,.88,8.41-1.5,9.37-5.48,.96-3.98-.15-7.5-2.99-10.35-3.55-3.58-7.93-4.45-12.62-2.9-4.98,1.65-7.61,5.46-8.56,10.51-.46,2.43,.06,4.75,.94,7.02-2.89,1.9-4.47,4.62-5.42,7.76-.16,.72-.33,1.45-.52,2.18Zm27.46,22.46l.23-.05,1.39,3.98c1.86-2.86,1.53-4.57-1.33-7.51-1.74,3.26-1.44,6.49,.7,7.65l-.99-4.07Zm-11.51-5.43c-1.87-4.38-1.92-8.76,0-13.13,1.97-4.47,5.45-6.97,10.27-7.64-4.17-.03-7.99,2.22-10.06,6.08-2.59,4.83-2.59,9.76-.22,14.68h0Zm21.19,13.15c.68-2.22,.35-2.83-2.29-4.48-.62,2.2,.06,4,1.91,4.83l-1.23-2,.18-.12,1.43,1.76h0Zm3.18-.11l.17-.07,1.06,2c1.03-2.08,.72-3.03-1.4-4.61-.84,2.33-.59,3.75,.89,4.77l-.73-2.1h.01Zm30.99,8.44c-.94,2.21-.69,3.75,.93,4.98-.22-.48-.38-.78-.49-1.1-.1-.27-.15-.57-.23-.85l.17-.04,.94,1.64c1.37-2.1-.01-3.31-1.32-4.63Z"/><path d="M.04,50.64c.19-.73,.36-1.46,.58-2.18,.95-3.14,2.53-5.86,5.42-7.76-.88-2.27-1.4-4.59-.94-7.02,.95-5.05,3.59-8.86,8.56-10.51,4.68-1.55,9.07-.68,12.62,2.9,2.83,2.86,3.95,6.37,2.99,10.35-.96,3.99-5.11,6.36-9.37,5.48-4.02-.83-6.56-4.44-5.92-8.4,.51-3.14,3.38-5.18,6.25-4.43,1.62,.43,2.62,1.8,2.37,3.26-.19,1.08-.79,1.48-1.7,1.33,.08-.71,.4-1.5,.17-2.04-.43-.97-1.43-1.19-2.47-1.01-2,.35-3.46,2.57-3.11,4.73,.6,3.78,4.86,6.01,8.51,4.46,4.22-1.79,5.79-6.2,3.67-10.25-2.99-5.71-10.83-7.4-16.57-3.57-4.06,2.71-6.1,8.01-4.82,12.62,.14,.53,.38,1.03,.48,1.29,1.91-.2,3.64-.52,5.37-.52,1.92,0,3.52,.99,4.87,2.31,.81,.79,1.31,1.76,.94,2.92-.36,1.11-1.31,1.58-2.36,1.8-2.36,.5-4.46-.17-6.24-1.71-1.08-.93-1.98-2.06-3.06-3.2-1.29,.76-2.41,1.88-3.24,3.25C-.03,49.83,.03,54.97,2.99,60.08c2.22,3.84,5.42,6.8,8.9,9.46,5.24,3.99,11.01,7.09,16.95,9.89,.16,.08,.34,.12,.58,.03-1.5-.98-3.07-1.85-4.47-2.95-2.34-1.85-4.84-3.61-6.75-5.85-2.12-2.48-3.03-5.67-2.94-9,.08-2.99,1.08-5.65,3.31-7.73,2.13-1.98,4.63-2.83,7.51-2.02,1.78,.5,3.03,1.67,3.33,3.56,.1,.61-.07,1.37-.38,1.91-.54,.94-1.43,.88-1.74-.13-1.02-3.25-4.59-3.49-7-1.79-2.84,1.99-4.16,5.85-3.32,9.76,.6,2.79,2.05,5.11,4.04,7.09,3.95,3.91,8.72,6.59,13.67,8.98,6.53,3.16,13.46,5.27,20.37,7.42,7.67,2.39,15.35,4.75,22.58,8.33,.1,.05,.21,.05,.47,.11-.17-.37-.25-.66-.41-.9-2.14-3.23-4.29-6.45-6.42-9.69-.35-.54-.73-.66-1.4-.54-7.57,1.43-14.65-1.71-18.81-8.36-.45-.73-.83-.93-1.7-.71-3.61,.92-7.15,.59-10.53-.98-6.28-2.92-9.08-9.36-7.13-16.64,2.16-8.04,7.11-13.63,14.95-16.57,.71-.26,.97-.51,.85-1.35-1.03-7-1.11-14,1.35-20.73C53.05,9.06,61.67,2.58,73.64,.25c.35-.07,.69-.17,1.04-.25h3.6c1.12,.24,2.26,.45,3.37,.73,5.79,1.5,10.19,4.88,13.17,10.03,4.48,7.72,.7,16.47-8.01,18.71-4.37,1.13-8.37,.43-11.64-2.83-2.53-2.52-3.82-5.57-2.67-9.16,1.19-3.7,3.98-5.68,7.69-6.42,2.18-.43,4.27-.18,6.26,.93,2.02,1.14,2.74,5.14-.02,6.47-.57,.27-1.09,.65-1.64,.98l-.06-.06c-.37-.16-.73-.38-1.12-.46-2.01-.43-3.35-2.47-2.6-4.07,.4-.86,1.12-1.55,2.06-1.31,.68,.17,1.42,.74,1.78,1.35,.55,.92-.04,1.67-1.04,1.78,.05-.41,.22-.89,.09-1.27-.06-.18-.87-.36-1-.23-.34,.36-.69,.9-.67,1.35,.05,.98,1.02,1.68,2.15,1.69,1.32,.01,2.31-.59,2.91-1.76,.61-1.18,.39-2.33-.25-3.43-.11-.18-.35-.32-.56-.4-3.52-1.23-6.9-1.21-10.03,1.11-3.39,2.52-4.2,6.43-2.06,10.08,2.26,3.85,6.49,5.64,11.26,4.76,5.99-1.11,10.21-6.08,9.94-11.73-.12-2.42-1.04-4.58-2.38-6.57-5.41-8.04-14.83-11.24-24.18-7.81-12.14,4.45-19.38,13-20.83,26.09-.46,4.2-.28,8.38,.32,12.56,.04,.27,.14,.53,.22,.84,1.53-.22,3.01-.51,4.51-.63,5.52-.44,10.82,.59,15.99,2.48,.55,.2,1.15,.37,1.73,.36,5.56-.1,10.68,1.29,15.33,4.36,.19,.12,.4,.21,.57,.3,.27-2.15,.3-4.3,.85-6.3,.65-2.37,1.48-4.76,2.69-6.88,3.7-6.49,10.49-8.81,17.42-6,4.05,1.64,7.4,4.28,9.85,7.94,1.52,2.28,2.4,4.8,2.19,7.58-.14,1.81-.59,2.2-2.24,2.39-.4,1.36-.67,2.74-1.21,4.01-1.08,2.56-2.85,4.53-5.5,5.55-2.04,.78-3.17,.28-4.06-1.77-1.76,.77-3.6,1.21-5.55,.77-2.26-.51-4.2-1.54-5.56-3.47-.85-1.2-.86-2.02-.13-3.45-1.33-1.28-1.98-2.96-2.05-4.78-.05-1.17,.18-2.37,.47-3.51,.22-.89,.77-1.6,1.86-.69,1.22-2.72,3.03-4.73,5.91-5.47,1.11-.28,2.28-.36,3.43-.38,.52,0,1.19,.18,1.52,.54,.38,.4,.74,1.19,.59,1.62-.14,.41-.95,.78-1.49,.82-1.27,.09-2.56-.16-3.82-.02-4.53,.49-7.03,3.82-6.24,8.33,.79,4.5,3.7,7.17,7.88,8.49,3.9,1.23,7.25,.02,10.02-2.87,4.2-4.38,4.55-10.53,.9-15.71-3.6-5.12-10.62-7.64-16.32-5.87-3.58,1.11-5.98,3.6-7.74,6.78-2.04,3.68-2.99,7.65-2.9,11.85,.01,.54,.2,1.28,.58,1.58,5.63,4.52,8.62,10.61,10.39,17.4,3.45,13.22,3.4,26.49,.37,39.78-.37,1.64-.73,3.27-1.09,4.91-.01,.07,.03,.15,.08,.32,.24-.18,.47-.31,.66-.49,7.08-6.78,11.68-14.99,13.55-24.58,1.12-5.76,.25-11.55-.88-17.27-.15-.78-.34-1.55-.51-2.32l.34-.13c1.08,2.8,2.31,5.55,3.2,8.41,2.12,6.84,2.7,13.74-.18,20.54-1.83,4.32-4.57,8.07-7.76,11.48-2.04,2.19-4.27,4.2-6.43,6.29-.36,.35-.75,.66-1.18,1.05,.21,.05,.31,.11,.35,.08,10.26-7.01,17.22-16.47,20.69-28.39,1.69-5.8,.9-11.66-.39-17.45-.35-1.55-.8-3.08-1.28-4.9,.32,.48,.51,.74,.67,1.02,3.55,6.13,5.8,12.62,5.52,19.82-.2,5.23-2.23,9.77-5.18,13.97-5.6,7.97-13,13.94-21.25,18.94-1.44,.87-2.19,1.77-2.25,3.62-.2,5.51-2.27,10.5-4.84,15.29-.23,.42-.45,.84-.61,1.37,10.07-7.9,21.28-13.67,33.15-17.84,0-.01-.12,.24-.31,.45-2.46,2.9-5.37,5.22-8.73,7.01-7.58,4.05-15.11,8.17-22.65,12.29-.94,.51-1.75,1.26-2.67,1.82-1.27,.77-1.77,1.97-2.23,3.69,.57-.52,.9-.8,1.22-1.1,2.44-2.27,4.95-4.45,8.11-5.67,5.31-2.04,11.05,1.31,11.8,6.86,.66,4.86-3.58,9.01-8.22,8.05-3.9-.81-5.79-5.38-3.4-8.24,1.6-1.92,4.52-1.88,5.63,.08,.53,.94,.37,2.01-.41,2.6-.83,.63-1.93,.45-2.76-.49,.12-.03,.22-.09,.31-.08,.89,.08,1.65-.1,1.75-1.15,.08-.79-.85-1.46-1.89-1.42-2.16,.07-3.62,2.67-2.78,4.98,.94,2.61,3.88,4,6.69,3.16,3.11-.93,5.07-3.94,4.71-7.21-.57-5.16-6.02-8.61-10.82-6.61-2.03,.84-3.93,2.15-5.64,3.55-3.24,2.66-5.86,5.85-7.66,9.71-.92,1.98-2.23,3.78-3.24,5.73-.36,.69-.33,1.59-.48,2.39h-8.64c.04-.53,.28-1.16,.09-1.58-1.94-4.09-1.98-8.31-.77-12.53,1.32-4.6,2.59-9.24,5.2-13.35,.23-.37,.34-.93,.26-1.36-.69-3.68-1-7.51-2.24-11.01-3.19-9-9.52-14.71-19.18-15.96-8.96-1.17-18.38,2.34-23.13,10.26-4.8,8.01-3.26,18.61,3.68,24.33,4.78,3.94,10.17,4.9,15.95,2.53,5.51-2.26,8.37-8.05,6.71-13.26-.81-2.53-2.37-4.33-5.08-4.9-1.64-.34-3.18,.32-3.93,1.64-.74,1.29-.6,2.9,.55,4.1,.76,.79,1.74,1.37,2.8,2.18-.87,.11-1.67,.3-2.46,.28-2.44-.05-4.81-2.04-5.48-4.49-.65-2.41,.4-4.92,2.62-6.29,2.71-1.66,6.74-1.41,9.52,.6,4.43,3.2,5.85,9.3,3.26,14.79-2.38,5.05-6.57,7.82-12.04,8.35-9.99,.96-18.66-6.25-20.01-16.27-1.72-12.72,7.41-23.37,19.12-25.36,12.82-2.19,24.69,4.73,29.27,17.01,1.04,2.8,1.75,5.72,2.65,8.72,.39-.43,.77-.9,1.2-1.32,1.25-1.24,2.54-2.44,3.77-3.69,.34-.35,.7-.82,.78-1.28,1.09-6.07-.04-11.54-4.53-16.03-.46-.46-1.18-.77-1.83-.91-2.14-.49-4.33-.76-6.44-1.32-2.76-.74-5.06-2.34-7.1-4.32-.37-.36-.77-.71-1.1-1.1-4.93-5.81-11.41-8.41-18.83-9.06-.12-.01-.23-.04-.35-.07-.02,0-.02-.06-.12-.34,15,.19,27.75,5.31,38.31,16.07-.6-1.52-1.24-3.03-1.78-4.58-.48-1.36-1.36-2.22-2.62-2.93-7.37-4.13-15.27-6.94-23.23-9.6-10.08-3.37-20.15-6.81-29.81-11.27-5.86-2.71-11.4-5.98-16.28-10.27-3.12-2.75-5.84-5.83-7.32-9.8-.47-1.26-.76-2.59-1.13-3.89v-3.36l.04,.06Zm91.68,30.37c0-.53,.04-.93,0-1.31-.61-4.98-1.71-9.84-3.59-14.51-2.9-7.22-7.21-13.31-13.9-17.57-2.03-1.29-4.02-1.82-6.44-1.36-5.79,1.1-10.75,3.55-14.43,8.27-.81,1.04-.72,1.45,.39,2.04,4.27,2.29,5.93,5.69,5.21,10.55-.06,.39,.02,.89,.22,1.23,3.08,5.36,6.78,10.27,10.87,14.9,.2,.22,.72,.38,.99,.28,5.44-1.95,9.36-7.72,7.26-13.87-.71-2.07-2.04-3.61-4.16-4.35-2.01-.71-3.94-.08-4.8,1.54-.83,1.56-.3,3.48,1.37,4.75,.62,.48,1.34,.83,2.04,1.26-3.17,1.3-6.72-.41-7.83-3.73-1.05-3.15,.87-6.44,4.3-7.39,5.16-1.42,10.56,2.01,11.9,7.54,1.51,6.24-1.76,12.71-7.9,15.62-.42,.2-.84,.39-1.33,.62,.31,.44,.56,.75,.77,1.08,2.33,3.63,4.63,7.28,6.98,10.89,.35,.54,.85,1.02,1.36,1.42,2.8,2.18,5.63,4.32,8.45,6.48,.2,.15,.41,.3,.64,.47,1.22-4.47,2.6-20.74,1.63-23.09-1.16,2.1-2.88,1.85-4.97,1.25l3.01-1.99-.09-.17-3.38,1.67c1.34-2.23,3.19-2.69,5.41-2.51h.02Zm-42.12-5.5c-.48-1.91-1.11-3.7-1.35-5.54-.17-1.31-.79-1.52-1.86-1.55-1.63-.04-2.1-.45-2.55-2.11l1.6,.36,.07-.19-1.49-.69c1.85-.3,2.91,.79,3.94,2.09v-3.21c-1.37,.82-2.71,.72-4.27,.13l2.91-1.89-.1-.2-3.32,1.66c1.09-1.82,2.48-2.53,4.3-2.54,.39,0,1.02-.12,1.11-.36,.62-1.53,1.12-3.12,1.67-4.74-3.93-.79-7.01,.94-10.07,2.97,.67-.95,1.37-1.84,2.27-2.45,2.3-1.57,4.92-2.01,7.67-1.76,1.34,.12,1.36,.04,.92-1.28-1-2.99-1.94-6-2.9-9-.15-.48-.25-.98-.4-1.6-1.16,.5-2.23,.86-3.2,1.39-7.74,4.24-12.3,10.66-12.1,19.61,.21,9.56,10.59,13.24,17.16,10.89h0Zm45.42,38.19c.49-2.33,.96-4.6,1.45-6.86,2.62-12.11,2.86-24.26,.55-36.43-.97-5.09-2.5-10.01-5.54-14.31-.93-1.31-2.07-2.47-3.11-3.7l-.33,.17c.1,1.01,.16,2.03,.3,3.04,.6,4.51,1.05,9.03,2.45,13.41,1.94,6.1,2.94,12.4,2.52,18.79-.41,6.25-1.26,12.47-1.91,18.71-.04,.34-.14,.77,.01,1.03,1.15,2.02,2.36,4.02,3.62,6.15h0Zm-43.06-37.58c3.29,6.39,11.74,9.9,16.84,7.85-3.5-4.76-7.03-9.56-10.59-14.4-1.25,2.92-3.4,5.09-6.25,6.55Zm28.11,73.31c6.56-7.64,10.84-16.4,12.47-26.33-8.06,6.47-13.2,16.24-12.47,26.33Zm-12.84-104.96c-5.96-1.88-11.69-2.66-17.59-1.31-.66,.15-.72,.5-.56,1.04,.8,2.67,1.58,5.35,2.39,8.02,.16,.54,.45,1.04,.7,1.61,4.04-4.13,9.06-7.26,15.06-9.37h0Zm-15.9,30.52c3-1.47,4.99-3.72,6.01-6.83,.1-.31-.09-.77-.25-1.1-1.47-3.01-2.96-6-4.46-8.99-.18-.36-.44-.67-.7-1.06-2.94,4.16-3.67,12.32-.6,17.98Zm37.25-12.85c-.02,.13,.03,0,.01-.1-.39-3.25-.77-6.5-1.22-9.74-.07-.49-.42-1.03-.8-1.36-2.6-2.21-5.59-3.67-8.94-4.38-.98-.21-1.98-.35-2.98-.52l-.12,.29c3.07,1.9,5.92,4.11,8.08,6.99,2.16,2.88,4.05,5.96,5.97,8.82Zm-7,39.11c2.05,6.17,4.43,11.96,5.04,18.32,.15-.06,.2-.17,.23-.29,.87-3.24,1.75-6.47,2.6-9.71,.06-.24,.02-.58-.11-.78-2.01-2.97-4.63-5.32-7.76-7.54Zm-5.35,35.91c-3.78,4.13-6.43,17.64-4.62,21.21,1.32-3.7,2.7-7.56,4.07-11.42,.05-.15,.07-.31,.08-.47,.16-3.11,.31-6.21,.47-9.32ZM10.67,40.01c-.35,.04-.88,.05-1.38,.16-1.3,.28-1.41,.52-.79,1.69,1.31,2.48,3.4,3.73,6.19,3.85,1.17,.05,2.16-.23,2.61-1.44,.36-.98-.08-1.96-1.23-2.72-1.58-1.05-3.35-1.45-5.39-1.54h-.01ZM90.9,110.99l-.39,.09-2.8,9.94c1.66-1.43,3.11-2.66,4.53-3.92,.17-.15,.33-.51,.28-.71-.51-1.81-1.08-3.6-1.63-5.4h.01Zm-11.5,26.31l.38,.05,3.42-9.27-.4-.21c-1.26,1.43-2.52,2.86-3.77,4.3-.14,.16-.25,.44-.22,.65,.18,1.49,.39,2.98,.59,4.47h0Zm6.16-9.75c2.36-2.15,4.74-4.31,7.09-6.5,.21-.2,.2-.63,.29-.95l-.29-.18c-1.66,1.22-3.28,2.5-5,3.64-1.49,.99-1.98,2.39-2.09,3.99ZM53.85,58.14l3.7,7.42c.51-3.14-1.08-6.24-3.7-7.42Zm29.7,90.58l-.31-.23c-1.1,1.75-3.12,2.92-2.98,5.46l3.29-5.23h0Z"/><path d="M101.61,82.16c-.21-1.46,.62-2.43,1.2-3.51,.8-1.52,1.51-3.08,2.04-4.73-1.08,1.88-2.16,3.75-3.4,5.92-.13-3.41,.05-6.26,2.67-8.49,.99-.84,1.5-2.25,2.16-3.3,2.42,3.4,0,11.31-4.66,14.11h-.01Z"/><path d="M69.15,35.91l2.44-1.7-.12-.23-2.67,1.44c.98-2.25,3.07-2.93,6.49-2.22-1.79,3.07-3.21,3.72-6.14,2.7h0Z"/><path d="M75.19,22.72c1.56-1.96,2.85-4.29,6.05-2.78l-2.76,1.98,.1,.18,3.05-1.68c-.73,2.33-3.76,3.11-6.44,2.3Z"/><path d="M61.11,39.34c2.13-3.19,3.37-3.78,5.95-2.77l-2.62,1.9,.12,.2,2.91-1.66c-.68,2.26-3.58,3.15-6.35,2.32h-.01Z"/><path d="M67.68,34.6c-.47-2.23,.07-3.47,1.84-4.64,.5,1.72,1.02,3.44-1.25,4.6l.11-1.97-.2-.05-.5,2.05h0Z"/><path d="M82.44,23.15l.29-1.83c.76,1.66,.3,2.98-1.53,4.55-1.03-2.5-.87-3.31,.94-4.61v1.89h.3Z"/><path d="M76.98,16.4c3.06-.15,3.47,.05,4.19,2.03l-1.69-.36-.06,.22,1.51,.61c-1.52,.47-2.78-.32-3.94-2.51h-.01Z"/><path d="M62.86,32.97c3.11,0,3.43,.16,4.07,2.04l-1.4-.22-.07,.21c.39,.16,.78,.33,1.17,.49-1.3,.63-2.91-.42-3.78-2.52h.01Z"/><path d="M69.16,37.36l1.82,.46,.07-.2-1.55-.71c1.61-.38,2.78,.42,3.77,2.53-2.36,.46-3.18,.08-4.12-2.08h.01Z"/><path d="M66.93,42.56c-.39-1.72-1.23-3.44,1.04-4.6v1.89l.27,.02,.33-1.91c.76,1.62,.27,3.02-1.64,4.6Z"/><path d="M84.78,19.46c-.54,.95-.86,1.93,0,2.86,.59,.63,1.32,.97,2.12,.4,.25-.18,.42-.57,.46-.89,.02-.16-.38-.56-.51-.52-.31,.08-.57,.35-1.19,.78,.31-.66,.42-1.33,.71-1.42,.47-.14,1.21-.09,1.57,.2,.7,.56,.42,1.69-.4,2.23-1.05,.69-2.51,.4-3.31-.65-.72-.96-.55-2.08,.47-3.05l.06,.06h.02Z"/><path d="M17.7,81.74c2.42-2.67,5.62-3.71,8.12-1.87-.91,0-1.64-.05-2.37,.01-.7,.06-1.39,.24-2.06,.61h4.19c-1.3,2.14-3.05,2.8-5.18,2.07-.87-.3-1.75-.53-2.7-.81h0Z"/><path d="M34.97,86.45l4.06-.4c-1.22,2.45-2.74,3.18-5.24,2.63-.78-.17-1.57-.27-2.36-.4,1.95-3.33,5.54-4.3,7.76-2.83-.88,.08-1.58,.1-2.25,.23-.69,.14-1.35,.39-2.03,.6l.06,.18h0Z"/><path d="M9.09,69.41c-1.49,2.4-2.76,2.93-5.23,2.28-.72-.19-1.45-.32-2.2-.48,1.78-2.57,4.93-3.95,7.34-2.46l-4.03,.69,.04,.24,4.08-.27Z"/><path d="M27.5,73.1l.99,4.07c-2.14-1.16-2.43-4.39-.7-7.65,2.86,2.94,3.19,4.65,1.33,7.51l-1.39-3.98-.23,.05Z"/><path d="M15.99,67.68c-2.38-4.92-2.37-9.85,.22-14.68,2.07-3.86,5.89-6.11,10.06-6.08-4.83,.67-8.31,3.16-10.27,7.64-1.92,4.36-1.87,8.74,0,13.13h0Z"/><path d="M37.18,80.82l-1.43-1.76-.18,.12,1.23,2c-1.85-.83-2.53-2.63-1.91-4.83,2.64,1.65,2.97,2.25,2.29,4.48h0Z"/><path d="M40.36,80.7l.73,2.1c-1.48-1.02-1.73-2.44-.89-4.77,2.11,1.58,2.42,2.53,1.4,4.61l-1.06-2-.17,.07h-.01Z"/><path d="M71.35,89.13c1.3,1.31,2.69,2.52,1.32,4.63l-.94-1.64-.17,.04c.07,.28,.13,.58,.23,.85,.12,.32,.27,.62,.49,1.1-1.62-1.23-1.87-2.77-.93-4.98Z"/><path class="cls-2" d="M91.72,81.01c-2.23-.18-4.08,.27-5.41,2.51l3.38-1.67,.09,.17-3.01,1.99c2.09,.6,3.81,.85,4.97-1.25,.97,2.35-.41,18.62-1.63,23.09-.24-.17-.44-.31-.64-.47-2.82-2.15-5.65-4.3-8.45-6.48-.51-.4-1.01-.88-1.36-1.42-2.35-3.62-4.66-7.26-6.98-10.89-.21-.33-.46-.64-.77-1.08,.49-.23,.91-.42,1.33-.62,6.14-2.91,9.41-9.38,7.9-15.62-1.34-5.54-6.75-8.96-11.9-7.54-3.44,.95-5.36,4.24-4.3,7.39,1.11,3.32,4.66,5.03,7.83,3.73-.7-.43-1.41-.78-2.04-1.26-1.67-1.27-2.19-3.19-1.37-4.75,.86-1.62,2.79-2.25,4.8-1.54,2.12,.75,3.45,2.28,4.16,4.35,2.1,6.15-1.82,11.92-7.26,13.87-.27,.1-.79-.06-.99-.28-4.09-4.62-7.79-9.54-10.87-14.9-.2-.34-.28-.83-.22-1.23,.72-4.87-.94-8.26-5.21-10.55-1.12-.6-1.2-1-.39-2.04,3.68-4.72,8.64-7.16,14.43-8.27,2.42-.46,4.4,.07,6.44,1.36,6.69,4.25,11,10.35,13.9,17.57,1.87,4.66,2.98,9.53,3.59,14.51,.05,.39,0,.78,0,1.31h-.02Zm-6.66,3.81c-3.2-1.38-4.54,.81-5.98,2.78,2.66,.84,5.89-.03,6.31-2.27l-2.81,1.62c.28-.51,.71-.77,1.12-1.07,.45-.32,.87-.68,1.37-1.06h-.01Zm.35-2.2l.44-2.04,.22,.04v1.96c1.81-1.27,1.91-1.73,1.11-4.55-1.83,1.3-2.39,2.65-1.77,4.58h0Zm-.41,.68c-.83-2.01-1.96-2.5-4.1-1.88,1.03,2.04,2.05,2.7,3.98,2.46l-1.44-.63,.05-.17,1.52,.23h-.01Zm1.85,2.11c.85,2.12,.9,2.14,4.1,2.24-.71-2.04-2.03-2.99-3.88-2.72l1.59,.73-.09,.22-1.72-.46h0Zm-1.95,5.26c1.75-.83,2.56-2.97,1.66-4.37l-.32,1.82-.32-.04v-1.86c-2.17,1.16-1.4,2.86-1.02,4.45Z"/><path class="cls-2" d="M49.59,75.51c-6.57,2.35-16.95-1.33-17.16-10.89-.19-8.95,4.36-15.37,12.1-19.61,.97-.53,2.04-.89,3.2-1.39,.15,.63,.25,1.13,.4,1.6,.95,3,1.9,6.01,2.9,9,.44,1.32,.43,1.4-.92,1.28-2.75-.25-5.37,.19-7.67,1.76-.89,.61-1.59,1.5-2.27,2.45,3.06-2.03,6.14-3.76,10.07-2.97-.56,1.62-1.06,3.21-1.67,4.74-.09,.24-.73,.35-1.11,.36-1.82,.02-3.2,.73-4.3,2.54l3.32-1.66,.1,.2-2.91,1.89c1.56,.6,2.9,.69,4.27-.13v3.21c-1.03-1.3-2.09-2.4-3.94-2.09l1.49,.69-.07,.19-1.6-.36c.45,1.66,.92,2.08,2.55,2.11,1.07,.02,1.69,.24,1.86,1.55,.24,1.84,.86,3.63,1.35,5.54h0Zm-8.11-10.43c-3.26-1.45-4.55,.8-6,2.75,2.51,.86,5.79,.03,6.34-2.26l-2.9,1.63-.11-.2,2.67-1.92Zm1.34-1.67c1.89-1.06,2.08-1.81,1.2-4.53-1.81,1.29-2.33,2.54-1.74,4.4l.46-1.91,.2,.04-.13,2.01h.01Zm.15,2.94l-.36,2.03-.24-.04v-1.97c-1.81,1.24-1.92,2.11-.89,4.55,1.74-1.43,2.2-2.74,1.49-4.57Zm-1.53-2.77c-.88-2.1-1.84-2.52-4.14-1.95,.98,2.03,2.16,2.78,3.96,2.45l-1.66-.71,.08-.2,1.75,.4h0Z"/><path class="cls-2" d="M95.02,113.7c-1.26-2.13-2.47-4.12-3.62-6.15-.15-.26-.05-.68-.01-1.03,.65-6.23,1.51-12.46,1.91-18.71,.42-6.39-.58-12.69-2.52-18.79-1.4-4.38-1.84-8.9-2.45-13.41-.14-1.01-.2-2.03-.3-3.04l.33-.17c1.04,1.23,2.18,2.39,3.11,3.7,3.04,4.3,4.58,9.21,5.54,14.31,2.31,12.17,2.07,24.33-.55,36.43-.49,2.26-.96,4.53-1.45,6.86h0Z"/><path class="cls-2" d="M51.96,76.11c2.85-1.46,5-3.64,6.25-6.55,3.56,4.84,7.09,9.64,10.59,14.4-5.1,2.05-13.55-1.46-16.84-7.85Z"/><path class="cls-2" d="M80.07,149.42c-.73-10.09,4.41-19.86,12.47-26.33-1.63,9.92-5.91,18.69-12.47,26.33Z"/><path class="cls-2" d="M67.22,44.46c-6,2.11-11.02,5.23-15.06,9.37-.25-.57-.53-1.07-.7-1.61-.81-2.67-1.59-5.35-2.39-8.02-.16-.54-.11-.89,.56-1.04,5.9-1.35,11.64-.57,17.59,1.31h0Z"/><path class="cls-2" d="M51.33,74.97c-3.07-5.66-2.34-13.82,.6-17.98,.26,.39,.52,.7,.7,1.06,1.5,2.99,2.99,5.99,4.46,8.99,.16,.33,.35,.79,.25,1.1-1.02,3.1-3.01,5.36-6.01,6.83Z"/><path class="cls-2" d="M88.58,62.12c-1.92-2.86-3.81-5.94-5.97-8.82s-5-5.09-8.08-6.99l.12-.29c.99,.17,1.99,.31,2.98,.52,3.34,.71,6.33,2.17,8.94,4.38,.38,.33,.74,.87,.8,1.36,.45,3.24,.83,6.49,1.22,9.74,.01,.11-.03,.23-.01,.1Z"/><path class="cls-2" d="M81.58,101.23c3.13,2.22,5.74,4.57,7.76,7.54,.13,.2,.17,.54,.11,.78-.85,3.24-1.73,6.47-2.6,9.71-.03,.12-.08,.23-.23,.29-.61-6.36-2.98-12.14-5.04-18.32Z"/><path class="cls-2" d="M76.23,137.14c-.15,3.11-.31,6.21-.47,9.32,0,.16-.03,.32-.08,.47-1.37,3.86-2.75,7.72-4.07,11.42-1.81-3.58,.83-17.09,4.62-21.21h0Z"/><path class="cls-2" d="M10.67,40.01c2.04,.09,3.81,.49,5.39,1.54,1.16,.77,1.6,1.74,1.23,2.72-.45,1.21-1.44,1.49-2.61,1.44-2.79-.12-4.88-1.37-6.19-3.85-.62-1.17-.5-1.41,.79-1.69,.5-.11,1.03-.12,1.38-.16h0Z"/><path class="cls-2" d="M90.9,110.99c.55,1.8,1.11,3.59,1.63,5.4,.06,.2-.1,.56-.28,.71-1.42,1.26-2.87,2.49-4.53,3.92l2.8-9.94,.39-.09h-.01Z"/><path class="cls-2" d="M79.4,137.3c-.2-1.49-.42-2.98-.59-4.47-.02-.21,.08-.49,.22-.65,1.24-1.45,2.51-2.87,3.77-4.3l.4,.21-3.42,9.27-.38-.05h0Z"/><path class="cls-2" d="M85.56,127.54c.12-1.6,.6-3,2.09-3.99,1.72-1.14,3.34-2.42,5-3.64l.29,.18c-.09,.32-.08,.76-.29,.95-2.35,2.19-4.73,4.35-7.09,6.5Z"/><path class="cls-2" d="M53.85,58.14c2.62,1.17,4.21,4.28,3.7,7.42l-3.7-7.42Z"/><path class="cls-2" d="M83.56,148.72l-3.29,5.23c-.14-2.54,1.87-3.71,2.98-5.46l.31,.23h0Z"/><path d="M85.06,84.81c-.5,.39-.92,.74-1.37,1.06-.41,.29-.84,.55-1.12,1.07l2.81-1.62c-.41,2.24-3.65,3.12-6.31,2.27,1.44-1.97,2.78-4.16,5.98-2.78h.01Z"/><path d="M85.41,82.61c-.62-1.93-.06-3.28,1.77-4.58,.81,2.82,.7,3.28-1.11,4.55v-1.96l-.22-.04-.44,2.04h0Z"/><path d="M85,83.28l-1.52-.23-.05,.17,1.44,.63c-1.92,.24-2.95-.43-3.98-2.46,2.14-.62,3.28-.13,4.1,1.88h.01Z"/><path d="M86.84,85.4l1.72,.46,.09-.22-1.59-.73c1.85-.28,3.17,.68,3.88,2.72-3.2-.1-3.25-.12-4.1-2.24h0Z"/><path d="M84.9,90.66c-.37-1.59-1.15-3.29,1.02-4.45v1.86l.32,.04,.32-1.82c.9,1.4,.09,3.54-1.66,4.37Z"/><path d="M41.48,65.1l-2.67,1.92,.11,.2,2.9-1.63c-.55,2.29-3.83,3.13-6.34,2.26,1.45-1.95,2.75-4.2,6-2.75Z"/><path d="M42.83,63.43l.13-2.01-.2-.04-.46,1.91c-.6-1.86-.07-3.11,1.74-4.4,.87,2.72,.68,3.46-1.2,4.53h-.01Z"/><path d="M42.97,66.38c.71,1.83,.25,3.14-1.49,4.57-1.03-2.44-.92-3.31,.89-4.55v1.97l.24,.04,.36-2.03Z"/><path d="M41.45,63.61l-1.75-.4-.08,.2,1.66,.71c-1.8,.33-2.98-.43-3.96-2.45,2.3-.57,3.25-.15,4.14,1.95h0Z"/></g></svg>