<?xml version="1.0" encoding="UTF-8"?><svg id="Layer_1" xmlns="http://www.w3.org/2000/svg" viewBox="0 0 141.84 99.12"><defs><style>.cls-1{fill:none;}</style></defs><path class="cls-1" d="M141.84,99.12c-47.28,0-94.56,0-141.84,0C0,66.08,0,33.04,0,0c47.28,0,94.56,0,141.84,0,0,33.04,0,66.08,0,99.12ZM95.99,15.32c-.46-.85-1.09-.6-1.73-.27-3.26,1.45-2.61,3.93-1.63,6.58,.88-1.03,0-1.85-.28-2.78,.6,.2,1.1,.43,1.62,.52,.27,.05,.58-.14,.87-.23-.09-.31-.09-.77-.3-.91-.62-.41-1.33-.7-2.12-1.1l.69-.93c.64,.92,1.1,1.87,2.69,1.45l-1.85-2.16,.43-.28,1.44,1.68,.34-.2-.18-1.2,.19-.14-.17-.04Zm26.4,16.35c1.45,.33,1.03-.68,1.01-1.41,.3-.09,.71-.1,.87-.31,.12-.15-.09-.8-.18-.81-.44-.03-.89,.08-1.34,.14l.27,.78-1.25,.67c.22,.32,.44,.64,.66,.96-.91-.13-1.67-.07-1.45,1.19h-.5l.02-1.44c1.16-.06,1.42-.62,.88-1.92l.41-.92,.16-.25c.14,.03,.28,.08,.42,.1,.48,.06,.95,.1,1.43,.15l.02-1.17-1.44,.09c-.15-.67-.38-1.34-1.24-1.06-.84,.27-.64,.97-.43,1.59-.41-.28-.81-.53-.94,.25l-1.47,.13,.3,1.31c-.21,.57-.46,1.22,.28,1.52,.27,.11,.73-.27,1.11-.43,.17,.21,.35,.41,.52,.62-.53,.25-1.45,.43-1.51,.76-.14,.77,.56,.97,1.27,.85-.2,.33-.52,.64-.54,.98-.01,.19,.45,.56,.72,.59,.27,.02,.66-.22,.84-.46,.16-.22,.09-.59,.13-.9,1.25,.02,1.44-.3,.98-1.62ZM12.24,29.53c0,.08-.03,.16-.03,.23,.02,.37,.05,.73,.07,1.1,.27-.04,.73-.02,.78-.14,.13-.36,.09-.78,.12-1.18h-.96l-.26-.86c.26,.09,.61,.34,.77,.25,.43-.25,.78-.64,1.16-.98-.34-.37-.66-1.01-1.02-1.04-.35-.03-.8,.55-1.09,.94-.11,.14,.09,.52,.15,.79-.46-.08-.8-1.47-1.38-.12-.14-.13-.26-.36-.42-.39-.43-.08-.92-.22-1.29-.07-.25,.1-.52,.73-.42,.95,.12,.27,.63,.37,.98,.5,.24,.09,.51,.11,.87,.18,.1-.45,.18-.82,.26-1.2l.16,1.7c.54-.23,1.05-.45,1.56-.67Zm96.24-3.15l-.5-.73-1.16,1.31,1.23,.87,.46-1.49c-.31,1.73,1.1,.97,2.15,1.5-.18-.78-.14-1.38-.41-1.69-.59-.65-1.21-.18-1.76,.22Zm-.03,2.14c-.53-.13-1.05-.31-1.58-.33-.1,0-.21,.69-.32,1.06-.54-.61-1.19-.75-1.94-.45l.55-1.06-1.67-.18c-.03,.44-.22,.95-.06,1.3,.37,.8,.81,.14,1.2-.08,0,.55-.03,1.11,.07,1.65,.02,.12,.67,.3,.78,.19,.4-.41,.7-.92,1.04-1.39,.33,.3,.63,.72,1.02,.84,.21,.06,.66-.36,.84-.66,.14-.23,.04-.61,.04-.92l.46,1.23c.6,.26,1.26,.23,1.46-.55,.09-.37-.19-1.06-.51-1.26-.57-.35-1.16-.14-1.39,.6Zm-1.12,3.61c-.04,.19-.17,.44-.09,.57,.24,.43,.49,1.01,.87,1.15,.27,.1,.95-.33,1.13-.69,.35-.71-.25-.95-.85-1.05-.3-.05-.6-.09-.9-.14,.3-.62,.25-1.22-.43-1.45-.36-.12-1,.03-1.22,.3-.21,.26-.21,.93-.01,1.25,.39,.64,.99,.46,1.51,.05Zm-97.25-1.43c0-.08,0-.2-.03-.23-.42-.24-.85-.61-1.29-.64-.23-.01-.74,.64-.69,.9,.09,.41,.54,.74,.84,1.11,.29-.29,.57-.58,.86-.87,.11-.11,.22-.21,.33-.31-.22,.7-.41,1.48,.48,1.75,.31,.1,.81-.41,1.22-.64l.26,1.5c-.78-.68-1.4-.27-2,.3,.02-.2,.05-.4,.05-.59,0-1.09-.84-.95-1.44-.84-.28,.05-.68,.69-.63,.99,.12,.72,.67,1.04,1.43,.76,.22-.08,.41-.23,.61-.35,.31,.66,.28,1.76,1.44,1.43,.88-.25,.9-.99,.51-1.73,1.31,.64,1.79,.31,1.8-1.27,.36,.08,.9,.35,1.04,.21,.25-.25,.44-1.02,.34-1.09-.42-.27-.96-.42-1.47-.48-.1-.01-.27,.56-.4,.87l-1.52,.25c-.04-.35-.02-.98-.12-1-.52-.11-1.08-.06-1.62-.06Zm5.96,26.47c.11-1.46-.3-1.75-1.59-1.13-.17,.08-.36,.15-.54,.22l-1.9,.14c.15,.9-1.14,1.65-.28,2.63-.91,.52-.74,1.11-.12,1.73-.66,.21-.83,.72-.4,1.15,.22,.22,.84,.05,1.28,.01,.23-.02,.45-.21,.67-.2,.96,.02,1.18-.46,.93-1.29,.98,.66,1.23,.55,1.49-.69,.25,.11,.58,.39,.73,.31,.23-.12,.36-.47,.46-.74,.1-.25,.1-.53,.16-.8,.07-.32,.31-.82,.19-.93-.26-.24-.71-.28-1.08-.41ZM51.12,18c-.39-.07-.78-.12-1.17-.22-6-1.57-12.09-2.37-18.26-1.42-3.02,.46-5.96,1.42-8.93,2.15,.4-.24,.79-.5,1.2-.72,1.84-1.04,3.23-2.47,4.06-4.42-.26,.16-.46,.37-.64,.61-1.22,1.65-2.85,2.73-4.78,3.42-.57,.2-1.56,.8-1.52,.9,.38,1.02,1.12,.02,1.7,.19l-3.92,1.99c-1.81-1.8-3.99-2.82-6.61-2.83,2.28,.57,4.4,1.41,5.9,3.48-1.18,.75-.73,1.51-.07,2.37,4.14,5.45,5.67,11.61,5,18.39-.43,4.34-1.84,8.4-3.21,12.5-2.08,6.22-1.93,12.33,1.48,18.15,.17,.29,.13,.83-.02,1.16-.76,1.64-.83,3.32-.56,5.07,.06-1.83,.04-3.67,1.08-5.13,1.12,.54,2.12,1.26,3.24,1.52,1.5,.35,2.7-.53,2.8-1.71,.11-1.36-.95-2.49-2.53-2.37-1.09,.09-2.15,.61-3.49,1.02l-1.9-4.51c.76,.25,1.2,.44,1.65,.53,1.45,.29,2.99-.72,3.31-2.12,.27-1.18-.41-2.51-1.59-2.69-.6-.1-1.42,.18-1.89,.59-.33,.29-.41,1.15-.24,1.62,.15,.41,.81,.62,1.33,.98-.48-.62-1.05-1.05-1.13-1.56-.06-.37,.51-1.15,.86-1.2,.58-.07,1.36,.15,1.78,.55,.69,.64,.58,1.54,.03,2.3-.59,.82-1.43,1.14-2.42,.89-1.12-.28-1.81-.99-1.93-2.17-.33-3.34-.16-6.64,.97-9.82,.65-1.84,1.4-3.63,2.05-5.28l1.28,4.22,.4-.12c-.05-.14-.06-.3-.15-.41-1.17-1.52-.3-3.44-1.02-5.13-.34-.81,.49-2.11,.76-3.11,.81,.61,1.47,1.28,2.27,1.68,2.09,1.05,4.55-.03,5.24-2.21,.49-1.57-.37-3.25-1.92-3.75-1.38-.45-2.98,.43-3.04,1.83-.02,.61,.35,1.39,.8,1.83,.32,.32,1.07,.22,1.48,.29-.63-.41-1.5-.68-1.78-1.25-.22-.44,.13-1.4,.53-1.86,.61-.7,1.52-.62,2.31-.15,1.06,.63,1.44,2,.9,3.15-.67,1.44-2.34,2.12-3.83,1.56-1.79-.66-2.67-2.36-2.41-4.58,.44-3.64,.34-7.26-.57-10.83-.79-3.13-2.18-5.99-3.98-8.67,.4-.17,.74-.28,1.05-.45,7.38-3.84,15.2-4.55,23.32-3.38,7.63,1.11,14.6,4.24,21.81,6.95-1.04,2.11,1.04,2.63,2.15,3.59-1.33,.11-2.52,.13-3.69,.35-.39,.07-.69,.65-1.02,1,.37,.31,.7,.79,1.13,.91,1.55,.42,3.07,.38,4.6-.68,.17,.55,.32,1.12,.11,1.49-.11,.2-.84,.05-1.28,.06-1.06,0-2.12-.04-3.18,.04-.23,.02-.55,.46-.6,.75-.03,.16,.35,.5,.61,.6,.36,.15,.78,.21,1.17,.2,.97-.02,1.95-.1,2.98-.15-.04,.76-.12,1.24-1.05,.85-.49-.21-1.1-.31-1.63-.24-.53,.08-1.01,.44-1.51,.67,.48,.25,.94,.66,1.45,.72,.76,.09,1.54-.06,2.35-.11-.04,.84-.36,.9-1.02,.67-.81-.28-1.67-.42-2.56,.7h3.33l-.46,1.15c.15-.09,.26-.12,.28-.18,.69-2.04,1.37-4.09,2.03-6.13,.06-.18,.06-.46-.04-.58-.89-1.11-.89-2.83-2.41-3.53-.95-.44-1.22-1.17-.76-2.1,1.32,0,2.61,.13,3.86-.03,1.48-.19,2.35,.98,3.58,1.31l-1.21,.37c.29,.27,.54,.64,.89,.79,1.36,.57,2.19,1.55,2.5,2.99,.06,.26,.17,.51,.26,.77,.32-2.25-.76-3.76-2.46-4.94,1.91-.05,3.89,.24,5.7-.2,4.96-1.22,9.84-2.75,14.75-4.16,1.17-.34,2.33-.72,3.25-1.01,.65,1.09,1.05,2.12,1.76,2.87,1.1,1.18,2.71,.69,3.19-.85,.41-1.29-.24-2.66-1.52-3.12-.47-.17-.98-.23-1.61-.38,1.26-1.38,2.8-2.01,4.47-2.22,7.19-.93,14.04-.29,19.99,4.48,.48,.39,1.56,.47,2.11,.2,.51-.25,.93-1.19,.9-1.81-.02-.41-.83-1.01-1.38-1.13-.85-.19-1.39,.43-1.6,1.26-.07,.28-.09,.58-.15,1l-3.2-2.23,.75-1.21c.07,.25,.08,.41,.16,.51,.24,.29,.5,.56,.76,.83,.16-.27,.29-.57,.48-.81,.35-.44,.75-.85,1.28-1.44l-.32-.74c-1.21,.15-2.39,.37-3.06,1.74-.15,.31-1.1,.45-1.6,.33-1.78-.42-3.5-1.1-5.29-1.47-1.56-.33-3.18-.39-4.74-.56l2.42-1.31-.09-.18-5.17,1.71c.5-.67,.81-1.03,1.06-1.43,1.63-2.6,.46-5.79-2.4-6.52-1.84-.48-3.69,.7-4.05,2.57-.35,1.84,1.02,3.24,2.91,2.98-1.69-.3-2.48-.95-2.59-2.15-.12-1.23,.55-2.57,1.75-2.81,.9-.19,2.01-.09,2.84,.28,1.4,.62,2.02,2.28,1.73,3.75-.35,1.76-1.62,3.17-3.12,3.41-2.01,.32-3.96,.84-5.34,2.42-.57,.65-1.16,1-1.96,1.19-.74,.17-1.46,.43-2.19,.63-4.84,1.35-9.68,2.76-14.54,4.02-2.16,.56-4.39,.76-6.56-.09,1.1-.66,2.24-1.18,3.18-1.94,1.53-1.24,1.89-3.59,.97-5.24-.85-1.54-2.63-2.26-4.43-1.78-1.74,.47-2.9,1.62-3.28,3.33-.3,1.32-.22,2.73-.32,4.28-.32,0-.85,.1-1.33-.02-2.2-.52-4.43-.97-6.57-1.69-2.53-.86-4.96-1.99-7.46-2.96-1.33-.52-2.69-.95-4.04-1.42,2.33,.46,6-.39,7.2-2.37-1.95,1.41-4.04,1.9-6.31,1.58-.68-.1-1.02,.07-.86,.81ZM25.46,3.33c-1.01,1.18-2,2.12-2.7,3.24-.49,.79-.81,1.82-.8,2.75,0,1.33,1.02,2.15,2.12,2.82,1.26,.77,2.04-.19,2.83-.58l-1.16-4.1,.32-.11c.36,1.51,.54,3.12,2.24,4.14l2.81-6.6,.19,.06-2.01,6.84c1.95,.19,3.26-.92,4.59-1.96l.18,.32-4.06,2.68c.13,.43,.13,1.3,.56,1.64,1,.8,2.19,1.25,3.56,.76,1.43-.5,2.03-1.69,2.18-2.94,.22-1.76,.05-3.58,.05-5.52l-2.69,.42c.67-2.54,.13-4.76-1.09-6.81-2.51,.67-4.03,2.51-5.31,4.53l-1.8-1.6ZM5.21,23.19c1.37,.48,2.58,.95,3.82,1.3,.58,.16,1.26,.19,1.84,.05,1.35-.31,1.98-1.32,2.33-2.6,.39-1.43-.46-2.11-1.42-2.67l-2.35,1.91-.07-.12,2.13-2.53-.22-.42H4.12l-.02-.41,7.14-.55,.23-.3-2.74-2.91,.08-.13,3.12,2.45c.38-.32,1.1-.62,1.28-1.12,.4-1.1,.37-2.26-.49-3.26-.91-1.07-2.15-1.23-3.32-.91-1.57,.43-3.06,1.18-4.69,1.82l1.2,2c-2.32,.3-4.12,1.42-5.51,3.16,1.34,2.04,3.51,2.62,5.55,3.19l-.76,2.04Zm47.73,3.72c-.56-.27-1.17-.83-1.74-.79-1.97,.14-3.82,2.3-2.68,4.38,.7,1.27,1.59,2.43,2.48,3.77l1.76-1.32c1.07,1.9,2.31,3.63,4.47,4.35,1.32-1.78,1.75-3.82,1.48-6.02l2.21,.53c.13-1.73,.28-3.25,.36-4.78,.08-1.56-1.14-3.01-2.57-3.13-1.75-.15-2.62,.55-2.93,2.2l3.2,2.43-.19,.26c-1.08-.99-2.18-1.95-3.79-1.88l1.45,6.69-.12,.02-2.21-6.46-.49-.04-1.76,2.8-.14-.05,1.21-2.95Zm13.93-13.65l-2.16-.43c1.28-1.79,1.63-3.72,1.31-5.73-2.18-.38-3.91,.7-5.62,1.71l-1.01-1.72c-1.13,.59-2.07,1.09-3.02,1.58-1.48,.77-2.18,2.35-1.54,3.78,.66,1.47,1.26,2.3,3.13,1.52l.31-3.38,.4,3.7,.44,.06,3.62-3.43,.17,.17-3.21,3.93c1.48,.74,2.86,.31,4.26,.05-.62,.3-1.25,.57-1.9,.69-.65,.12-1.34,.1-1.98,.14-.26,.85-.53,1.57,.25,2.34,1.69,1.66,3.9,1.36,4.91-.83,.59-1.28,1.04-2.63,1.64-4.15Zm20.81,16.37l2.52,3.45-.09,.05-2.97-2.94-.69,2.49v-2.14c-.57,0-1.19-.18-1.61,.03-1.49,.76-1.7,2.88-.4,3.91,.86,.68,1.84,1.21,2.85,1.86l.78-1.17,4.47,1.7,.46-.39-.77-4.65,1.37-.3c-.41-1.25-.7-2.4-1.17-3.49-.55-1.29-1.91-1.85-3.02-1.39-1.2,.5-1.54,1.28-1.13,2.46l2.57,.55-.04,.11-3.12-.14Zm-.12-11.46c.45-1.59,.56-3.13-.43-4.9l-3.96,2.63-.71-1.06c-.99,.93-1.84,1.61-2.54,2.41-.78,.89-.65,2.02,.17,2.92,.79,.86,1.62,1.07,2.51,.24l-.35-1.92,1.1,2.28,2.21-3.5,.15,.08-1.62,3.62,2.12-.2,.04,.15-1.63,.57c-.35,1.22,.4,1.73,1.32,2.05,.97,.33,1.98,.14,2.34-.82,.53-1.41,.76-2.92,1.15-4.54h-1.87ZM24.57,56.22c-1-.69-1.68-.18-2.24,.58-.58,.78-.61,1.61,0,2.42,1.04,1.39,2.69,1.5,4.18,2.11l.41-1.49c1.38,.85,2.79,1.31,4.52,.96-.14-.79-.19-1.53-.41-2.23-.23-.73-.62-1.42-.92-2.08l1.27-.82c-.56-1-.99-1.9-1.54-2.72-.65-.97-1.66-1.2-2.73-.73-1.08,.47-1.54,1.21-1.05,2.35l1.84,.14v.12l-2.32,.3,2.14,2.54-.16,.17-2.45-2.11-.27,2.22h-.16l-.13-1.73Zm-6.06-8.59v-1.21l-3.33,1.36-.07-.17,3.45-1.99-2.43-.96v-.09l2.1,.4c.78-1.2,.72-2.05-.47-2.58-.66-.29-1.68-.32-2.31,0-.96,.49-1.71,1.38-2.61,2.16l.83,.96-2.7,3.56,.23,.49,4.42,.29v1.23c.76-.05,1.45,0,2.1-.15,.91-.19,1.92-.34,2.63-.86,.46-.34,.66-1.33,.59-1.98-.05-.46-.7-1.03-1.2-1.2-.3-.1-.83,.47-1.23,.72ZM112.47,8.78c-.73,.6-1.44,1.13-2.07,1.73-.78,.73-.82,1.62-.25,2.49,.54,.83,1.26,1.19,2.22,.54v-.81l.74,1,1.87-2.47,.13,.08-1.46,2.72c.36,.05,.55,.08,.74,.11,.17,.02,.34,.04,.67,.07-1.18,.38-1.45,.96-.89,1.63,.82,.99,2.35,1.05,2.95-.08,.58-1.1,.79-2.4,1.19-3.7l-1.26-.15v-3.88l-.37-.24-3.39,1.83-.8-.86Zm23.56,14.61l2.59-1.84,.1,.1-2.32,2.22,2.06,.56h-2.14c.21,.66,.24,1.33,.58,1.75,.78,.97,2.12,.8,2.91-.37,.52-.77,.89-1.64,1.35-2.51l-.98-.45,1.19-3.44-.35-.42-3.62,.71-.48-1.02c-.9,.38-1.77,.68-2.56,1.11-.85,.47-1.01,1.28-.71,2.18,.29,.88,.84,1.33,1.88,.97l.16-1.14,.35,1.59Zm-22.13-1.98l-.64,.86c-.11-.26-.24-.9-.43-.93-.47-.06-1.09,.04-1.45,.32-.81,.63-.86,1.64-.15,2.43,.5,.56,1.14,.98,1.78,1.52l.6-.48,2.89,2.02,.41-.23,.38-3.33,.94-.19c0-.68,.09-1.29-.02-1.87-.12-.64-.29-1.39-.7-1.84-.32-.35-1.09-.47-1.6-.39-.4,.06-.87,.56-1.01,.96-.08,.24,.43,.68,.65,.99h-1.11l.99,2.4-.16,.06-1.36-2.32ZM29.43,26.29l.48,.06c0,.55,.15,1.17-.03,1.64-.3,.78-.84,.11-1.29,.04-.78-.13-1.6-.35-2.35-.23-.65,.1-1.75,.6-1.76,.95-.03,1.01,1.05,.92,1.74,.95,1.09,.05,2.18-.1,3.31-.17,.01,.87-.12,1.3-1.17,.92-.75-.27-1.64-.22-2.46-.17-.31,.02-.6,.42-.89,.65,.32,.24,.63,.67,.97,.69,.91,.05,1.82-.07,2.73-.12,.11,0,.22,.05,.38,.09-.03,.21-.02,.41-.08,.59-.05,.14-.19,.24-.29,.35-1.68-.65-2.57-.57-3.41,.59l3.66,.22c.3-.86,.65-1.84,.97-2.82,.31-.94,.71-1.88,.87-2.85,.08-.52-.24-1.11-.45-1.65-.09-.25-.47-.43-.48-.65-.04-1.23-.89-1.8-1.78-2.37-.59-.37-1.13-.76-.89-1.63,.05-.19-.25-.48-.39-.73-.2,.2-.51,.37-.59,.61-.34,1.03,.14,1.77,.97,2.34,.52,.36,1.03,.74,1.44,1.04-1.37,.12-2.72,.16-4.04,.39-.38,.07-.67,.67-1.01,1.03,.36,.33,.67,.86,1.08,.96,1.66,.41,3.33,.56,4.77-.72Zm-15.03,42.26c.08-.65,.15-1.12,.2-1.59,.05-.45,.1-.91,.16-1.41l-.86,.16c.56-.74,.43-1.24-.41-1.52-1.23-.41-2.28,.45-2.17,1.87,.06,.81,.33,1.61,.51,2.46l.88-.19,1.2,3.01,.43,.08,2.13-2.51,.89,.37c.39-.71,.78-1.36,1.09-2.04,.36-.8,.1-1.49-.6-1.98-.65-.45-1.18-.34-1.92,.12-1.21,.75-.9,2-1.53,3.17Zm16.65,7.52c-.7-.37-1.28-.72-1.89-.99-1.04-.47-2.08-.06-2.37,1.02-.1,.37,.09,.88,.31,1.24,.08,.13,.61-.02,.9-.04l-.6,.88,2.39,.65c-.82,.54-1.64-.38-2.69,.29-.87,.55-1.29,.95-1.12,1.81,.21,1.04,1.07,1.33,2.03,1.19,.78-.11,1.54-.34,2.36-.52l-.23-.92,3.02-1.23,.05-.46-2.56-2.04,.4-.88Zm-11.73-40.59c-.56,1.11-.91,.05-1.37-.16-.6-.26-1.24-.44-1.87-.62-.05-.01-.28,.41-.27,.43,.48,.39,.98,.76,1.49,1.12,.09,.07,.24,.06,.33,.13,.29,.19,.57,.41,.76,.55,.67-.63,1.49-1.29,2.15-2.08,.34-.4,.4-1.04,.55-1.58,.48-1.67-1.26-3.07-.6-4.78,0-.01-.12-.08-.24-.15-1.74,1.12-.26,2.3,.03,3.36-.93-.35-1.8-.75-2.71-.99-.32-.08-.74,.26-1.12,.41,.15,.34,.21,.86,.47,.99,1.09,.56,2.23,1,3.57,1.58-.02,.05-.1,.5-.36,.71-.13,.11-.62-.2-.93-.36-.7-.37-1.36-.82-2.09-1.1-.27-.1-.69,.18-1.05,.28,.15,.3,.23,.73,.48,.87,.85,.5,1.76,.9,2.75,1.38ZM48.35,8.68c-2.97-.67-5.91-.7-7.88,2.47-.47,.75-.47,3.5,.15,4.5l.34-4.05c.85,.37,1.58,.75,2.35,.96,.13,.04,.63-.59,.67-.95,.13-1.07-.49-1.68-1.57-2.13l1.56-.59c.33,.91,.55,1.63,.89,2.28,.07,.13,.91,.05,.93-.03,.15-.78,.21-1.58,.29-2.44h.88c-.04,.15-.08,.22-.08,.3-.01,.51-.06,1.03,.01,1.52,.01,.1,.67,.25,.69,.2,.22-.42,.37-.88,.53-1.34,.08-.22,.16-.45,.25-.72ZM20.71,90.69l2.28-1.19c1.03,.79,1.51-.26,2.03-.73,.62-.55,.74-1.33-.04-1.95-.68-.54-1.59-.16-2.28,.74-.12-.62-.17-1.47-.51-2.19-.08-.17-1.41-.11-1.61,.19-.38,.6-.36,1.45-.51,2.19,.91,.15,.45,.81,.48,1.29,.03,.46,.09,.92,.16,1.64Zm-1.53-17.37c-.64-.33-1.08-.68-1.56-.77-.4-.07-.85,.16-1.28,.26,.15,.38,.2,.91,.48,1.09,.63,.41,1.37,.64,2.2,1.01l-.56,.8c-.66-.48-1.16-.93-1.74-1.23-.23-.12-.64,.1-.97,.16,.11,.31,.12,.72,.33,.89,.5,.4,1.1,.68,1.8,1.1-1.1,.72-1.72-1.58-2.71-.31,.27,.47,.47,.95,.79,1.32,.19,.21,.77,.41,.87,.31,.91-.91,2.14-1.75,2.51-2.87,.48-1.45,.27-3.13,.36-4.83-1.5,.81-.77,1.94-.54,3.07Zm-1.11,7.4c-.74,.14-1.5,1.06-1.3,1.75,.3,1.01,.65,2.01,1.06,2.97,.06,.13,.78,.2,.91,.05,.52-.62,.95-1.31,1.37-2.01,.71-1.17,.47-1.89-.82-2.43-.39-.16-.82-.23-1.23-.34ZM97.78,25.52l.15,.25c-.27,.05-.57,.19-.81,.13-.41-.11-.77-.42-1.18-.5-.29-.06-.63,.13-.95,.21,.17,.26,.34,.53,.52,.79,.05,.06,.13,.1,.16,.12l-.74,.51,.03,.41c.69,.05,1.61,.41,2.03,.09,.61-.46,1.09-1.36,1.21-2.14,.16-1.05-.09-2.15-.17-3.37-.23,.28-.62,.55-.68,.88-.07,.41,.13,.87,.21,1.33-.49-.22-.91-.51-1.36-.58-.32-.05-.69,.19-1.03,.3,.17,.32,.26,.8,.51,.92,.66,.3,1.39,.44,2.1,.64Zm-57.05,3.04c.83,0,1.52-.69,1.5-1.51-.01-.82-.72-1.51-1.55-1.45-.88,.06-1.38,.57-1.43,1.44-.05,.83,.65,1.52,1.48,1.52Zm-2.76,1.04c.37-.51,1.03-1.01,1.06-1.54,.05-.81-.3-1.72-1.43-1.64-.87,.06-1.38,.58-1.41,1.48-.03,.86,.65,1.52,1.78,1.7Zm-.69,6.35c.5,.41,1.13,1.24,1.48,1.13,.67-.21,1.48-.85,1.66-1.48,.21-.75-.51-1.35-1.4-1.39-.84-.03-1.53,.66-1.73,1.73Zm5.12,1.22c.79-.07,1.32-.54,1.43-1.41,.07-.59-1.12-1.67-1.81-1.45-.48,.15-.99,.78-1.14,1.29-.22,.75,.62,1.55,1.52,1.57Zm-3.02-4.27c-.02-.83-.76-1.54-1.57-1.44-.86,.1-1.49,.64-1.34,1.5,.09,.5,.6,1.2,1.06,1.31,.76,.2,1.87-.79,1.86-1.37Zm5.73,.06c0-.8-.73-1.55-1.52-1.52-1.62,.06-.56,1.54-1.13,2.16,.37,.28,.7,.73,1.11,.8,.79,.15,1.54-.64,1.54-1.45Zm-4.15,6.68c.72-.06,1.47-.6,1.23-1.39-.19-.62-1.09-1.03-1.68-1.54-.4,.47-1.01,.89-1.15,1.42-.21,.81,.58,1.5,1.6,1.5Zm1.31-7.01c-.02-.84-.74-1.6-1.54-1.41-.42,.1-1.12,.76-1.06,.9,.3,.7-.46,2.05,1.12,2.03,.86-.01,1.5-.66,1.48-1.52Zm.72-1.75l2.27,.71c.64-.56,.93-1.33,.34-1.97-.37-.4-1.19-.69-1.72-.59-.92,.18-1.13,1-.89,1.84Zm-2.1-6.18c.88-2.42-.91-5.76-3.08-6.15-.25-.04-.56,.27-.84,.41,.18,.26,.31,.68,.55,.77,2.27,.76,3.31,2.36,3.37,4.97Zm35.56,11.53l.59,.02c.36-.51,.95-.99,1.04-1.54,.13-.79-.5-1.46-1.3-1.29-.51,.1-1.21,.77-1.25,1.23-.04,.5,.59,1.05,.92,1.58Zm-.91,4.72l-.55-.03c-.37,.51-.98,1-1.02,1.54-.03,.42,.66,.89,1.03,1.33,.52-.45,1.25-.82,1.48-1.39,.13-.31-.6-.96-.94-1.46Zm-1.17-4.1c.24-.29,.86-.71,.9-1.17,.05-.71-.24-1.68-1.23-1.51-.5,.09-1.15,.73-1.29,1.24-.21,.81,.41,1.29,1.62,1.44Zm.65,7.97c.84,.55,1.39,1.19,1.89,1.15,.46-.04,.87-.8,1.3-1.25-.56-.43-1.07-1.01-1.7-1.23-.25-.08-.77,.66-1.49,1.32Zm-2.62-4.88c.73,.63,1.35,1.34,1.49,1.25,.58-.35,1.67-.07,1.69-1.14,.02-.84-.51-1.45-1.3-1.34-.56,.07-1.04,.66-1.88,1.23Zm5.55,4.06h.56c.35-.5,.93-.96,1.01-1.49,.17-1.07-.98-.97-1.58-1.24-.14-.07-1.02,.79-.98,1.15,.07,.56,.63,1.06,.99,1.59Zm-.71-2.9c.22-.3,.9-.81,.89-1.31,0-.46-.69-1.02-1.21-1.3-.17-.09-1.08,.57-1.05,.82,.07,.65-.41,1.76,1.37,1.79Zm-41.22-9.18l2.17-1.11c.3-1.47-1.28-.84-1.81-1.41-.05-.06-.78,.3-.94,.6-.42,.78-.16,1.45,.58,1.92Zm18.12-6.07c-.89-2.68-2.7-4.48-5.3-5.52-.21-.08-.53,.11-.8,.18,.16,.23,.27,.6,.47,.66,2.51,.81,4.36,2.37,5.63,4.67Zm24.39,14.14c-.33,.69-.25,1.28,.73,1.34,.85,.05,1.37-.38,1.43-1.23,.06-.85-.44-1.35-1.26-1.42-.89-.08-1.05,.5-.9,1.31Zm2.15-1.01c.88-1.06,.89-1.83,.2-2.34-.64-.46-1.65-.3-1.95,.43-.87,2.07,1.5,.86,1.76,1.91Zm-38.55-7.67l1.09-2.74c-.88-1.18-1.36,.32-2.07,.4-.18,.02-.52,.83-.4,1.04,.28,.48,.82,.81,1.37,1.3Zm30.42,7.78l1.96-.98c.22-1.31-1.17-.79-1.67-1.3-.05-.05-.65,.25-.79,.5-.39,.73-.19,1.37,.5,1.79Zm-29.78-12.62c-.64,1.17,.38,1.49,.96,1.96,.18,.15,.9,.02,.92-.07,.09-.42,.16-.95-.03-1.31-.41-.77-1.13-.9-1.85-.58Zm36.26,9.58c-.88-.98-1.32,.41-2.02,.44-.08,0-.3,.8-.15,.98,.31,.39,.82,.62,1.26,.92l.91-2.34Zm-39.5-7.43c-.37,.4-.85,.7-.97,1.1-.11,.38,.06,1.15,.31,1.25,.37,.16,1.01,0,1.38-.25,.41-.28-.08-1.69-.72-2.11Zm64.91-3.91c-.49,.75-1.01,1.19-.95,1.56,.06,.39,.61,.92,1.01,.99,.29,.05,.99-.59,.97-.89-.03-.46-.51-.89-1.03-1.66Zm3.57,.55c-.7-.54-1.11-1.09-1.47-1.06-.4,.03-.75,.6-1.12,.94,.34,.36,.64,.96,1.04,1.02,.36,.06,.82-.44,1.56-.9ZM16.03,29.45c-.67-.52-1.1-1.09-1.46-1.05-.41,.05-.75,.64-1.13,.99,.35,.36,.67,.97,1.06,1.01,.37,.05,.82-.48,1.53-.96Zm-5.53,5.78l-.03-.47c-.35-.17-.68-.45-1.04-.48-.56-.04-1.37-.06-1.19,.83,.08,.39,.69,.91,1.09,.94,.37,.03,.78-.52,1.17-.82Zm98.35-5.66c-.47,.59-.96,.97-.9,1.19,.12,.44,.51,1.06,.87,1.11,.34,.05,1.06-.49,1.09-.82,.04-.36-.52-.78-1.05-1.48Zm-22.51-.8c-1.43-1.39-4.07-2.13-5.38-1.29l5.38,1.29Zm-5.41,6.42c-.74-.48-1.22-.87-1.76-1.1-.12-.05-.46,.42-.7,.66,.49,.43,.96,.88,1.48,1.24,.07,.05,.44-.35,.98-.8Zm25.27-12.26c-.18-1.65-1.37-3.01-2.75-3.18-.25-.03-.52,.19-.78,.3,.2,.19,.38,.54,.59,.56,1.49,.15,2.33,1.08,2.94,2.32ZM13.58,25.69c.89-.98,1.88-1.69,3.31-1.55,.27,.03,.57-.23,.86-.36-.3-.17-.61-.5-.9-.48-1.58,.06-2.67,.89-3.26,2.39Zm64.53-1.14c1.22,.69,4.21-.91,4.75-2.25l-4.75,2.25Zm-3.65,12.83c.5,.46,.8,.96,1.08,.95,.32-.02,.88-.48,.88-.75,0-.46-.35-.93-.55-1.39l-1.41,1.2Zm-53.78,7.26c1.41-.97,2.27-2.75,1.8-3.92l-1.8,3.92ZM124.18,22.83c-1.17-.59-2.65,.69-2.63,1.98l2.63-1.98ZM10.81,26.21c-.38,.4-.71,.7-.95,1.05-.03,.05,.45,.59,.54,.55,.46-.2,.87-.51,1.29-.79l-.88-.81Zm8.68,27.84c-1.01-.89-2.36-.51-3.08,.62l3.08-.62ZM109.94,25.12c-.71-.43-1.08-.74-1.51-.87-.15-.05-.43,.31-.66,.48,.36,.31,.69,.68,1.1,.91,.13,.07,.46-.21,1.07-.51Zm-3.55,1.3l-.73,.04v1.64c.32-.05,.92-.1,.92-.14-.01-.51-.11-1.02-.19-1.54Zm28.46-1.79h-4.02l.02,.34c1.29,.44,2.57,.35,4.01-.34ZM25.85,78.04l-2.45-2.7c.17,1.34,1.2,2.37,2.45,2.7Zm-10.32-14.07l2.69-2.24c-1.2,.01-2.21,.92-2.69,2.24ZM110.13,17.86l-.19,.5,3.04,1.23,.13-.28-2.98-1.44Z"/><path d="M74.63,27.12c-1.23-.32-2.09-1.5-3.58-1.3-1.25,.16-2.55,.03-3.86,.03-.47,.93-.19,1.66,.76,2.1,1.52,.7,1.52,2.41,2.41,3.53,.1,.13,.1,.41,.04,.58-.66,2.05-1.35,4.09-2.03,6.13-.02,.06-.13,.09-.28,.18l.46-1.15h-3.33c.89-1.12,1.76-.98,2.56-.7,.66,.23,.98,.17,1.02-.67-.81,.05-1.59,.2-2.35,.11-.5-.06-.97-.47-1.45-.72,.5-.24,.99-.6,1.51-.67,.52-.08,1.13,.03,1.63,.24,.93,.39,1.01-.09,1.05-.85-1.03,.06-2,.13-2.98,.15-.39,0-.81-.05-1.17-.2-.26-.11-.64-.44-.61-.6,.05-.29,.37-.73,.6-.75,1.05-.08,2.12-.04,3.18-.04,.45,0,1.17,.14,1.28-.06,.21-.37,.06-.94-.11-1.49-1.53,1.06-3.06,1.11-4.6,.68-.43-.12-.75-.6-1.13-.91,.34-.35,.63-.92,1.02-1,1.16-.22,2.36-.24,3.69-.35-1.11-.96-3.19-1.48-2.15-3.59-7.21-2.71-14.18-5.84-21.81-6.95-8.13-1.18-15.94-.46-23.32,3.38-.32,.16-.66,.28-1.05,.45,1.8,2.69,3.19,5.54,3.98,8.67,.91,3.58,1,7.19,.57,10.83-.27,2.22,.62,3.92,2.41,4.58,1.5,.55,3.17-.13,3.83-1.56,.54-1.16,.16-2.52-.9-3.15-.79-.47-1.71-.55-2.31,.15-.4,.46-.75,1.42-.53,1.86,.28,.57,1.16,.84,1.78,1.25-.41-.07-1.15,.03-1.48-.29-.45-.44-.82-1.22-.8-1.83,.06-1.4,1.66-2.28,3.04-1.83,1.55,.51,2.41,2.19,1.92,3.75-.68,2.17-3.15,3.26-5.24,2.21-.8-.4-1.46-1.07-2.27-1.68-.27,.99-1.11,2.3-.76,3.11,.72,1.69-.15,3.61,1.02,5.13,.08,.11,.1,.27,.15,.41l-.4,.12-1.28-4.22c-.64,1.64-1.39,3.44-2.05,5.28-1.13,3.19-1.3,6.49-.97,9.82,.12,1.18,.81,1.89,1.93,2.17,1,.25,1.83-.07,2.42-.89,.55-.76,.66-1.65-.03-2.3-.42-.39-1.2-.62-1.78-.55-.35,.04-.92,.82-.86,1.2,.08,.51,.65,.94,1.13,1.56-.52-.36-1.18-.57-1.33-.98-.17-.47-.09-1.33,.24-1.62,.46-.41,1.28-.69,1.89-.59,1.18,.19,1.85,1.51,1.59,2.69-.32,1.4-1.86,2.41-3.31,2.12-.45-.09-.88-.28-1.65-.53l1.9,4.51c1.34-.41,2.4-.94,3.49-1.02,1.58-.13,2.65,1.01,2.53,2.37-.1,1.18-1.3,2.06-2.8,1.71-1.11-.26-2.12-.98-3.24-1.52-1.05,1.46-1.02,3.3-1.08,5.13-.27-1.74-.21-3.43,.56-5.07,.15-.33,.19-.87,.02-1.16-3.41-5.82-3.57-11.94-1.48-18.15,1.37-4.1,2.78-8.16,3.21-12.5,.67-6.78-.85-12.94-5-18.39-.66-.86-1.11-1.63,.07-2.37-1.5-2.07-3.62-2.91-5.9-3.48,2.62,0,4.8,1.04,6.61,2.83l3.92-1.99-.03,.02c2.98-.73,5.92-1.69,8.93-2.15,6.17-.95,12.26-.14,18.26,1.42,.38,.1,.78,.15,1.17,.22l-.03-.03c1.35,.47,2.71,.9,4.04,1.42,2.49,.97,4.93,2.1,7.46,2.96,2.14,.72,4.37,1.17,6.57,1.69,.48,.11,1.01,.02,1.33,.02,.1-1.55,.02-2.95,.32-4.28,.38-1.7,1.54-2.86,3.28-3.33,1.8-.48,3.58,.23,4.43,1.78,.91,1.65,.55,4.01-.97,5.24-.94,.76-2.08,1.28-3.18,1.94,2.17,.85,4.4,.65,6.56,.09,4.87-1.26,9.7-2.67,14.54-4.02,.73-.2,1.45-.46,2.19-.63,.8-.18,1.39-.54,1.96-1.19,1.38-1.58,3.33-2.11,5.34-2.42,1.5-.24,2.78-1.65,3.12-3.41,.29-1.47-.33-3.13-1.73-3.75-.84-.37-1.94-.47-2.84-.28-1.2,.25-1.87,1.59-1.75,2.81,.12,1.2,.9,1.85,2.59,2.15-1.89,.27-3.27-1.14-2.91-2.98,.36-1.88,2.21-3.05,4.05-2.57,2.85,.74,4.03,3.92,2.4,6.52-.25,.4-.56,.76-1.06,1.43l5.17-1.71,.09,.18-2.42,1.31c1.56,.17,3.18,.23,4.74,.56,1.79,.38,3.51,1.05,5.29,1.47,.5,.12,1.45-.02,1.6-.33,.67-1.37,1.86-1.59,3.06-1.74l.32,.74c-.53,.59-.92,1-1.28,1.44-.2,.24-.32,.54-.48,.81-.26-.28-.52-.54-.76-.83-.08-.1-.08-.26-.16-.51l-.75,1.21,3.2,2.23c.06-.42,.07-.71,.15-1,.21-.83,.75-1.46,1.6-1.26,.55,.12,1.36,.72,1.38,1.13,.03,.62-.4,1.56-.9,1.81-.55,.28-1.63,.19-2.11-.2-5.95-4.77-12.8-5.4-19.99-4.48-1.66,.21-3.21,.85-4.47,2.22,.64,.14,1.14,.21,1.61,.38,1.27,.45,1.92,1.82,1.52,3.12-.48,1.53-2.09,2.03-3.19,.85-.7-.75-1.11-1.78-1.76-2.87-.92,.29-2.08,.68-3.25,1.01-4.91,1.42-9.79,2.94-14.75,4.16-1.81,.45-3.8,.16-5.7,.2l.03,.03Zm.73-9.45c-1.4,.25-2.27,.8-2.82,1.83-.67,1.26-.79,2.58-.26,3.91,.07,.17,.5,.36,.65,.29,1.23-.51,2.54-.93,3.62-1.68,.9-.63,1.07-1.85,.55-2.82-.34-.64-1.15-1.02-1.74-1.52ZM22.52,72.74c.83,1,1.69,1.82,2.98,1.85,.86,.02,1.74-.19,1.84-1.27,.09-1.05-.57-1.61-1.54-1.77-1.24-.21-2.35,.07-3.28,1.19ZM99.35,21.59c.37,.77,.6,1.55,1.07,2.14,.26,.33,1.24,.57,1.35,.43,.34-.44,.63-1.11,.54-1.63-.16-1-1.15-1.31-2.97-.94Zm26.2,.98c1.35-.04,1.9-.62,1.77-1.43-.07-.44-.75-1.06-1.22-1.11-.88-.1-1.4,.61-1.29,1.45,.06,.46,.56,.86,.73,1.09Zm-60.84,7.8l.02,.39h3.27l-.02-.53-3.28,.14Zm.49,2.65v.35h3.03v-.35h-3.03Z"/><path d="M25.46,3.33l1.8,1.6c1.29-2.01,2.81-3.85,5.31-4.53,1.22,2.05,1.76,4.27,1.09,6.81l2.69-.42c0,1.94,.16,3.76-.05,5.52-.15,1.25-.76,2.44-2.18,2.94-1.38,.48-2.57,.03-3.56-.76-.42-.34-.42-1.21-.56-1.64l4.06-2.68-.18-.32c-1.33,1.03-2.64,2.14-4.59,1.96l2.01-6.84-.19-.06-2.81,6.6c-1.7-1.02-1.88-2.63-2.24-4.14l-.32,.11,1.16,4.1c-.78,.39-1.57,1.36-2.83,.58-1.1-.68-2.11-1.49-2.12-2.82,0-.92,.31-1.96,.8-2.75,.7-1.12,1.7-2.06,2.7-3.24Z"/><path d="M5.21,23.19l.76-2.04c-2.04-.57-4.21-1.15-5.55-3.19,1.39-1.74,3.19-2.86,5.51-3.16l-1.2-2c1.62-.65,3.11-1.39,4.69-1.82,1.17-.32,2.4-.16,3.32,.91,.86,1,.89,2.16,.49,3.26-.18,.5-.9,.8-1.28,1.12l-3.12-2.45-.08,.13,2.74,2.91-.23,.3-7.14,.55,.02,.41h7.14l.22,.42-2.13,2.53,.07,.12,2.35-1.91c.96,.56,1.81,1.24,1.42,2.67-.35,1.29-.98,2.3-2.33,2.6-.58,.13-1.26,.11-1.84-.05-1.24-.34-2.45-.82-3.82-1.3Z"/><path d="M52.94,26.91l-1.21,2.95,.14,.05,1.76-2.8,.49,.04,2.21,6.46,.12-.02-1.45-6.69c1.62-.08,2.71,.88,3.79,1.88l.19-.26-3.2-2.43c.3-1.65,1.18-2.35,2.93-2.2,1.43,.12,2.65,1.57,2.57,3.13-.08,1.53-.22,3.05-.36,4.78l-2.21-.53c.27,2.19-.16,4.23-1.48,6.02-2.16-.72-3.4-2.44-4.47-4.35l-1.76,1.32c-.9-1.35-1.79-2.51-2.48-3.77-1.14-2.07,.71-4.24,2.68-4.38,.57-.04,1.18,.52,1.74,.79Z"/><path d="M66.87,13.26c-.59,1.52-1.05,2.87-1.64,4.15-1.01,2.19-3.22,2.49-4.91,.83-.78-.77-.52-1.49-.25-2.34,.65-.04,1.33-.01,1.98-.14,.65-.12,1.28-.4,1.9-.69-1.4,.26-2.78,.69-4.26-.05l3.21-3.93-.17-.17-3.62,3.43-.44-.06-.4-3.7-.31,3.38c-1.87,.78-2.47-.05-3.13-1.52-.65-1.43,.06-3.01,1.54-3.78,.94-.49,1.89-.99,3.02-1.58l1.01,1.72c1.71-1.02,3.44-2.09,5.62-1.71,.31,2.01-.03,3.94-1.31,5.73l2.16,.43Z"/><path d="M87.68,29.64l3.12,.14,.04-.11-2.57-.55c-.41-1.18-.07-1.95,1.13-2.46,1.11-.47,2.47,.1,3.02,1.39,.46,1.09,.76,2.25,1.17,3.49l-1.37,.3,.77,4.65-.46,.39-4.47-1.7-.78,1.17c-1-.65-1.99-1.18-2.85-1.86-1.3-1.03-1.08-3.15,.4-3.91,.42-.21,1.04-.03,1.61-.03v2.14l.69-2.49,2.97,2.94,.09-.05-2.52-3.45Z"/><path d="M87.56,18.17h1.87c-.39,1.62-.62,3.13-1.15,4.54-.36,.97-1.37,1.15-2.34,.82-.93-.32-1.67-.82-1.32-2.05l1.63-.57-.04-.15-2.12,.2,1.62-3.62-.15-.08-2.21,3.5-1.1-2.28,.35,1.92c-.89,.83-1.72,.63-2.51-.24-.82-.89-.95-2.03-.17-2.92,.7-.8,1.55-1.48,2.54-2.41l.71,1.06,3.96-2.63c1,1.77,.89,3.31,.43,4.9Z"/><path d="M24.57,56.22l.13,1.72h.16l.27-2.21,2.45,2.11,.16-.17-2.14-2.54,2.31-.3v-.12l-1.83-.14c-.49-1.14-.03-1.88,1.05-2.35,1.06-.47,2.08-.24,2.73,.73,.55,.83,.98,1.73,1.54,2.72l-1.27,.82c.3,.67,.69,1.35,.92,2.08,.22,.69,.27,1.44,.41,2.23-1.73,.35-3.14-.11-4.52-.96l-.41,1.49c-1.49-.61-3.14-.72-4.18-2.11-.61-.81-.58-1.64,0-2.42,.56-.76,1.24-1.28,2.24-.58Z"/><path d="M18.51,47.63c.41-.26,.94-.83,1.23-.72,.5,.17,1.15,.74,1.2,1.2,.08,.65-.13,1.65-.59,1.98-.71,.52-1.72,.66-2.63,.86-.65,.14-1.34,.1-2.1,.15v-1.23l-4.42-.29-.23-.49,2.7-3.56-.83-.96c.9-.78,1.65-1.67,2.61-2.16,.62-.32,1.65-.3,2.31,0,1.19,.54,1.24,1.38,.47,2.58l-2.08-.4v.09l2.41,.96-3.45,1.99,.07,.17,3.33-1.36v1.21Z"/><path d="M112.47,8.78l.8,.86,3.39-1.83,.37,.24v3.88l1.26,.15c-.4,1.3-.6,2.6-1.19,3.7-.6,1.13-2.13,1.06-2.95,.08-.56-.67-.29-1.25,.89-1.63-.32-.04-.5-.05-.67-.07-.19-.03-.39-.06-.74-.11l1.46-2.72-.13-.08-1.87,2.47-.74-1v.81c-.95,.66-1.67,.3-2.22-.54-.57-.87-.53-1.76,.25-2.49,.63-.6,1.34-1.12,2.07-1.73Z"/><path d="M136.03,23.39l-.35-1.59-.16,1.14c-1.04,.37-1.58-.09-1.88-.97-.3-.89-.14-1.71,.71-2.18,.79-.44,1.66-.73,2.56-1.11l.48,1.02,3.62-.71,.35,.42-1.19,3.44,.98,.45c-.46,.87-.83,1.74-1.35,2.51-.8,1.17-2.13,1.35-2.91,.37-.34-.42-.37-1.08-.58-1.75h2.14l-2.06-.56,2.32-2.22-.1-.1-2.59,1.84Z"/><path d="M113.9,21.41l1.36,2.32,.16-.06-.99-2.4h1.11c-.22-.31-.73-.74-.65-.99,.13-.4,.61-.9,1.01-.96,.52-.08,1.28,.04,1.6,.39,.42,.45,.58,1.19,.7,1.84,.11,.57,.02,1.19,.02,1.87l-.94,.19-.38,3.33-.41,.23-2.89-2.02-.6,.48c-.64-.54-1.28-.97-1.78-1.52-.71-.79-.66-1.81,.15-2.43,.36-.28,.98-.38,1.45-.32,.2,.02,.32,.67,.43,.93l.64-.86Z"/><path d="M29.43,26.29c-1.44,1.28-3.11,1.13-4.77,.72-.41-.1-.72-.63-1.08-.96,.33-.36,.62-.96,1.01-1.03,1.32-.23,2.66-.27,4.04-.39-.41-.3-.92-.68-1.44-1.04-.83-.58-1.31-1.31-.97-2.34,.08-.24,.39-.41,.59-.61,.14,.24,.44,.53,.39,.73-.24,.87,.3,1.26,.89,1.63,.9,.57,1.75,1.13,1.78,2.37,0,.22,.39,.41,.48,.65,.2,.54,.53,1.13,.45,1.65-.15,.97-.55,1.91-.87,2.85-.33,.99-.68,1.96-.97,2.82l-3.66-.22c.84-1.16,1.73-1.24,3.41-.59,.09-.11,.24-.21,.29-.35,.07-.17,.06-.38,.08-.59-.16-.04-.27-.1-.38-.09-.91,.05-1.83,.17-2.73,.12-.33-.02-.64-.45-.97-.69,.3-.23,.58-.64,.89-.65,.82-.05,1.71-.09,2.46,.17,1.06,.38,1.18-.05,1.17-.92-1.13,.07-2.22,.21-3.31,.17-.69-.03-1.77,.06-1.74-.95,.01-.35,1.11-.85,1.76-.95,.76-.12,1.57,.1,2.35,.23,.45,.08,.99,.74,1.29-.04,.19-.48,.03-1.09,.03-1.64l-.48-.06Zm-4.76-.61v.45c1.26,.27,2.51,.53,3.67-.23l-.03-.42-3.65,.2Zm3.83,3.23l.02-.37h-3.29v.37h3.27Zm-2.87,1.82l.03,.32h2.62v-.32h-2.65Z"/><path d="M14.4,68.56c.63-1.17,.32-2.42,1.53-3.17,.74-.46,1.26-.57,1.92-.12,.7,.49,.96,1.18,.6,1.98-.31,.68-.7,1.32-1.09,2.04l-.89-.37-2.13,2.51-.43-.08-1.2-3.01-.88,.19c-.18-.85-.45-1.65-.51-2.46-.11-1.42,.94-2.28,2.17-1.87,.84,.28,.97,.78,.41,1.52l.86-.16c-.06,.5-.1,.96-.16,1.41-.06,.47-.12,.94-.2,1.59Z"/><path d="M31.05,76.08l-.4,.88,2.56,2.04-.05,.46-3.02,1.23,.23,.92c-.82,.19-1.58,.41-2.36,.52-.96,.13-1.82-.15-2.03-1.19-.17-.86,.25-1.26,1.12-1.81,1.05-.67,1.87,.25,2.69-.29l-2.39-.65,.6-.88c-.29,.02-.82,.17-.9,.04-.21-.35-.41-.87-.31-1.24,.29-1.08,1.32-1.5,2.37-1.02,.61,.28,1.19,.62,1.89,.99Z"/><path d="M19.32,35.49c-.99-.49-1.9-.88-2.75-1.38-.25-.14-.32-.58-.48-.87,.35-.11,.78-.39,1.05-.28,.73,.28,1.39,.74,2.09,1.1,.31,.16,.79,.46,.93,.36,.26-.21,.34-.66,.36-.71-1.34-.58-2.49-1.02-3.57-1.58-.26-.13-.32-.65-.47-.99,.38-.15,.8-.49,1.12-.41,.91,.23,1.78,.64,2.71,.99-.29-1.05-1.76-2.23-.03-3.36,.11,.07,.24,.14,.24,.15-.66,1.7,1.08,3.1,.6,4.78-.16,.54-.22,1.18-.55,1.58-.66,.79-1.49,1.45-2.15,2.08-.19-.14-.47-.35-.76-.55-.1-.06-.24-.06-.33-.13-.51-.36-1.01-.73-1.49-1.12-.02-.01,.22-.44,.27-.43,.63,.17,1.27,.35,1.87,.62,.46,.2,.8,1.26,1.37,.16Zm.26-2.76l.21-.51-2.39-.98-.18,.41,2.35,1.08Z"/><path d="M48.35,8.68c-.09,.27-.17,.5-.25,.72-.17,.45-.31,.91-.53,1.34-.02,.05-.68-.1-.69-.2-.07-.5-.02-1.01-.01-1.52,0-.08,.04-.15,.08-.3h-.88c-.09,.86-.14,1.66-.29,2.44-.01,.08-.86,.16-.93,.03-.34-.66-.55-1.38-.89-2.28l-1.56,.59c1.08,.45,1.7,1.06,1.57,2.13-.04,.35-.53,.98-.67,.95-.77-.22-1.5-.59-2.35-.96l-.34,4.05c-.62-1-.61-3.76-.15-4.5,1.97-3.17,4.92-3.14,7.88-2.47Z"/><path d="M20.71,90.69c-.07-.72-.13-1.18-.16-1.64-.03-.48,.43-1.14-.48-1.29,.15-.75,.13-1.6,.51-2.19,.2-.31,1.53-.37,1.61-.19,.33,.72,.39,1.57,.51,2.19,.69-.9,1.6-1.27,2.28-.74,.78,.62,.66,1.39,.04,1.95-.52,.46-1,1.52-2.03,.73l-2.28,1.19Z"/><path d="M19.18,73.32c-.23-1.13-.97-2.26,.54-3.07-.09,1.7,.12,3.38-.36,4.83-.37,1.12-1.6,1.96-2.51,2.87-.1,.1-.68-.1-.87-.31-.33-.36-.52-.85-.79-1.32,.99-1.28,1.61,1.02,2.71,.31-.7-.41-1.3-.69-1.8-1.1-.21-.17-.23-.59-.33-.89,.33-.06,.73-.28,.97-.16,.58,.3,1.08,.75,1.74,1.23l.56-.8c-.83-.36-1.57-.6-2.2-1.01-.28-.18-.33-.72-.48-1.09,.43-.1,.88-.34,1.28-.26,.48,.09,.92,.44,1.56,.77Z"/><path d="M18.07,80.73c.41,.11,.84,.18,1.23,.34,1.29,.53,1.53,1.25,.82,2.43-.42,.69-.85,1.39-1.37,2.01-.13,.15-.85,.09-.91-.05-.41-.97-.77-1.96-1.06-2.97-.2-.69,.56-1.61,1.3-1.75Z"/><path d="M97.78,25.52c-.7-.2-1.44-.34-2.1-.64-.26-.12-.35-.6-.51-.92,.35-.11,.71-.35,1.03-.3,.45,.07,.87,.36,1.36,.58-.09-.46-.29-.92-.21-1.33,.06-.33,.45-.6,.68-.88,.08,1.22,.32,2.33,.17,3.37-.12,.78-.6,1.68-1.21,2.14-.42,.31-1.33-.04-2.03-.09l-.03-.41,.74-.51s-.11-.05-.16-.12c-.18-.26-.35-.52-.52-.79,.32-.08,.66-.27,.95-.21,.41,.08,.77,.4,1.18,.5,.24,.06,.54-.08,.81-.13l-.15-.25Z"/><path d="M94.38,15.21l-.43,.28,1.85,2.16c-1.59,.43-2.05-.53-2.69-1.45l-.69,.93c.8,.4,1.5,.69,2.12,1.1,.21,.14,.21,.6,.3,.91-.29,.08-.6,.27-.87,.23-.52-.09-1.02-.32-1.62-.52,.27,.93,1.16,1.75,.28,2.78-.99-2.65-1.63-5.12,1.63-6.58,.04,.05,.08,.11,.12,.16Z"/><path d="M40.73,28.57c-.83,0-1.53-.69-1.48-1.52,.05-.88,.55-1.38,1.43-1.44,.83-.06,1.54,.63,1.55,1.45,.01,.82-.68,1.51-1.5,1.51Z"/><path d="M37.97,29.61c-1.13-.18-1.81-.84-1.78-1.7,.03-.9,.54-1.42,1.41-1.48,1.14-.08,1.48,.83,1.43,1.64-.03,.53-.68,1.03-1.06,1.54Z"/><path d="M37.28,35.96c.19-1.06,.89-1.76,1.73-1.73,.89,.03,1.61,.63,1.4,1.39-.17,.62-.99,1.27-1.66,1.48-.34,.11-.97-.73-1.48-1.13Z"/><path d="M42.39,37.18c-.91-.02-1.75-.81-1.52-1.57,.15-.52,.66-1.14,1.14-1.29,.69-.22,1.88,.86,1.81,1.45-.11,.87-.64,1.34-1.43,1.41Z"/><path d="M39.38,32.91c.01,.59-1.1,1.57-1.86,1.37-.45-.12-.97-.81-1.06-1.31-.15-.87,.47-1.4,1.34-1.5,.82-.1,1.55,.61,1.57,1.44Z"/><path d="M45.11,32.97c0,.81-.75,1.59-1.54,1.45-.4-.07-.74-.52-1.11-.8,.57-.62-.49-2.1,1.13-2.16,.79-.03,1.52,.72,1.52,1.52Z"/><path d="M40.96,39.66c-1.02,0-1.81-.69-1.6-1.5,.14-.54,.75-.95,1.15-1.42,.59,.5,1.49,.91,1.68,1.54,.24,.78-.51,1.32-1.23,1.39Z"/><path d="M42.27,32.65c.02,.86-.63,1.5-1.48,1.52-1.58,.02-.82-1.33-1.12-2.03-.06-.14,.64-.81,1.06-.9,.8-.18,1.52,.57,1.54,1.41Z"/><path d="M22.79,18.48c-.58-.18-1.32,.82-1.7-.19-.04-.1,.95-.69,1.52-.9,1.93-.69,3.55-1.77,4.78-3.42,.17-.23,.37-.45,.64-.61-.83,1.95-2.22,3.38-4.06,4.42-.41,.23-.8,.48-1.2,.72l.03-.02Z"/><path d="M42.99,30.9c-.23-.85-.03-1.66,.89-1.84,.53-.11,1.35,.18,1.72,.59,.58,.64,.3,1.4-.34,1.97l-2.27-.71Z"/><path d="M40.89,24.71c-.06-2.61-1.11-4.22-3.37-4.97-.24-.08-.37-.5-.55-.77,.28-.15,.59-.46,.84-.41,2.17,.39,3.96,3.74,3.08,6.15Z"/><path d="M76.46,36.24c-.34-.53-.97-1.09-.92-1.58,.04-.46,.75-1.13,1.25-1.23,.8-.16,1.42,.5,1.3,1.29-.09,.55-.67,1.03-1.04,1.54l-.59-.02Z"/><path d="M75.54,40.96c.34,.5,1.06,1.15,.94,1.46-.23,.57-.96,.94-1.48,1.39-.37-.45-1.06-.91-1.03-1.33,.04-.53,.65-1.03,1.02-1.54l.55,.03Z"/><path d="M74.37,36.86c-1.21-.14-1.83-.63-1.62-1.44,.13-.51,.78-1.16,1.29-1.24,.99-.17,1.28,.79,1.23,1.51-.03,.46-.66,.88-.9,1.17Z"/><path d="M75.02,44.83c.72-.66,1.25-1.4,1.49-1.32,.63,.21,1.14,.79,1.7,1.23-.43,.44-.84,1.21-1.3,1.25-.5,.04-1.05-.61-1.89-1.15Z"/><path d="M72.4,39.94c.83-.57,1.32-1.15,1.88-1.23,.79-.1,1.32,.51,1.3,1.34-.02,1.07-1.12,.79-1.69,1.14-.14,.08-.76-.63-1.49-1.25Z"/><path d="M77.95,44c-.35-.53-.92-1.03-.99-1.59-.04-.36,.84-1.21,.98-1.15,.6,.28,1.75,.17,1.58,1.24-.08,.53-.66,.99-1.01,1.48h-.56Z"/><path d="M77.24,41.1c-1.78-.03-1.3-1.14-1.37-1.79-.03-.25,.88-.92,1.05-.82,.51,.28,1.2,.84,1.21,1.3,0,.5-.67,1.01-.89,1.31Z"/><path d="M36.02,31.92c-.74-.47-1-1.15-.58-1.92,.16-.3,.89-.65,.94-.6,.53,.57,2.11-.06,1.81,1.41l-2.17,1.11Z"/><path d="M54.14,25.85c-1.26-2.3-3.12-3.86-5.63-4.67-.21-.07-.32-.43-.47-.66,.27-.07,.59-.26,.8-.18,2.6,1.03,4.41,2.83,5.3,5.52Z"/><path d="M78.53,39.99c-.15-.81,.01-1.39,.9-1.31,.82,.07,1.31,.57,1.26,1.42-.06,.85-.58,1.28-1.43,1.23-.98-.06-1.06-.64-.73-1.34Z"/><path d="M80.68,38.98c-.25-1.05-2.62,.15-1.76-1.91,.3-.72,1.32-.89,1.95-.43,.7,.51,.69,1.27-.2,2.34Z"/><path d="M74.6,27.1c1.71,1.18,2.79,2.69,2.46,4.94-.09-.26-.2-.51-.26-.77-.31-1.43-1.14-2.41-2.5-2.99-.34-.14-.59-.52-.89-.79,.4-.12,.81-.25,1.21-.37l-.03-.03Z"/><path d="M42.13,31.3c-.55-.5-1.08-.83-1.37-1.3-.13-.21,.21-1.03,.4-1.04,.71-.07,1.19-1.58,2.07-.4l-1.09,2.74Z"/><path d="M11.73,59.03c-.86-.98,.43-1.73,.28-2.63l1.9-.14,.24,1.1-1.35,.18,.15,.77-.48,.73-.74-.02Z"/><path d="M51.12,18c-.16-.74,.18-.91,.86-.81,2.27,.33,4.36-.17,6.31-1.58-1.21,1.97-4.87,2.82-7.2,2.36l.03,.03Z"/><path d="M14.09,60.44c.25,.83,.03,1.31-.93,1.29-.22,0-.44,.18-.67,.2-.44,.04-1.06,.2-1.28-.01-.43-.43-.26-.94,.4-1.15,.45-.25,.9-.51,1.35-.76h.7l.43,.44Z"/><path d="M72.56,39.08c-.69-.42-.89-1.06-.5-1.79,.13-.25,.74-.55,.79-.5,.49,.52,1.89,0,1.67,1.3l-1.96,.98Z"/><path d="M16.05,57.18c.37,.12,.82,.17,1.08,.41,.12,.11-.12,.61-.19,.93-.06,.27-.06,.55-.16,.8-.11,.28-.24,.62-.46,.74-.15,.08-.48-.19-.73-.31l.02,.02-.51-1.93,.95-.67Z"/><path d="M42.78,26.46c.73-.32,1.44-.19,1.85,.58,.19,.35,.12,.89,.03,1.31-.02,.1-.74,.22-.92,.07-.58-.47-1.6-.79-.96-1.96Z"/><path d="M79.04,36.04l-.91,2.34c-.44-.3-.95-.53-1.26-.92-.15-.18,.08-.98,.15-.98,.7-.03,1.14-1.42,2.02-.44Z"/><path d="M11.83,31.77l1.52-.25,.49,.48c-.01,1.57-.49,1.91-1.8,1.27l.03,.03c-.09-.5-.17-1-.26-1.5v-.02Z"/><path d="M39.54,28.61c.64,.42,1.14,1.82,.72,2.11-.37,.25-1.01,.4-1.38,.25-.25-.11-.42-.87-.31-1.25,.11-.4,.6-.71,.97-1.1Z"/><path d="M11.91,28.64c-.06-.27-.26-.65-.15-.79,.3-.39,.75-.96,1.09-.94,.37,.03,.68,.67,1.02,1.04-.38,.34-.73,.73-1.16,.98-.15,.09-.51-.15-.77-.25l-.04-.05Z"/><path d="M104.45,24.7c.51,.77,1,1.2,1.03,1.66,.02,.3-.68,.93-.97,.89-.4-.07-.96-.6-1.01-.99-.05-.36,.47-.81,.95-1.56Z"/><path d="M108.02,25.24c-.74,.46-1.2,.96-1.56,.9-.39-.07-.7-.66-1.04-1.02,.37-.34,.73-.91,1.12-.94,.36-.03,.77,.53,1.47,1.06Z"/><path d="M16.03,29.45c-.71,.47-1.15,1-1.53,.96-.39-.05-.71-.65-1.06-1.01,.37-.36,.72-.95,1.13-.99,.36-.04,.78,.53,1.46,1.05Z"/><path d="M16.05,57.18l-.95,.67-.94-.48-.24-1.1c.18-.07,.36-.13,.54-.22,1.29-.61,1.7-.33,1.59,1.13Z"/><path d="M12.07,33.29l-.03-.03c.39,.75,.37,1.48-.51,1.73-1.16,.33-1.13-.77-1.44-1.43l-.03,.03c.59-.58,1.21-.98,2-.3Z"/><path d="M11.83,31.77v.02c-.43,.23-.92,.74-1.23,.64-.89-.27-.7-1.05-.48-1.75l-.03,.03c.54,0,1.1-.05,1.62,.06,.11,.02,.09,.65,.12,1Z"/><path d="M107.33,32.14c-.52,.4-1.12,.59-1.51-.05-.19-.32-.2-.99,.01-1.25,.22-.27,.87-.42,1.22-.3,.68,.22,.74,.83,.43,1.45-.05,.06-.1,.11-.16,.16Z"/><path d="M106.53,29.23c-.34,.47-.64,.98-1.04,1.39-.1,.11-.76-.07-.78-.19-.1-.54-.06-1.1-.07-1.65l-.03,.03c.75-.3,1.4-.16,1.94,.45l-.02-.03Z"/><path d="M107.33,32.14c.06-.05,.11-.1,.16-.16,.3,.05,.6,.09,.9,.14,.59,.11,1.19,.34,.85,1.05-.17,.35-.86,.79-1.13,.69-.38-.14-.63-.72-.87-1.15-.07-.13,.06-.38,.09-.57Z"/><path d="M10.1,33.57c-.2,.12-.4,.27-.61,.35-.76,.29-1.31-.03-1.43-.76-.05-.3,.35-.94,.63-.99,.6-.11,1.44-.25,1.44,.84,0,.2-.03,.4-.05,.59l.03-.03Z"/><path d="M10.5,35.22c-.39,.3-.8,.85-1.17,.82-.4-.03-1.01-.54-1.09-.94-.19-.89,.62-.87,1.19-.83,.36,.03,.69,.31,1.04,.48l.03,.47Z"/><path d="M106.55,29.26c.11-.37,.22-1.06,.32-1.06,.53,.01,1.05,.2,1.58,.33l-.02-.03c0,.31,.1,.69-.04,.92-.19,.3-.63,.72-.84,.66-.39-.12-.68-.54-1.02-.84l.02,.03Z"/><path d="M108.86,29.57c.53,.7,1.09,1.12,1.05,1.48-.03,.33-.75,.87-1.09,.82-.35-.05-.74-.67-.87-1.11-.06-.22,.43-.6,.9-1.19Z"/><path d="M86.35,28.76l-5.38-1.29c1.31-.84,3.95-.1,5.38,1.29Z"/><path d="M10.11,30.68c-.11,.1-.23,.2-.33,.31-.29,.29-.57,.58-.86,.87-.3-.37-.76-.7-.84-1.11-.05-.26,.46-.92,.69-.9,.44,.03,.87,.4,1.29,.64,.04,.02,.02,.15,.03,.23l.03-.03Z"/><path d="M80.94,35.19c-.54,.45-.91,.84-.98,.8-.53-.37-1-.82-1.48-1.24,.24-.23,.59-.71,.7-.66,.54,.24,1.02,.62,1.76,1.1Z"/><path d="M108.46,28.52c.23-.74,.82-.96,1.39-.6,.32,.2,.6,.89,.51,1.26-.2,.77-.86,.81-1.46,.55-.17-.46-.31-.84-.46-1.23l.02,.03Z"/><path d="M10.51,28.49l-.26,1.2c-.36-.07-.63-.09-.87-.18-.36-.13-.86-.24-.98-.5-.1-.22,.17-.85,.42-.95,.37-.14,.86,0,1.29,.07,.16,.03,.28,.25,.42,.39l-.02-.03Z"/><path d="M106.21,22.93c-.61-1.25-1.45-2.17-2.94-2.32-.21-.02-.4-.37-.59-.56,.26-.11,.54-.33,.78-.3,1.38,.17,2.57,1.53,2.75,3.18Z"/><path d="M13.58,25.69c.59-1.5,1.68-2.33,3.26-2.39,.29-.01,.6,.31,.9,.48-.29,.13-.59,.39-.86,.36-1.43-.14-2.41,.57-3.31,1.55Z"/><path d="M78.11,24.55l4.75-2.25c-.54,1.34-3.53,2.94-4.75,2.25Z"/><path d="M108.48,26.38c.55-.4,1.17-.87,1.76-.22,.28,.31,.24,.91,.41,1.69-1.05-.53-2.46,.24-2.15-1.5l-.02,.03Z"/><path d="M120.7,28.07c-.21-.63-.41-1.32,.43-1.59,.86-.28,1.09,.39,1.24,1.06l-.44,.82-.16,.25-1.06-.53Z"/><path d="M74.47,37.38l1.41-1.2c.2,.46,.55,.93,.55,1.39,0,.27-.56,.73-.88,.75-.28,.01-.58-.48-1.08-.95Z"/><path d="M13.85,32l-.49-.48c.14-.3,.31-.88,.4-.87,.51,.06,1.04,.21,1.47,.48,.1,.07-.09,.83-.34,1.09-.14,.14-.68-.13-1.04-.21Z"/><path d="M121.4,33.28c-.03,.31,.03,.68-.13,.9-.18,.24-.56,.49-.84,.46-.27-.02-.73-.4-.72-.59,.03-.34,.35-.66,.54-.98l.2-.19h.5l.44,.39Z"/><path d="M104.64,28.78c-.4,.22-.83,.88-1.2,.08-.16-.35,.03-.86,.06-1.3l1.67,.18c-.18,.35-.37,.71-.55,1.06l.03-.03Z"/><path d="M118.59,29.75l-.3-1.31,1.47-.13v1.44h-1.17Z"/><path d="M119.76,29.76v-1.44c.13-.78,.53-.53,.94-.25l1.06,.53-.41,.92-1.36,.27-.24-.03Z"/><path d="M120,29.79l1.36-.27c.54,1.29,.29,1.86-.88,1.92l.03,.03-.52-.62,.02-1.05Z"/><path d="M121.93,28.36l.44-.82,1.44-.09-.02,1.17c-.48-.05-.95-.1-1.43-.15-.14-.02-.28-.07-.42-.1Z"/><path d="M11.91,28.64l.04,.05c.09,.29,.18,.58,.26,.87l.03-.03-1.56,.67c-.07-.77-.12-1.24-.16-1.71l.02,.03c.58-1.35,.92,.04,1.38,.12Z"/><path d="M120.46,32.89l-.2,.19c-.71,.12-1.41-.08-1.27-.85,.06-.33,.98-.51,1.51-.76l-.03-.03c0,.48-.01,.97-.02,1.45Z"/><path d="M123.39,30.26c.02,.73,.45,1.74-1.01,1.41l.03,.02-.66-.96c.42-.22,.84-.45,1.25-.67l.39,.2Z"/><path d="M12.97,60c-.45,.25-.9,.51-1.35,.76-.62-.62-.79-1.22,.12-1.73,.25,0,.5,.01,.74,.02,.16,.32,.32,.63,.49,.95Z"/><path d="M120,29.79l-.02,1.05c-.38,.16-.84,.54-1.11,.43-.75-.29-.49-.95-.28-1.52h1.17l.24,.04Z"/><path d="M108.51,26.35l-.46,1.49-1.23-.87,1.16-1.31c.17,.24,.33,.48,.5,.73l.03-.03Z"/><path d="M121.4,33.28l-.44-.4c-.22-1.25,.54-1.32,1.45-1.19l-.03-.02c.46,1.32,.27,1.63-.98,1.62Z"/><path d="M94.26,15.05c.64-.34,1.27-.59,1.73,.27,0,.06,0,.12-.02,.18l.18,1.2-.34,.2-1.44-1.68c-.04-.05-.08-.11-.12-.16Z"/><path d="M20.69,44.64l1.8-3.92c.47,1.17-.4,2.95-1.8,3.92Z"/><path d="M14.09,60.44c-.14-.15-.28-.29-.43-.44,.14-.23,.29-.46,.43-.69l1.51,.46-.02-.02c-.26,1.24-.51,1.35-1.49,.69Z"/><path d="M124.18,22.83l-2.63,1.98c-.02-1.29,1.46-2.57,2.63-1.98Z"/><path d="M10.81,26.21l.88,.81c-.43,.27-.83,.59-1.29,.79-.09,.04-.57-.5-.54-.55,.24-.35,.57-.65,.95-1.05Z"/><path d="M19.5,54.04l-3.08,.62c.72-1.13,2.07-1.5,3.08-.62Z"/><path d="M109.94,25.12c-.6,.3-.94,.59-1.07,.51-.41-.23-.74-.59-1.1-.91,.22-.17,.51-.53,.66-.48,.43,.14,.8,.44,1.51,.87Z"/><path d="M106.39,26.42c.08,.51,.18,1.02,.19,1.54,0,.04-.6,.1-.92,.14v-1.64l.73-.04Z"/><path d="M134.85,24.63c-1.44,.69-2.72,.78-4.01,.34l-.02-.34h4.02Z"/><path d="M12.21,29.56h.96c-.03,.39,.01,.81-.12,1.17-.04,.12-.5,.1-.78,.14-.02-.37-.05-.73-.07-1.1,0-.08,.02-.16,.03-.23l-.03,.03Z"/><path d="M123.39,30.26l-.39-.2-.27-.78c.45-.06,.9-.17,1.34-.14,.09,0,.29,.65,.18,.81-.15,.2-.57,.21-.87,.31Z"/><path d="M25.85,78.04c-1.25-.33-2.29-1.35-2.45-2.7l2.45,2.7Z"/><path d="M15.53,63.97c.48-1.32,1.49-2.22,2.69-2.24l-2.69,2.24Z"/><path d="M110.13,17.86l2.98,1.44-.13,.28-3.04-1.23,.19-.5Z"/><path d="M95.97,15.49c.01-.06,.02-.12,.02-.18,.06,.01,.12,.03,.17,.04l-.19,.14Z"/><path class="cls-1" d="M75.36,17.68c.6,.5,1.4,.89,1.74,1.52,.52,.97,.35,2.19-.55,2.82-1.07,.75-2.39,1.17-3.62,1.68-.16,.07-.59-.13-.65-.29-.53-1.33-.42-2.65,.26-3.91,.55-1.03,1.43-1.58,2.82-1.83Z"/><path class="cls-1" d="M22.52,72.74c.92-1.12,2.03-1.39,3.28-1.19,.97,.16,1.63,.72,1.54,1.77-.1,1.08-.97,1.29-1.84,1.27-1.3-.03-2.16-.85-2.98-1.85Z"/><path class="cls-1" d="M99.35,21.59c1.82-.37,2.8-.06,2.97,.94,.08,.52-.21,1.19-.54,1.63-.11,.14-1.09-.11-1.35-.43-.47-.59-.7-1.37-1.07-2.14Z"/><path class="cls-1" d="M125.56,22.58c-.17-.24-.68-.64-.73-1.09-.1-.84,.41-1.56,1.29-1.45,.46,.05,1.15,.67,1.22,1.11,.13,.82-.42,1.39-1.77,1.43Z"/><path class="cls-1" d="M64.72,30.38l3.28-.14,.02,.53h-3.27l-.02-.39Z"/><path class="cls-1" d="M65.21,33.03h3.03v.35h-3.02v-.35Z"/><path class="cls-1" d="M24.67,25.69l3.65-.2,.03,.42c-1.17,.76-2.42,.5-3.67,.23v-.45Z"/><path class="cls-1" d="M28.5,28.92h-3.27v-.37h3.29l-.02,.37Z"/><path class="cls-1" d="M25.63,30.74h2.64v.32h-2.61l-.03-.32Z"/><path class="cls-1" d="M19.58,32.73l-2.35-1.08,.18-.41,2.39,.98-.21,.51Z"/><path class="cls-1" d="M15.61,59.78c-.5-.15-1.01-.31-1.51-.46,.41-1.24-.4-1.08-1.14-.99l-.15-.77,1.35-.18,.94,.48,.51,1.93Z"/><path d="M12.96,58.32c.74-.08,1.55-.25,1.14,.99-.14,.23-.29,.46-.43,.69h-.7c-.16-.32-.32-.63-.49-.95l.48-.73Z"/></svg>