<?xml version="1.0" encoding="UTF-8"?><svg id="Layer_1" xmlns="http://www.w3.org/2000/svg" viewBox="0 0 99.6 93.84"><defs><style>.cls-1{fill:none;}</style></defs><path class="cls-1" d="M99.6,88.8v5.04h-23.04c.8-.89,.62-1.69-.25-2.41,.76,.43,1.56,.98,2.08-.25,.36-.85-.28-1.28-.88-1.67,1.57,.42,1.85,.16,1.74-1.64,.32-.31,.94-.72,.88-.92-.13-.47-.6-.85-.94-1.27,.41-.74,.53-1.52-.34-1.92-.36-.17-.98,.11-1.43,.3-.2,.08-.28,.44-.42,.68-.13-.54-.15-1.15-.44-1.57-.14-.21-.93-.26-1.16-.07-.33,.27-.45,.83-.6,1.28-.06,.17,.05,.39,.09,.58l-.97,.7c-.3-.06-.72-.29-.89-.16-.42,.31-.93,.73-1.05,1.19-.15,.58,.23,1.06,.98,.93-.08,.57-.41,1.32-.16,1.66,.26,.36,1.06,.34,1.62,.48-.3,.39-.84,.79-.84,1.18,0,.33,.58,.72,.96,.99,.19,.13,.53,.03,.81,.04-1.17,.5-.52,1.21-.21,1.88H0V0C33.19,0,66.4,0,99.6,0V88.56c-.42-.54-.77-1.16-1.28-1.6-1.18-1.04-2.44-1.99-3.59-2.92l1.28-1.68c-1.66-.93-3.07-1.82-4.57-2.52-1.37-.64-3.05-.02-3.99,1.27-.89,1.22-.83,1.61,.49,3.25l1.91-.85,.04,.11-2.19,1.69,5.45,1.91-.06,.18-5.62-1.25,.83,2.65-.12,.06-1.4-2.22c-.73,.49-1.69,.79-2.04,1.42-1.49,2.7,.51,4.25,2.81,4.46,1.77,.17,3.6-.2,5.52-.34l-.4-1.85c1.54-.25,3.01-.45,4.47-.75,.83-.17,1.63-.52,2.45-.79Zm-10.56-24.47l.24-.05c1.13-.07,1.01-.69,.55-1.36-.9-1.32-1.8-2.63-2.79-3.88-.28-.36-.84-.62-1.3-.7-1.23-.2-2.48-.57-3.71,.11-.18,.1-.51-.09-.78-.14-.34-.06-.67-.13-1.01-.19,.18,.36,.27,.88,.56,1.04,.41,.22,.97,.24,1.46,.2,.48-.04,.95-.27,1.41-.41-.56,.88-1.15,1.68-1.57,2.57-.16,.34,.07,.88,.12,1.33,.47-.1,1.13-.03,1.37-.32,.82-1.01,1.5-2.14,2.34-3.39,.09,.09,.47,.31,.6,.63,.06,.15-.35,.51-.57,.75-.49,.57-1.08,1.07-1.46,1.71-.22,.37-.09,.94-.11,1.43,.44-.13,.89-.24,1.33-.39,.18-.07,.32-.24,.4-.3v1.36l1.45-.43-.07,1.38,1.32-.95,.16,.19,.09-.18h-.01Zm-42.94,21.49c.11-.7,0-1.35-.84-1.36-.93-.02-.99,.69-.9,1.42l-.39-.02-.24-.98-.96,.71,.85,.62c-1.53,.4-1.53,.4-.98,2.02,.23,.66,.64,1.29,.71,1.96,.1,1,.61,1.18,1.44,1.06l-.33,1.15,1.16,.26,.28-1.42c.64,.14,1.04-.05,1.27-.72,.27-.82,.59-1.64,1.02-2.39,.47-.83,.47-1.34-.59-1.51,.47-.57,.58-1.17-.14-1.56-.77-.43-1.11,.14-1.36,.77Zm43.66-17.42c-.25-.38-.42-.91-.78-1.1-.29-.16-.82,.03-1.2,.16-.12,.04-.24,.53-.17,.58,.31,.25,.67,.53,1.04,.58,.36,.06,.76-.15,1.14-.24l-.75,.86c-.76-.97-1.06-.15-1.43,.37,.16-.88,.08-1.66-1-1.79-.82-.09-1.26,.4-1.3,1.2-.01,.27,.1,.55,.16,.82-.52,.08-1.13,.02-1.52,.29-.23,.16-.29,1.07-.09,1.23,.42,.35,1.07,.43,1.62,.63-.14,.06-.3,.1-.42,.19-.29,.24-.83,.58-.79,.74,.12,.43,.5,.79,.78,1.19l.9-.69c.24,.56,.44,1.15,.78,1.65,.05,.08,.74-.27,1.14-.43-.13,.78-.13,1.51,.78,1.83,.81,.29,1.09-.31,1.38-.87,0,.2-.11,.47-.01,.58,.34,.42,.69,.97,1.14,1.11,.3,.09,.94-.37,1.14-.74,.32-.6,.07-1.16-.67-1.36,.1-.12,.27-.23,.3-.36,.11-.5,.33-1.05,.2-1.49-.06-.22-.77-.32-1.2-.36-.29-.03-.6,.14-.9,.22l.02-1.17c.34,.24,.69,.68,1.03,.68,.3,0,.83-.48,.85-.77,.04-.43-.26-.9-.48-1.32-.1-.18-.38-.25-.59-.38,.74-.11,.84-.69,.47-1.08-.36-.39-1.02-.51-1.54-.75Zm.18-31.01c-2.44-.54-.97,1.3-1.21,2.06-.25,.78,.03,1.32,.99,1.18,.62,.76,1.21,1.55,1.89,2.25,.09,.1,.63-.24,.96-.38-.08,.7,.05,1.38,.88,1.37,.8,0,1.04-.59,.83-1.35-.04-.14-.05-.3-.01-.44,.43-1.56,.41-1.59-1.14-1.57l.02-.82c.22,.23,.41,.59,.67,.65,.21,.05,.6-.21,.74-.43,.45-.75-.34-2.69-1.18-3.01-.07-.99-.58-1.23-1.45-.87-.2,.08-.44,.17-.63,.13-1.09-.26-1.35,.35-1.36,1.24ZM21.61,73.17c.48,2.36,2.08,4.11,3.78,3.84-1.83-.76-2.98-2.13-3.8-3.82l-.52-1.92c.55,.59,.53,1.35,1.44,1.86,.75,.42,1.23,.88,2.02,.38,.89-.56,1.25-1.35,.78-2.35-.36-.74-.83-1.43-1.27-2.18l-.97,.37-2.48-2.54-.44,.15-1.16,3.22h-1.09c-.07,1.15-.23,2.25-.16,3.33,.05,.84,.7,1.36,1.55,1.38,.84,.01,1.58-.22,1.7-1.28,.02-.16,.4-.29,.62-.43ZM84.96,27.32c-1.39,0-2.59-.21-3.67,.06-1.18,.29-1.78,1.57-1.68,2.75,.09,1.12,.72,1.86,1.76,2.19,.96,.3,1.75-.09,2.26-.91,.46-.72,.38-1.46-.26-2.07-.59-.57-1.59-.51-2.01,.13-.47,.72-.19,1.23,.27,1.52l.12-1.46c.46,.05,1.28,0,1.32,.17,.15,.53,.12,1.17-.06,1.7-.08,.24-.66,.43-1.02,.45-1.36,.08-2.23-1.45-1.6-2.75,.46-.96,1.53-1.5,2.59-1.32,1.2,.21,2.15,1.07,2.15,2.23,0,1.87-.04,3.76-.25,5.62-.43,3.91-2.47,7.22-4.11,10.68,.04-1.9-.28-3.64-1.64-5.25,.33,1.32,.68,2.42,.87,3.54,.18,1.07-.21,2.12,.16,3.3,.27,.88-.62,2.11-.95,3.07-.89-.71-1.64-1.53-2.57-2.01-2.38-1.23-5.28,.24-5.78,2.81-.39,2.06,1.41,4.04,3.42,3.71,1.08-.17,1.83-.81,2.08-1.89,.22-.96-.06-1.89-.96-2.22-.59-.22-1.48-.09-2.04,.23-.35,.19-.34,1.03-.47,1.52,.46-.61,.76-1.36,1.26-1.53,.4-.14,1.2,.29,1.54,.71,.56,.68,.29,1.48-.34,2.02-.34,.29-.82,.52-1.27,.57-1.61,.17-2.89-1.55-2.42-3.17,.58-1.99,2.92-2.88,4.77-1.82,1.65,.94,2.31,2.63,1.87,4.89-1.47,7.61-.44,14.79,3.61,21.47,.09,.15,.14,.31,.31,.67-.53-.29-.85-.46-1.16-.63-3.71-2.01-7.65-3.36-11.88-3.39-2.98-.02-5.97,.32-8.94,.64-2.16,.23-4.19-.99-4.67-3.04-.32-1.35,.42-2.88,1.69-3.52,1.09-.55,2.41-.31,3.17,.6,.66,.79,.74,1.68,.24,2.56-.46,.79-1.21,1.05-2.07,.79-.8-.24-1.23-.9-.94-1.67,.15-.39,.89-.91,1.17-.82,.44,.15,.71,.77,1.22,1.39-.22-.62-.26-1.32-.6-1.54-.4-.25-1.27-.28-1.57-.01-.42,.38-.84,1.32-.64,1.7,.33,.65,1.07,1.32,1.77,1.5,1.08,.28,1.9-.46,2.37-1.43,.53-1.1,.23-2.11-.53-3-.85-1-2.25-1.36-3.49-.95-2.94,.98-3.69,4.76-1.38,7.06,.36,.36,.77,.66,1.31,1.12-3.66,1.35-7.08,1.18-10.68-.46,1.72,1.63,3.62,2.09,6.01,2.06-3.75,1.63-6.99,3.65-10.8,4.08-1.9,.22-3.83,.34-5.73,.28-1.51-.04-2.52-1.64-2.2-3.12,.27-1.27,1.48-2.07,2.7-1.76,.89,.23,1.46,.85,1.3,1.73-.09,.51-.59,1.12-1.07,1.34-.29,.13-.97-.31-1.29-.66-.14-.15,.13-1.01,.32-1.06,.39-.09,.87,.16,1.3,.26-.06-.67-.73-.92-1.3-.59-.41,.24-.78,1.03-.71,1.51,.16,1.02,1.58,1.49,2.39,.76,.47-.42,.96-1.26,.85-1.79-.14-.71-.71-1.51-1.33-1.93-.96-.65-2.02-.31-2.87,.44-.94,.83-1.32,1.9-1,3.14,.12,.47,.36,.92,.66,1.68-1.88-.66-3.5-1.23-5.24-1.83,.36-.55,.57-.84,.74-1.15,.69-1.24,.74-2.53,.15-3.8-.45-.97-1.29-1.4-2.36-1.3-1.07,.1-1.58,.81-1.82,1.8-.32,1.34,.17,2.43,1,3.42,.32,.39,.67,.76,1,1.13-1.6,1.38-3.66,1.74-7.61,1.31l1.42,.61-.88,2.22c.85-.83,1.45-1.83,2.28-2.11,1.54-.53,3.23-.65,5.1-.98-.24,.44-.53,.88-.73,1.35-.49,1.13-1.32,2.28-1.32,3.43,0,1.49,.67,2.97,1.04,4.46,.22,.88,.78,.75,1.39,.48l-1.07-.46,1.73-.47-.03-.5-2.23-.25,2.61-.48-.04-.7-2.52-.26c.2-.24,.42-.31,.63-.32,.47-.02,.96,.06,1.41-.05,.29-.07,.52-.4,.78-.61-.25-.26-.49-.72-.76-.75-.72-.08-1.46,.03-2.3,.07v-.64c.99,0,1.87,.06,2.73-.04,.29-.03,.79-.53,.75-.73-.06-.35-.42-.79-.75-.91-.57-.2-1.21-.18-1.75-.24l1.44-2.46c1.38,.46,2.85,1.11,4.4,1.44,5.74,1.22,11.24,.47,16.58-2.03,6.53-3.06,13.35-4.92,20.67-3.94,2.74,.36,5.36,1.13,7.89,2.41-2.33,1.46-3.05,2.9-2.39,4.83-.11-2.48,1.78-3.27,3.57-4.28,.77,.48,1.57,1.12,2.48,1.5,1.08,.46,2.24,.86,3.4,1,1.43,.17,1.78-.46,1.05-1.69-.47-.79-1.01-1.54-1.55-2.28-4.4-6.16-5.96-12.98-4.86-20.46,.7-4.72,2.37-9.1,4.28-13.43,2.74-6.24,3.14-12.61,.45-18.97-.5-1.19-.78-2.05-.1-3.26,.49-.86,.56-1.98,.71-3,.1-.73,.02-1.49,.02-2.43l1.95,.41,.09-.35-2.56-.78c.43,2.62,.18,4.97-1.28,7.18-.51-.45-.91-.83-1.34-1.19-.94-.78-2-1.19-3.23-.93-.95,.2-1.74,.68-1.88,1.76-.13,1.06,.28,1.91,1.24,2.39,.48,.24,1.09,.48,1.59,.41,1.11-.17,2.18-.53,3.55-.89l1.56,4.46Zm-14.31,37.99l.62,.42,1.79-2.29,.14,.08-1.4,2.19c.57,.42,1.13,1.14,1.78,1.23,1.81,.24,4.63-1.66,3.73-4.27-.55-1.59-1.43-3.06-2.24-4.75l-2.15,1.09c-1-2.14-2.1-4.24-4.42-5.27-1.61,1.78-2.49,3.9-2.43,6.4l-2.23-.82c-.4,1.39-.84,2.58-1.08,3.82-.27,1.4-.28,2.85,.57,4.07,.77,1.11,1.94,1.37,3.29,1.21,1.4-.17,1.94-1.04,2.16-2.22l-2.42-1.94,.09-.07,3.26,1.65c-.25-2.55-.46-4.66-.67-6.78,.39,1.03,.55,2.09,.79,3.14,.24,1.04,.55,2.07,.82,3.1Zm-24.28,8.62l-2.45-2.58,.12-.1,2.76,2.08,.41-2.08,.18,1.51c1.36,.54,2.07-.1,2.54-1.17,.49-1.12,.22-2.31-.82-2.94-1.01-.61-2.11-1.05-3.27-1.61l-.79,1.47c-1.55-.62-3.01-1.51-5.07-.83l1.36,4.62-1.22,.47c.37,.95,.69,1.81,1.05,2.64,.14,.32,.35,.62,.56,.91,.87,1.2,2.26,1.57,3.33,.89,1.19-.76,1.4-1.51,.72-2.85h-2.33l2.9-.45Zm31.89-33.29l-2.77-3.43,.07-.08,3.17,3.02,.65-2.17v1.75c1.14,.84,1.94,.25,2.59-.59,.64-.83,.82-1.93,0-2.61-1.23-1.04-2.68-1.83-4.19-2.82l-.69,1.79c-1.44-.98-2.94-1.56-4.98-1.23,.37,1.61,.73,3.16,1.1,4.77l-1.28,.74c.61,1.21,1.09,2.35,1.75,3.38,.61,.95,1.91,1.11,3.01,.56,1.06-.53,1.42-1.32,.92-2.46l-1.19-.1,1.83-.53Zm-20.19,44.88l1.12,.85c.82-1.14,1.66-2.15,2.31-3.27,.54-.94,.23-1.93-.56-2.59-.46-.38-1.36-.82-1.73-.62-1.26,.66-2.71,1.28-2.99,2.99-.04,.26-.23,.49-.35,.73,.05-.58,.21-1.11,.39-1.63,.19-.55,.39-1.09,.62-1.74h-1.43c.87-.5,1.07-1.39,.54-1.95-.94-1.01-2.78-.75-3.52,.45-1,1.63-.47,3.37-.57,5.18l1.63-.22c-.3,1.68-.27,3.28,.87,5.08l3.68-3.24Zm27.88-33.34c-.94,.13-1.46,.88-1.25,1.63,.38,1.41,2.18,2.26,3.45,1.51,1.07-.64,2.03-1.46,3.09-2.24l-.91-1.25c1.18-1.13,2.69-1.95,3-4.07l-4.66-.72,.1-1.23c-1.36,0-2.64-.13-3.89,.03-1.96,.25-2.87,2-1.99,3.58,.54,.98,1.42,1.05,2.22,.16l.08,1.12,3.64-1.19,.03,.11-3.49,1.67,.6,.88Zm-50.52,33.56c.29-.32,.72-.83,1.18-1.32,.71-.75,.49-1.46-.09-2.12-.58-.66-1.33-.9-2.14-.45-.73,.4-1.41,.87-2.15,1.34l.41,.96-2.51,2.5,.13,.47,3.29,1.04-.07,1.16c1.3,0,2.53,.14,3.69-.07,.42-.08,.87-.97,.97-1.54,.07-.41-.31-1.12-.7-1.33-.67-.38-1.49-.48-2.02-.63ZM73.84,17.95c.87,.48,1.66,1.04,2.54,1.38,.93,.36,1.69-.17,2.04-.99,.19-.44-.01-1.07-.12-1.6-.02-.11-.43-.13-.66-.2,.76-1.32-.91-.77-1.02-1.21,.6-.17,1.19-.43,1.8-.48,.89-.08,1.27-.55,1.33-1.37,.06-.89-.26-1.69-1.19-1.79-1.15-.12-2.32,.03-3.56,.07l.09,1.12-3.3,1.23-.07,.47,2.56,2.38-.44,.98Zm17.42,7.4l.12,.06c-.09,.43-.22,.85-.26,1.28-.1,1.06,.63,2.54,1.82,2.56,1.06,.02,1.93-.86,1.88-2.15-.03-.86-.23-1.71-.35-2.61l-1,.05-1.08-3.32-.48-.12-2.47,2.55-.95-.42c-.45,.68-.89,1.29-1.26,1.95-.66,1.17-.1,2.47,1.19,2.83,.87,.24,1.28-.22,1.42-.97l.69,.29,.72-1.97Zm-25.35,52.89c.4-.3,.89-.5,1.11-.86,.33-.53,.52-1.16,.67-1.78,.04-.14-.3-.37-.47-.56-.16,.19-.34,.36-.47,.57-.28,.46-.41,1.14-.81,1.38-1.27,.75-1.41,2.16-2.1,3.24-.13,.21,0,.62,.09,.92,.32,1.11,.73,2.19,1.01,3.31,.5,1.97,1.09,2.37,2.82,1.62l-2.05-.3c.82-.6,1.93,.2,2.74-1.18l-3.06-.16,.03-.29c.77,0,1.54,.06,2.29-.03,.33-.04,.63-.37,.94-.57-.32-.25-.62-.67-.96-.71-.61-.06-1.25,.13-1.88,.16-.24,.01-.48-.15-.72-.23l.11-.35c1.06,0,2.13,.04,3.19-.03,.27-.02,.51-.41,.76-.63-.25-.27-.49-.74-.76-.76-.9-.07-1.8,.02-2.71,.05-.32,0-.65,0-.97,.01v-1.48c1.43,1.1,2.75,1.09,4.05,.78,.41-.1,.71-.61,1.07-.94-.33-.31-.62-.8-1-.89-.91-.2-1.87-.21-2.93-.3ZM83.57,3.98c-.79-.98-1.45-.12-1.92,.33-.47,.46-.9,1.24-.87,1.87,.03,.61,.68,1.24,1.5,.85,.92-.43,1.11,.05,1.38,.78,.16,.43,.67,1,1.04,1.01,.48,.02,1.28-.35,1.41-.74,.24-.7,1.25-1.6-.08-2.32-.08-.04,0-.37,0-.56-.04-.68-.09-1.36-.14-2.04-.69,.23-1.38,.47-2.07,.7-.07,.03-.14,.06-.26,.12ZM8.9,81.24c.94,0,1.5,0,2.07,0,.33,0,.74-.08,.98,.08,.81,.53,2.46,.22,2.9-.62,.44-.84-.02-1.83-.94-2-.37-.07-.75-.11-1.14-.17,.17-.89,1.07-2-.33-2.58-.48-.2-1.44,.14-1.83,.56-.5,.54-1.6,1.21-.59,2.12l-1.13,2.6ZM76.36,24.37c-.45-.16-.76-.38-1.03-.35-.65,.08-1.71,.14-1.83,.48-.35,.97,.65,1.22,1.34,1.43,.54,.16,1.15,.1,1.89,.15l-.44,1.01c-.69-.35-1.22-.75-1.82-.89-.37-.08-.84,.23-1.26,.36,.24,.36,.41,.84,.75,1.04,.51,.3,1.14,.41,1.72,.6l-.04,.29c-.2,0-.42,.05-.6-.01-.44-.15-.85-.42-1.3-.5-.22-.04-.5,.26-.76,.4,.15,.22,.24,.53,.45,.63,.46,.24,.98,.39,1.48,.58l-.05,.21-1.93-.35-.13,.46,1.51,.85-.71,.53c.43,.02,.84-.09,1.01-.36,.6-.92,1.13-1.9,1.68-2.86,.34-.61,.98-1.26,.94-1.85-.11-1.7-.5-3.38-.78-5.09-1.08,.72-1.08,.81-.09,3.22ZM20.96,83.51c-1.33-.06-2.34,1.55-1.68,2.75,.5,.91,1.08,1.77,1.67,2.62,.4,.57,.87,.57,1.18-.09,.33-.71,.57-1.47,.86-2.2,.65-1.68,.1-2.96-2.03-3.08ZM90.31,19.79c-.1-.77-.2-1.53-.3-2.3-.13-.95-.61-1.68-1.62-1.55-1.15,.15-1.74,1.29-1.71,2.28,.05,1.45,1.27,1.81,2.11,2.4,1.25,.87,1.36,.73,1.52-.84Zm-20.08,46.17c.44,3.43,2.23,5.97,5.23,7.63,.24,.14,.68-.08,1.03-.13-.15-.28-.24-.7-.47-.81-2.94-1.36-4.85-3.58-5.8-6.69Zm16.98,19.7c-2.65-1.19-4.65-2.94-5.63-5.75-.09-.26-.57-.38-.87-.56-.06,.31-.27,.68-.17,.91,1.3,2.93,3.61,4.66,6.66,5.4Zm-1.66-18.49c-.62-1.83-2.47-2.97-4.16-2.63-.28,.06-.51,.38-.76,.59,.27,.15,.56,.48,.79,.43,1.7-.3,3.07,.2,4.12,1.61Zm-4.84-10.49c.73-2.35,1.87-4.23,3.93-5.4-2.55,.71-4.99,3.81-3.93,5.4Zm-18.1,19.08c-1.67-.76-4.61,1.57-5.03,3.75,1.12-1.97,2.92-3.05,5.03-3.75Zm-17.57,7.88c.21-1.51,1.3-2.27,2.48-3.09-.49-.13-.93-.13-1.23,.07-1.02,.71-1.51,1.69-1.25,3.01ZM82.08,19.18c0-1.58-1.64-3.19-3.05-3.37l3.05,3.37Zm-8.35,63.88c-.47,.71-.79,1.14-1.01,1.62-.04,.08,.51,.56,.54,.54,.43-.33,.85-.7,1.18-1.12,.05-.07-.32-.47-.71-1.03Zm16.71-47.58c-.43-1.59-1.71-2.61-2.85-2.45-.2,.03-.37,.21-.55,.33,.14,.16,.29,.46,.41,.45,1.26-.1,2.15,.54,3,1.67Zm-50.07,46.25l-2.7,3.35c1.51-.44,2.85-1.99,2.7-3.35ZM90.33,28.72l-3.33,2.66c1.45,.07,2.93-1.22,3.33-2.66ZM17.23,77.98c-.95-.87-2.03-.9-3.11-.19l3.11,.19ZM82.64,7.98c-.62,1.3-.54,2.42,.26,3.12l-.26-3.12Z"/><path d="M99.6,88.8c-.81,.27-1.61,.62-2.45,.79-1.45,.3-2.93,.5-4.47,.75l.4,1.85c-1.92,.14-3.75,.51-5.52,.34-2.3-.22-4.3-1.76-2.81-4.46,.35-.63,1.3-.93,2.04-1.42l1.4,2.22,.12-.06-.83-2.65,5.62,1.25,.06-.18-5.45-1.91,2.19-1.69-.04-.11-1.91,.85c-1.33-1.65-1.39-2.03-.49-3.25,.94-1.29,2.62-1.91,3.99-1.27,1.5,.7,2.91,1.6,4.57,2.52l-1.28,1.68c1.15,.93,2.41,1.88,3.59,2.92,.51,.44,.86,1.06,1.28,1.6v.24Z"/><path d="M76.31,91.43c.86,.73,1.04,1.52,.25,2.41h-1.44c-.31-.67-.95-1.38,.21-1.88,.16-.15,.33-.31,.49-.46,.17-.02,.34-.04,.51-.06l-.02-.02Z"/><path d="M84.96,27.32l-1.56-4.46c-1.37,.36-2.44,.73-3.55,.89-.5,.08-1.11-.16-1.59-.41-.95-.48-1.37-1.33-1.24-2.39,.14-1.08,.93-1.55,1.88-1.76,1.22-.26,2.29,.15,3.23,.93,.43,.35,.83,.73,1.34,1.19,1.46-2.21,1.71-4.56,1.28-7.18l2.56,.78-.09,.35-1.95-.41c0,.94,.08,1.7-.02,2.43-.15,1.02-.22,2.14-.71,3-.68,1.21-.41,2.08,.1,3.26,2.69,6.36,2.3,12.73-.45,18.97-1.91,4.33-3.58,8.72-4.28,13.43-1.1,7.47,.46,14.3,4.86,20.46,.53,.75,1.07,1.5,1.55,2.28,.73,1.22,.39,1.86-1.05,1.69-1.16-.14-2.31-.54-3.4-1-.91-.38-1.7-1.02-2.48-1.5-1.78,1-3.68,1.79-3.57,4.28-.66-1.92,.07-3.37,2.39-4.83-2.53-1.28-5.15-2.04-7.89-2.41-7.33-.97-14.14,.89-20.67,3.94-5.34,2.5-10.84,3.25-16.58,2.03-1.54-.33-3.02-.98-4.4-1.44l-1.44,2.46c.53,.06,1.18,.04,1.75,.24,.33,.12,.69,.56,.75,.91,.04,.2-.46,.7-.75,.73-.86,.1-1.74,.04-2.73,.04v.64c.84-.04,1.58-.15,2.3-.07,.28,.03,.51,.49,.76,.75-.26,.21-.49,.54-.78,.61-.45,.11-.94,.03-1.41,.05-.22,0-.43,.07-.63,.32l2.52,.26,.04,.7-2.61,.48,2.23,.25,.03,.5-1.73,.47,1.07,.46c-.61,.26-1.17,.39-1.39-.48-.37-1.49-1.05-2.98-1.04-4.46,0-1.14,.83-2.29,1.32-3.43,.2-.47,.49-.91,.73-1.35-1.87,.33-3.56,.45-5.1,.98-.84,.29-1.43,1.29-2.28,2.11l.88-2.22-1.42-.61c3.95,.43,6.01,.07,7.61-1.31-.34-.38-.68-.75-1-1.13-.83-.99-1.32-2.09-1-3.42,.24-.98,.75-1.7,1.82-1.8,1.06-.1,1.91,.33,2.36,1.3,.58,1.27,.53,2.56-.15,3.8-.17,.31-.38,.6-.74,1.15,1.73,.61,3.36,1.18,5.24,1.83-.3-.76-.54-1.2-.66-1.68-.32-1.24,.06-2.31,1-3.14,.85-.74,1.91-1.08,2.87-.44,.62,.42,1.2,1.21,1.33,1.93,.1,.54-.38,1.37-.85,1.79-.81,.72-2.24,.26-2.39-.76-.07-.48,.3-1.27,.71-1.51,.57-.33,1.24-.09,1.3,.59-.43-.11-.91-.35-1.3-.26-.2,.05-.46,.91-.32,1.06,.32,.35,1,.8,1.29,.66,.48-.22,.98-.82,1.07-1.34,.16-.89-.41-1.5-1.3-1.73-1.21-.32-2.43,.48-2.7,1.76-.31,1.48,.7,3.08,2.2,3.12,1.91,.05,3.83-.07,5.73-.28,3.81-.43,7.05-2.46,10.8-4.08-2.39,.03-4.29-.44-6.01-2.06,3.6,1.64,7.02,1.81,10.68,.46-.54-.46-.95-.76-1.31-1.12-2.31-2.3-1.57-6.09,1.38-7.06,1.24-.41,2.64-.05,3.49,.95,.76,.89,1.06,1.9,.53,3-.47,.98-1.29,1.71-2.37,1.43-.69-.18-1.44-.85-1.77-1.5-.2-.38,.23-1.31,.64-1.7,.3-.27,1.17-.24,1.57,.01,.35,.21,.38,.92,.6,1.54-.51-.62-.78-1.25-1.22-1.39-.28-.1-1.02,.43-1.17,.82-.29,.77,.14,1.43,.94,1.67,.85,.26,1.61,0,2.07-.79,.51-.89,.42-1.77-.24-2.56-.76-.91-2.08-1.14-3.17-.6-1.27,.64-2.01,2.17-1.69,3.52,.48,2.05,2.51,3.27,4.67,3.04,2.97-.31,5.96-.66,8.94-.64,4.23,.03,8.17,1.38,11.88,3.39,.31,.17,.63,.34,1.16,.63-.16-.36-.22-.52-.31-.67-4.05-6.68-5.08-13.86-3.61-21.47,.44-2.26-.22-3.95-1.87-4.89-1.85-1.06-4.19-.16-4.77,1.82-.47,1.62,.81,3.34,2.42,3.17,.44-.05,.93-.28,1.27-.57,.63-.55,.9-1.35,.34-2.02-.34-.41-1.14-.85-1.54-.71-.5,.17-.8,.92-1.26,1.53,.14-.49,.13-1.33,.47-1.52,.57-.32,1.45-.45,2.04-.23,.9,.34,1.18,1.27,.96,2.22-.25,1.09-1,1.72-2.08,1.89-2.01,.32-3.82-1.65-3.42-3.71,.49-2.57,3.39-4.04,5.78-2.81,.93,.48,1.68,1.3,2.57,2.01,.33-.96,1.22-2.19,.95-3.07-.37-1.18,.03-2.23-.16-3.3-.19-1.13-.54-2.23-.87-3.54,1.36,1.61,1.68,3.35,1.64,5.25,1.63-3.46,3.67-6.77,4.11-10.68,.21-1.86,.25-3.75,.25-5.62,0-1.16-.95-2.02-2.15-2.23-1.06-.18-2.12,.36-2.59,1.32-.63,1.3,.24,2.83,1.6,2.75,.36-.02,.94-.2,1.02-.45,.18-.52,.21-1.17,.06-1.7-.05-.17-.86-.12-1.32-.17l-.12,1.46c-.47-.29-.75-.8-.27-1.52,.42-.64,1.41-.7,2.01-.13,.63,.61,.71,1.35,.26,2.07-.52,.82-1.3,1.21-2.26,.91-1.04-.33-1.67-1.07-1.76-2.19-.1-1.18,.51-2.46,1.68-2.75,1.08-.27,2.28-.06,3.67-.06Zm-2.21-5.28c-.93-1.18-1.85-2.2-3.45-2.11-.78,.04-1.43,.3-1.58,1.16-.15,.85,.25,1.45,1.01,1.83,1.26,.62,2.7,.32,4.01-.87ZM28.19,77.82c1.08-1,1.25-2.22,.98-3.52-.21-1.03-1.11-1.67-1.97-1.52-.82,.15-1.38,1.13-1.18,2.18,.25,1.29,1.06,2.17,2.17,2.86Z"/><path d="M70.65,65.31c-.28-1.03-.59-2.06-.82-3.1-.24-1.04-.4-2.1-.79-3.14,.21,2.11,.42,4.23,.67,6.78l-3.26-1.65-.09,.07,2.42,1.94c-.22,1.18-.76,2.05-2.16,2.22-1.34,.17-2.52-.09-3.29-1.21-.85-1.22-.84-2.68-.57-4.07,.24-1.24,.68-2.43,1.08-3.82l2.23,.82c-.06-2.49,.82-4.62,2.43-6.4,2.31,1.02,3.41,3.13,4.42,5.27l2.15-1.09c.81,1.69,1.69,3.16,2.24,4.75,.9,2.61-1.92,4.52-3.73,4.27-.65-.09-1.21-.81-1.78-1.23l1.4-2.19-.14-.08-1.79,2.29-.62-.42Z"/><path d="M46.36,73.93l-2.9,.45h2.33c.68,1.34,.47,2.09-.72,2.85-1.07,.68-2.46,.31-3.33-.89-.21-.29-.42-.59-.56-.91-.36-.84-.68-1.69-1.05-2.64l1.22-.47-1.36-4.62c2.06-.68,3.52,.21,5.07,.83l.79-1.47c1.16,.56,2.26,1,3.27,1.61,1.04,.62,1.31,1.81,.82,2.94-.47,1.07-1.18,1.71-2.54,1.17l-.18-1.51-.41,2.08-2.76-2.08-.12,.1,2.45,2.58Z"/><path d="M78.26,40.64l-1.83,.53,1.19,.1c.5,1.14,.13,1.93-.92,2.46-1.1,.55-2.4,.39-3.01-.56-.66-1.03-1.14-2.17-1.75-3.38l1.28-.74c-.37-1.61-.73-3.16-1.1-4.77,2.04-.33,3.54,.26,4.98,1.23l.69-1.79c1.51,.99,2.96,1.78,4.19,2.82,.81,.69,.64,1.78,0,2.61-.65,.84-1.45,1.43-2.59,.59v-1.75l-.65,2.17-3.17-3.02-.07,.08,2.77,3.43Z"/><path d="M58.07,85.52l-3.68,3.24c-1.14-1.79-1.17-3.4-.87-5.08l-1.63,.22c.1-1.81-.43-3.55,.57-5.18,.74-1.2,2.58-1.46,3.52-.45,.53,.56,.32,1.45-.54,1.95h1.43c-.23,.65-.43,1.2-.62,1.74-.18,.52-.34,1.05-.39,1.63,.12-.24,.31-.47,.35-.73,.28-1.71,1.73-2.33,2.99-2.99,.38-.2,1.27,.24,1.73,.62,.79,.66,1.11,1.65,.56,2.59-.65,1.12-1.5,2.13-2.31,3.27l-1.12-.85Z"/><path d="M85.95,52.17l-.6-.88,3.49-1.67-.03-.11-3.64,1.19-.08-1.12c-.79,.89-1.67,.82-2.22-.16-.87-1.58,.04-3.33,1.99-3.58,1.25-.16,2.53-.03,3.89-.03l-.1,1.23,4.66,.72c-.31,2.12-1.82,2.93-3,4.07l.91,1.25c-1.06,.77-2.02,1.6-3.09,2.24-1.27,.75-3.07-.1-3.45-1.51-.2-.75,.32-1.5,1.25-1.63Z"/><path d="M35.43,85.73c.53,.15,1.35,.25,2.02,.63,.38,.22,.77,.92,.7,1.33-.1,.58-.55,1.47-.97,1.54-1.17,.21-2.4,.07-3.69,.07l.07-1.16-3.29-1.04-.13-.47,2.51-2.5-.41-.96c.74-.46,1.43-.94,2.15-1.34,.81-.45,1.56-.21,2.14,.45,.58,.66,.8,1.37,.09,2.12-.46,.48-.89,.99-1.18,1.32Z"/><path d="M73.84,17.95l.44-.98-2.56-2.38,.07-.47,3.3-1.23-.09-1.12c1.24-.04,2.42-.19,3.56-.07,.93,.1,1.25,.89,1.19,1.79-.06,.82-.44,1.29-1.33,1.37-.61,.05-1.2,.31-1.8,.48,.11,.43,1.78-.11,1.02,1.21,.23,.06,.64,.09,.66,.2,.11,.53,.31,1.16,.12,1.6-.35,.82-1.11,1.35-2.04,.99-.87-.34-1.67-.89-2.54-1.38Z"/><path d="M21.61,73.17c-.22,.14-.6,.26-.62,.43-.12,1.06-.86,1.29-1.7,1.28-.85-.01-1.5-.54-1.55-1.38-.06-1.08,.1-2.18,.16-3.33h1.09l1.16-3.22,.44-.15,2.48,2.54,.97-.37c.44,.75,.91,1.44,1.27,2.18,.48,.99,.11,1.79-.78,2.35-.79,.5-1.27,.04-2.02-.38-.9-.51-.88-1.27-1.44-1.86l.52,1.92h.01Z"/><path d="M91.26,25.35l-.72,1.97-.69-.29c-.14,.75-.55,1.21-1.42,.97-1.29-.35-1.85-1.66-1.19-2.83,.37-.65,.81-1.26,1.26-1.95l.95,.42,2.47-2.55,.48,.12,1.08,3.32,1-.05c.13,.9,.32,1.75,.35,2.61,.05,1.29-.82,2.16-1.88,2.15-1.18-.02-1.92-1.5-1.82-2.56,.04-.43,.17-.85,.26-1.28l-.12-.06Z"/><path d="M88.81,64.31l-1.32,.95,.07-1.38-1.45,.43v-1.36c-.08,.06-.22,.23-.4,.3-.43,.16-.88,.27-1.33,.39,.03-.48-.1-1.06,.11-1.43,.37-.64,.96-1.14,1.46-1.71,.22-.25,.63-.6,.57-.75-.13-.32-.51-.54-.6-.63-.84,1.25-1.52,2.38-2.34,3.39-.23,.29-.9,.22-1.37,.32-.05-.45-.29-.98-.12-1.33,.42-.88,1.02-1.68,1.57-2.57-.46,.14-.93,.37-1.41,.41-.48,.04-1.05,.02-1.46-.2-.29-.15-.38-.68-.56-1.04,.34,.06,.67,.12,1.01,.19,.26,.05,.6,.24,.78,.14,1.23-.68,2.48-.31,3.71-.11,.47,.07,1.02,.34,1.3,.7,.99,1.25,1.89,2.57,2.79,3.88,.46,.67,.59,1.29-.55,1.36v-.22l-.24,.27h.01l-.25-.02Zm-6.04-2.57l.42,.25,1.33-2.05-.4-.25-1.36,2.05Z"/><path d="M65.91,78.23c1.06,.1,2.01,.1,2.93,.3,.38,.08,.67,.58,1,.89-.35,.32-.66,.84-1.07,.94-1.3,.31-2.62,.32-4.05-.78v1.48c.32,0,.65,0,.97-.01,.9-.03,1.81-.12,2.71-.05,.27,.02,.51,.5,.76,.76-.25,.22-.5,.61-.76,.63-1.06,.07-2.13,.03-3.19,.03l-.11,.35c.24,.08,.48,.24,.72,.23,.63-.03,1.26-.22,1.88-.16,.34,.04,.64,.46,.96,.71-.31,.2-.61,.53-.94,.57-.76,.09-1.53,.03-2.29,.03l-.03,.29,3.06,.16c-.81,1.38-1.92,.58-2.74,1.18l2.05,.3c-1.73,.74-2.32,.35-2.82-1.62-.28-1.12-.69-2.2-1.01-3.31-.09-.3-.22-.71-.09-.92,.69-1.08,.83-2.49,2.1-3.24,.4-.24,.53-.92,.81-1.38,.13-.21,.31-.38,.47-.57,.17,.19,.51,.42,.47,.56-.16,.61-.34,1.25-.67,1.78-.23,.36-.71,.56-1.11,.86Zm2.68,1.28v-.27h-2.43v.27h2.43Z"/><path d="M83.57,3.98c.12-.05,.19-.09,.26-.12,.69-.24,1.38-.47,2.07-.7,.05,.68,.1,1.36,.14,2.04,.01,.19-.07,.52,0,.56,1.33,.72,.31,1.62,.08,2.32-.13,.38-.93,.75-1.41,.74-.37-.01-.88-.58-1.04-1.01-.27-.73-.46-1.22-1.38-.78-.82,.38-1.48-.24-1.5-.85-.03-.62,.4-1.41,.87-1.87,.47-.45,1.13-1.31,1.92-.33Z"/><path d="M8.9,81.24l1.13-2.6c-1.01-.91,.09-1.57,.59-2.12,.39-.42,1.35-.75,1.83-.56,1.4,.57,.5,1.68,.33,2.58,.39,.06,.76,.1,1.14,.17,.92,.16,1.38,1.16,.94,2-.44,.84-2.09,1.15-2.9,.62-.24-.16-.65-.07-.98-.08-.57,0-1.13,0-2.07,0Z"/><path d="M47.6,86.61c1.06,.17,1.06,.68,.59,1.51-.43,.75-.75,1.57-1.02,2.39-.23,.68-.63,.86-1.27,.72l-.34-.32c-.2-.58,.41-2.46,.91-3.27-.51,1.06-1.37,1.95-1.33,3.26l-.35,.34c-.83,.12-1.33-.06-1.44-1.06-.07-.67-.48-1.3-.71-1.96-.56-1.62-.55-1.62,.98-2.02l.35-.35,.39,.02,1.72,.29,1.52,.45Z"/><path d="M76.36,24.37c-.99-2.41-.98-2.5,.09-3.22,.28,1.71,.67,3.39,.78,5.09,.04,.59-.59,1.24-.94,1.85-.54,.96-1.07,1.94-1.68,2.86-.17,.26-.59,.37-1.01,.36l.71-.53-1.51-.85,.13-.46,1.93,.35,.05-.21c-.5-.19-1.01-.33-1.48-.58-.2-.11-.3-.42-.45-.63,.25-.14,.53-.44,.76-.4,.45,.07,.86,.35,1.3,.5,.18,.06,.4,.01,.6,.01l.04-.29c-.58-.19-1.21-.3-1.72-.6-.34-.2-.51-.68-.75-1.04,.42-.13,.89-.45,1.26-.36,.59,.13,1.12,.53,1.82,.89l.44-1.01c-.74-.05-1.35,.01-1.89-.15-.69-.21-1.69-.46-1.34-1.43,.12-.34,1.19-.39,1.83-.48,.27-.04,.58,.19,1.03,.35Z"/><path d="M20.96,83.51c2.12,.12,2.68,1.4,2.03,3.08-.28,.74-.53,1.49-.86,2.2-.3,.65-.78,.66-1.18,.09-.59-.85-1.17-1.71-1.67-2.62-.66-1.2,.35-2.81,1.68-2.75Z"/><path d="M90.31,19.79c-.16,1.57-.27,1.72-1.52,.84-.84-.59-2.06-.95-2.11-2.4-.04-.99,.55-2.13,1.71-2.28,1.01-.13,1.49,.6,1.62,1.55,.1,.76,.2,1.53,.3,2.3Z"/><path d="M92.57,42.5c-.33,.14-.86,.47-.96,.38-.68-.7-1.27-1.49-1.89-2.25l1.96-1.52,1.47,.59-.02,.82-.56,1.99Z"/><path d="M93.16,39.69c-.49-.2-.98-.39-1.47-.59-.16-.36-.33-.73-.49-1.09l2.19-1.11c.84,.32,1.63,2.27,1.18,3.01-.14,.23-.53,.48-.74,.43-.26-.06-.45-.42-.67-.65Z"/><path d="M91.19,38.01c.16,.36,.33,.73,.49,1.09-.65,.51-1.31,1.02-1.96,1.52-.97,.14-1.24-.39-.99-1.18,.24-.76-1.24-2.59,1.21-2.06l1.25,.62Z"/><path d="M70.22,65.97c.95,3.11,2.86,5.33,5.8,6.69,.23,.11,.32,.53,.47,.81-.35,.05-.79,.27-1.03,.13-3.01-1.66-4.8-4.2-5.23-7.63Z"/><path d="M87.2,85.66c-3.06-.74-5.36-2.47-6.66-5.4-.1-.23,.11-.61,.17-.91,.3,.18,.78,.3,.87,.56,.98,2.81,2.98,4.57,5.63,5.75Z"/><path d="M89.99,73.2c.3-.08,.61-.24,.9-.22,.43,.04,1.14,.14,1.2,.36,.12,.45-.09,.99-.2,1.49-.03,.14-.19,.24-.3,.36-.43-.02-.87-.05-1.3-.07l-.81-1.2,.52-.72Z"/><path d="M89.99,73.2c-.17,.24-.35,.48-.52,.72-.38,0-.75,0-1.13,0l-.5-.94v-1.23l.23-.45,1.23-.07,.7,.8-.02,1.17Z"/><path d="M92.57,42.5l.56-1.99c1.55-.02,1.57,0,1.14,1.57-.04,.14-.03,.3,.01,.44,.21,.76-.03,1.34-.83,1.35-.83,0-.96-.67-.88-1.37Z"/><path d="M91.19,38.01l-1.25-.62c.02-.89,.27-1.5,1.36-1.24,.19,.05,.43-.05,.63-.13,.88-.35,1.39-.11,1.45,.87l-2.19,1.11Z"/><path d="M77,84.74c.14-.24,.22-.6,.42-.68,.46-.19,1.07-.47,1.43-.3,.87,.4,.76,1.18,.34,1.92-.41,.16-.81,.33-1.22,.49-.39-.4-.78-.81-1.18-1.21l.2-.22Z"/><path d="M88.35,73.91c.38,0,.75,0,1.13,0,.27,.4,.54,.8,.81,1.2-.1,.16-.2,.33-.3,.49-.29,.56-.56,1.16-1.38,.87-.91-.32-.91-1.06-.78-1.83l.51-.73Z"/><path d="M77,84.74l-.2,.22-.68,.52-1.24-.53c-.03-.2-.14-.42-.09-.58,.15-.45,.27-1.01,.6-1.28,.24-.19,1.02-.14,1.16,.07,.29,.43,.31,1.04,.44,1.57Z"/><path d="M75.82,91.5l-.49,.46c-.27,0-.62,.09-.81-.04-.39-.27-.97-.66-.96-.99,0-.4,.54-.79,.84-1.18l.48-.23,.6,.11,.35,1.88Z"/><path d="M74.88,89.52l-.48,.23c-.56-.14-1.36-.12-1.62-.48-.24-.34,.09-1.09,.16-1.66,.32-.13,.64-.25,.95-.38,.24,.3,.48,.6,.72,.9l.25,1.38Z"/><path d="M88.35,73.91l-.51,.73c-.39,.15-1.08,.5-1.14,.43-.34-.5-.53-1.09-.78-1.65v.02c.53-.58,1.15-.85,1.92-.47l.5,.94Z"/><path d="M85.45,71.99c-.55-.19-1.19-.28-1.62-.63-.2-.16-.14-1.07,.09-1.23,.39-.27,1-.21,1.52-.29l-.02-.02c.83,.72,.69,1.45,0,2.18h.02Z"/><path d="M89.99,75.61c.1-.16,.2-.33,.3-.49,.44,.02,.87,.05,1.3,.07,.74,.2,.99,.76,.67,1.36-.2,.37-.85,.83-1.14,.74-.45-.13-.8-.69-1.14-1.11-.09-.11,0-.38,.01-.58Z"/><path d="M85.44,69.84c-.06-.27-.17-.55-.16-.82,.04-.81,.48-1.3,1.3-1.2,1.08,.13,1.16,.91,1,1.79v-.03c-.64,.76-1.39,.65-2.17,.24l.02,.02Z"/><path d="M77.51,89.51c.61,.39,1.25,.82,.88,1.67-.52,1.23-1.33,.67-2.08,.25l.02,.02c-.46-1.2-.21-1.6,1.2-1.92l-.02-.02Z"/><path d="M90.01,72.02c-.23-.27-.47-.53-.7-.8,.07-.14,.14-.28,.21-.43l1.31-.57c.2,.12,.49,.2,.59,.38,.23,.41,.52,.89,.48,1.32-.03,.3-.55,.77-.85,.77-.34,0-.69-.43-1.03-.68Z"/><path d="M90.83,70.23l-1.31,.57c-.16-.52-.33-1.04-.49-1.56l.75-.86-.02,.02c.53,.24,1.18,.36,1.54,.75,.37,.39,.26,.97-.47,1.08Z"/><path d="M85.54,67.17c-1.06-1.41-2.42-1.9-4.12-1.61-.23,.04-.53-.28-.79-.43,.25-.2,.48-.53,.76-.59,1.69-.34,3.54,.8,4.16,2.63Z"/><path d="M79.25,87.87c.12,1.79-.16,2.06-1.74,1.64l.02,.02c-.18-.38-.62-.94-.5-1.1,.32-.44,.88-.72,1.34-1.06l.87,.51Z"/><path d="M73.9,87.24l-.95,.38c-.75,.13-1.13-.35-.98-.93,.12-.46,.62-.88,1.05-1.19,.17-.12,.59,.1,.89,.16l.49,1.09-.5,.49Z"/><path d="M89.03,69.23c.16,.52,.33,1.04,.49,1.56-.07,.14-.14,.28-.21,.43-.41,.02-.82,.04-1.23,.07-.24-.17-.48-.34-.72-.51l.25-1.2v.03c.36-.52,.66-1.34,1.42-.37Z"/><path d="M80.7,56.68c-1.05-1.59,1.38-4.68,3.93-5.4-2.06,1.16-3.21,3.05-3.93,5.4Z"/><path d="M79.25,87.87c-.29-.17-.58-.34-.88-.51-.22-.31-.44-.62-.66-.93l.26-.26,1.22-.49c.33,.42,.8,.79,.94,1.27,.06,.21-.57,.61-.88,.92Z"/><path d="M74.4,86.75l-.49-1.09,.97-.7c.41,.18,.83,.35,1.24,.53,0,.29-.01,.58-.02,.87-.49,.46-.87,1.4-1.7,.4Z"/><path d="M62.61,75.76c-2.11,.7-3.92,1.78-5.03,3.75,.42-2.18,3.36-4.51,5.03-3.75Z"/><path d="M85.92,73.42l-.9,.69c-.28-.39-.66-.75-.78-1.19-.05-.16,.5-.5,.79-.74,.11-.09,.28-.13,.42-.19h-.02c1.17,.11,1.2,.19,.48,1.45v-.02Z"/><path d="M46.07,86.16l-1.72-.29c-.09-.72-.03-1.44,.9-1.42,.83,.02,.95,.67,.84,1.36l-.02,.34Z"/><path d="M46.07,86.16l.02-.34c.25-.63,.59-1.2,1.36-.77,.72,.4,.61,1,.14,1.56l-1.52-.45Z"/><path d="M89.77,68.38c-.38,.09-.78,.29-1.14,.24-.37-.06-.73-.33-1.04-.58-.07-.05,.06-.54,.17-.58,.39-.13,.91-.32,1.2-.16,.35,.19,.53,.72,.78,1.1l.02-.02Z"/><path d="M45.03,83.64c-.27-1.33,.23-2.31,1.25-3.01,.3-.21,.75-.2,1.23-.07-1.17,.82-2.26,1.58-2.48,3.09Z"/><path d="M82.08,19.18l-3.05-3.37c1.41,.18,3.05,1.78,3.05,3.37Z"/><path d="M73.73,83.06c.4,.56,.77,.97,.71,1.03-.34,.42-.75,.79-1.18,1.12-.03,.02-.58-.46-.54-.54,.22-.48,.55-.91,1.01-1.62Z"/><path d="M90.44,35.48c-.85-1.13-1.73-1.77-3-1.67-.12,0-.27-.29-.41-.45,.18-.11,.36-.3,.55-.33,1.15-.16,2.43,.86,2.85,2.45Z"/><path d="M21.59,73.18c.81,1.69,1.97,3.07,3.8,3.82-1.71,.27-3.3-1.48-3.78-3.84h-.01Z"/><path d="M44.79,91.24l.35-.34h.42l.34,.33c-.09,.47-.19,.94-.28,1.42l-1.16-.26,.33-1.15Z"/><path d="M40.37,81.72c.15,1.36-1.19,2.91-2.7,3.35l2.7-3.35Z"/><path d="M90.33,28.72c-.4,1.44-1.87,2.73-3.33,2.66l3.33-2.66Z"/><path d="M43.97,85.85l-.35,.35-.85-.62,.96-.71,.24,.98Z"/><path d="M17.23,77.98l-3.11-.19c1.08-.71,2.16-.68,3.11,.19Z"/><path d="M82.64,7.98l.26,3.12c-.8-.7-.89-1.82-.26-3.12Z"/><path d="M88.81,64.31h.25l-.09,.19-.16-.19Z"/><path d="M89.29,64.08v.2l-.25,.05,.23-.27,.02,.02Z"/><path class="cls-1" d="M74.4,86.75c.83,1.01,1.21,.07,1.7-.4,.28,.31,.56,.63,.83,.94l.78-.86c.22,.31,.44,.62,.66,.93-.46,.34-1.02,.61-1.34,1.06-.12,.16,.32,.72,.5,1.1-1.41,.33-1.66,.72-1.2,1.92-.17,.02-.34,.04-.51,.06-.12-.63-.23-1.25-.35-1.88,.61,.03,1.28,.07,1.28-.78,0-.49-.09-1.2-.4-1.41-.65-.43-1.26-.04-1.65,.62-.02,.03-.05,.06-.08,.09-.24-.3-.48-.6-.72-.9,.17-.16,.33-.32,.5-.49Z"/><path class="cls-1" d="M82.75,22.04c-1.31,1.2-2.75,1.49-4.01,.87-.76-.37-1.16-.98-1.01-1.83,.15-.85,.8-1.12,1.58-1.16,1.6-.09,2.52,.93,3.45,2.11Z"/><path class="cls-1" d="M28.19,77.82c-1.11-.69-1.92-1.57-2.17-2.86-.2-1.05,.36-2.03,1.18-2.18,.85-.15,1.75,.49,1.97,1.52,.27,1.3,.11,2.52-.98,3.52Z"/><path class="cls-1" d="M82.76,61.74l1.36-2.05,.4,.25-1.33,2.05-.42-.25Z"/><path d="M89.27,64.06l.02,.02-.02-.02Z"/><path class="cls-1" d="M68.59,79.52h-2.43v-.27h2.44v.27Z"/><path class="cls-1" d="M45.56,90.91h-.42c-.04-1.32,.82-2.21,1.33-3.27-.49,.81-1.1,2.69-.91,3.27Z"/><path class="cls-1" d="M85.91,73.44c.72-1.26,.69-1.34-.48-1.44,.68-.73,.82-1.45,0-2.18,.78,.41,1.53,.52,2.18-.24l-.25,1.2c-.3-.1-.64-.34-.88-.27-.18,.06-.35,.54-.31,.8,.06,.35,.34,.92,.52,.92,.39,0,.78-.31,1.17-.49v1.23c-.78-.38-1.4-.11-1.95,.47Z"/><path d="M87.86,71.74c-.39,.18-.78,.49-1.17,.49-.18,0-.46-.58-.52-.92-.05-.26,.13-.74,.31-.8,.24-.08,.58,.16,.88,.27,.24,.17,.48,.34,.72,.51l-.22,.45Z"/><path d="M77.71,86.43l-.78,.86c-.28-.31-.56-.63-.83-.94,0-.29,.01-.58,.02-.87,.23-.17,.45-.35,.68-.52,.39,.4,.78,.81,1.18,1.21-.09,.09-.17,.17-.26,.26Z"/><path d="M74.63,88.13s.06-.06,.08-.09c.39-.66,1-1.05,1.65-.62,.32,.21,.4,.93,.4,1.41,0,.85-.67,.81-1.28,.78-.2-.04-.4-.07-.6-.11l-.25-1.38Z"/></svg>